<svg width="14" height="14" viewBox="0 0 14 14" fill="none" xmlns="http://www.w3.org/2000/svg">
<path fill-rule="evenodd" clip-rule="evenodd" d="M6.602 7.98552C8.02251 7.98552 9.17405 6.82241 9.17405 5.38765C9.17405 3.95288 8.02251 2.78977 6.602 2.78977C5.1815 2.78977 4.02995 3.95288 4.02995 5.38765C4.02995 6.82241 5.1815 7.98552 6.602 7.98552ZM6.602 6.68658C7.31225 6.68658 7.88803 6.10503 7.88803 5.38765C7.88803 4.67026 7.31225 4.08871 6.602 4.08871C5.89175 4.08871 5.31598 4.67026 5.31598 5.38765C5.31598 6.10503 5.89175 6.68658 6.602 6.68658Z" fill="#2B2C30"/>
<path fill-rule="evenodd" clip-rule="evenodd" d="M10.4126 11.9185C12.0014 10.736 13.0321 8.83288 13.0321 6.68658C13.0321 3.09967 10.1533 0.191895 6.602 0.191895C3.05074 0.191895 0.171875 3.09967 0.171875 6.68658C0.171875 8.83288 1.20263 10.736 2.79143 11.9185C2.82066 11.9403 2.85008 11.9618 2.87968 11.983C3.1683 12.1903 3.47458 12.3742 3.79581 12.5318C4.64379 12.9479 5.59592 13.1813 6.602 13.1813C7.60809 13.1813 8.56021 12.9479 9.40819 12.5318C9.42543 12.5233 9.44262 12.5148 9.45977 12.5062C9.79502 12.3379 10.1137 12.141 10.4126 11.9185ZM9.96413 10.6191C11.0555 9.66635 11.7461 8.25793 11.7461 6.68658C11.7461 3.81705 9.44301 1.49083 6.602 1.49083C3.76099 1.49083 1.4579 3.81705 1.4579 6.68658C1.4579 8.25793 2.14851 9.66635 3.23987 10.6191C3.90178 9.43468 5.15943 8.63499 6.602 8.63499C8.04458 8.63499 9.30223 9.43468 9.96413 10.6191ZM8.88899 11.3419C8.46165 10.5057 7.59793 9.93393 6.602 9.93393C5.60608 9.93393 4.74236 10.5057 4.31501 11.3419C5.00391 11.6878 5.78046 11.8823 6.602 11.8823C7.42354 11.8823 8.2001 11.6878 8.88899 11.3419Z" fill="#2B2C30"/>
</svg>
