<svg width="26" height="26" viewBox="0 0 26 26" fill="none" xmlns="http://www.w3.org/2000/svg">
<path fill-rule="evenodd" clip-rule="evenodd" d="M18.5352 5.43439C20.7894 5.95747 21.6517 7.2756 22.7327 9.08984H18.5352V5.43439ZM5.36139 9.24219C5.80275 9.24219 6.12311 9.45523 6.12311 9.95312C6.12311 10.3731 5.78331 10.7137 5.36357 10.7148H0.761719C0.340988 10.7148 0 11.056 0 11.4766C0 11.8973 0.340988 12.2383 0.761719 12.2383H7.61719C8.04189 12.2383 8.38188 12.5791 8.38188 13C8.38188 13.4207 8.04089 13.7617 7.62016 13.7617H0.761719C0.340988 13.7617 0 14.1027 0 14.5234C0 14.9442 0.340988 15.2852 0.761719 15.2852H2.4375V17.5703C2.4375 17.991 2.77849 18.332 3.19922 18.332H4.73039C5.00334 19.6765 6.19135 20.668 7.5918 20.668C8.99225 20.668 10.1803 19.6765 10.4532 18.332H18.1874C18.4604 19.6765 19.6484 20.668 21.0488 20.668C22.4493 20.668 23.6373 19.6765 23.9102 18.332H25.2383C25.659 18.332 26 17.991 26 17.5703V13C26 10.765 23.6426 10.6167 23.6405 10.6133H17.7734C17.3527 10.6133 17.0117 10.2723 17.0117 9.85156V5.28125H3.19922C2.77849 5.28125 2.4375 5.62224 2.4375 6.04297V7.71875H1.52344C1.10271 7.71875 0.761719 8.05974 0.761719 8.48047C0.761719 8.9012 1.10271 9.24219 1.52344 9.24219H5.36139ZM22.0363 16.7606C22.5816 17.3059 22.5816 18.1904 22.0363 18.7357C21.1591 19.6129 19.6523 18.9888 19.6523 17.748C19.6523 16.5075 21.1591 15.8834 22.0363 16.7606V16.7606ZM8.57925 16.7606C9.12456 17.3059 9.12456 18.1904 8.57925 18.7357C7.70209 19.6129 6.19531 18.9888 6.19531 17.748C6.19531 16.5075 7.70209 15.8834 8.57925 16.7606V16.7606Z" fill="#2B2C30"/>
</svg>
