<svg width="92" height="92" viewBox="0 0 92 92" fill="none" xmlns="http://www.w3.org/2000/svg">
    <g clip-path="url(#clip0_409_18918)">
        <path class="icon-background" d="M46 91.3015C71.4051 91.3015 92 70.9305 92 45.8015C92 20.6726 71.4051 0.301514 46 0.301514C20.5949 0.301514 0 20.6726 0 45.8015C0 70.9305 20.5949 91.3015 46 91.3015Z" fill="#BCC0D0"/>
        <path d="M27.8464 18.5286V31.3441V44.1579H30.321H32.7955V41.998V39.8381H33.8138H34.8337V41.998V44.1579H38.3265H41.821V39.4504C41.821 33.6472 41.8241 33.6546 38.3265 33.6546C36.5019 33.6546 35.929 33.763 35.4412 34.1997C35.1065 34.4993 34.8337 34.9039 34.8337 35.0985C34.8337 35.511 33.7979 35.8381 33.2045 35.6131C32.9237 35.5065 32.7955 34.9709 32.7955 33.9034V32.3512H34.5428H36.2883V26.9075V21.4654L34.5753 19.9961L32.8623 18.5286H30.3535H27.8464ZM8.35804 19.6813C2.92512 27.3319 0.00677429 36.4522 0 45.8015C0.00993434 46.5011 0.0361814 47.2003 0.0787202 47.8987C4.12374 49.8083 7.17381 53.7903 7.17381 59.0198V60.8615H11.8337H16.4919V50.6392V40.4153H14.8901H13.2883V30.0491V19.6813H8.84918H8.35804ZM43.866 24.5766L43.789 35.0155L43.7137 45.4545L34.7601 45.5306L25.8083 45.6068V53.2342H25.8048V60.8615H33.0848H40.3629V59.4362C40.3629 53.053 44.9169 47.6226 50.9816 46.7731C58.6508 45.6988 65.4012 51.4316 65.4011 59.0198V60.8615H68.6115H71.8237L71.7415 57.19L71.6611 53.5185L70.2784 53.4305L68.8956 53.3425L68.8888 49.1107C68.8806 45.3224 68.7589 44.3045 67.7319 39.4064C67.1009 36.397 66.1553 31.8306 65.6304 29.257L64.6755 24.5766H54.2708H43.866ZM47.6429 26.0154H55.1572H62.6699L64.6396 34.5839C65.7225 39.2959 66.7318 43.5319 66.8831 43.9971V43.9988C67.0345 44.464 67.0584 44.9169 66.9362 45.0059C66.8139 45.0934 65.5741 45.1021 64.181 45.0229L61.6482 44.879L60.5307 43.2946L59.4132 41.7102L53.528 41.6323L47.6429 41.5545V33.7849V26.0154ZM18.2374 40.9908V51.8868C18.2374 57.8791 18.3259 62.8685 18.4325 62.974C18.5393 63.0795 19.7835 63.1653 21.198 63.1653H23.7701V52.078V40.9908H21.0046H18.2374ZM52.977 48.4658C51.2354 48.4751 49.4712 48.8124 48.2127 49.4543C45.3068 50.9367 43.336 53.3183 42.5278 56.3217C42.0003 58.2807 42.0084 59.4824 42.5637 61.5911C43.4295 64.8792 45.7181 67.4433 49.0205 68.824C50.486 69.4359 51.0386 69.512 53.3449 69.4131C55.6539 69.3139 56.2172 69.1787 57.7858 68.3517C59.9659 67.2023 61.7001 65.4032 62.7366 63.2161C63.3991 61.8184 63.5082 61.2076 63.5016 58.9911C63.4935 56.7618 63.3762 56.1461 62.6579 54.59C61.5756 52.2457 59.1051 49.9284 56.7522 49.0515C55.673 48.6493 54.3316 48.4586 52.977 48.4658ZM0.205357 49.8741C0.65889 54.8176 1.92719 59.6544 3.95997 64.1928C4.09129 63.967 4.2174 63.7346 4.33646 63.4954C5.19499 61.7708 5.28088 61.3527 5.27426 58.9961C5.26806 56.7604 5.1514 56.1491 4.43743 54.6069C3.63626 52.8764 1.88156 50.9519 0.205357 49.8741ZM52.9017 54.5274C54.8789 54.5288 56.1399 55.2388 56.949 56.8075C58.0141 58.8726 57.6438 60.7132 55.8212 62.4273C55.089 63.1158 54.6127 63.2944 53.2491 63.3887C51.8523 63.4854 51.4089 63.3936 50.5812 62.8318C48.9562 61.7289 48.393 60.7545 48.3941 59.0554C48.3964 56.2732 50.1351 54.5254 52.9017 54.5274ZM19.6938 64.0303V65.0374V66.0463H21.1501H22.6047V65.0374V64.0303H21.1501H19.6938ZM26.8265 66.8469L21.1501 66.8706L15.4719 66.8926L15.383 68.1977L15.294 69.5028H21.1501H27.0045L26.9155 68.174L26.8265 66.8469Z" fill="white"/>
    </g>
    <defs>
        <clipPath id="clip0_409_18918">
            <rect width="92" height="91" fill="white" transform="translate(0 0.301483)"/>
        </clipPath>
    </defs>
</svg>
