<svg width="92" height="92" viewBox="0 0 92 92" fill="none" xmlns="http://www.w3.org/2000/svg">
    <g clip-path="url(#clip0_409_18926)">
        <path class="icon-background" d="M46 91.3017C71.4051 91.3017 92 70.9311 92 45.8026C92 20.6742 71.4051 0.303513 46 0.303513C20.5949 0.303513 0 20.6742 0 45.8026C0 70.9311 20.5949 91.3017 46 91.3017Z" fill="#BCC0D0"/>
        <path d="M46 21.2485C44.889 21.2523 43.7795 21.3298 42.679 21.4806L45.0756 37.035C45.3826 37.0012 45.6911 36.9832 46 36.9811C46.0188 36.9813 46.0376 36.9816 46.0563 36.982L46.7083 21.2595C46.4723 21.2525 46.2362 21.2489 46 21.2486V21.2485ZM46.7564 21.2613L46.531 36.9975C46.8576 37.017 47.1829 37.0542 47.5053 37.109L50.7644 21.7071C49.4428 21.4512 48.1024 21.3021 46.7564 21.2613ZM42.6319 21.486C41.2959 21.6637 39.9768 21.9488 38.6876 22.3383L43.6441 37.3008C43.9601 37.2139 44.2808 37.1444 44.6046 37.0925L42.6319 21.486ZM50.8124 21.7162L47.9726 37.2012C48.2916 37.2724 48.6064 37.3608 48.9155 37.4661L54.6931 22.8042C53.4315 22.338 52.1337 21.9742 50.8124 21.7162ZM38.6433 22.3529C37.3558 22.7517 36.1034 23.2536 34.8984 23.8537L42.2708 37.795C42.5696 37.659 42.8758 37.5394 43.1879 37.4369L38.6433 22.3529ZM54.7383 22.8206L49.3598 37.6315C49.6624 37.7532 49.9581 37.8914 50.2454 38.0453L58.3844 24.5242C57.2177 23.8595 55.9984 23.2897 54.7383 22.8206ZM34.8568 23.8747C33.652 24.4754 32.4987 25.1723 31.4084 25.9583L40.9955 38.5029C41.2694 38.3212 41.5534 38.1547 41.846 38.0041L34.8568 23.8747ZM58.4259 24.548L50.6573 38.2809C50.936 38.4498 51.2052 38.6337 51.4635 38.8317L61.7423 26.8197C60.701 25.9747 59.5918 25.215 58.4259 24.548ZM31.3706 25.9857C30.2806 26.7732 29.2573 27.6472 28.311 28.5992L39.8558 39.4136C40.0962 39.1886 40.349 38.9769 40.6131 38.7797L31.3706 25.9857ZM61.7801 26.8499L51.832 39.1295C52.0792 39.341 52.3144 39.5657 52.5366 39.8028L64.6753 29.6268C63.788 28.625 62.8197 27.6963 61.7801 26.8499ZM28.2777 28.632C27.3307 29.5858 26.464 30.6144 25.6863 31.7077L38.8806 40.4997C39.0799 40.2366 39.2938 39.9847 39.5215 39.7452L28.2777 28.632ZM64.7067 29.6624L52.8516 40.1563C53.0611 40.4052 53.2565 40.6653 53.4371 40.9354L67.1023 32.8751C66.3933 31.7416 65.5921 30.6672 64.7067 29.6624ZM25.6586 31.7442C24.8817 32.8399 24.1966 33.9965 23.6103 35.2026L38.0965 41.7302C38.2493 41.4372 38.4186 41.153 38.6036 40.8788L25.6586 31.7442ZM67.1282 32.9153L53.6883 41.3346C53.8548 41.6142 54.0055 41.9027 54.1399 42.1988L68.9614 36.4723C68.449 35.2393 67.8359 34.0497 67.1282 32.9153ZM23.5927 35.2437C23.0131 36.4544 22.5347 37.71 22.1622 38.998L37.524 43.0748C37.6276 42.7601 37.7491 42.4515 37.8878 42.1503L23.5927 35.2437ZM68.9799 36.5161L54.3218 42.6327C54.4403 42.9362 54.5417 43.2461 54.6256 43.5607L70.198 40.3262C69.8973 39.0255 69.4899 37.7513 68.9799 36.5161ZM22.1502 39.0409C21.7782 40.3294 21.5135 41.6458 21.3587 42.977L37.1813 44.4961C37.233 44.1682 37.3033 43.8434 37.3919 43.5233L22.1502 39.0409ZM70.2081 40.3709L54.7337 44.0175C54.8004 44.337 54.8491 44.6599 54.8796 44.9848L70.7779 44.3289C70.6971 42.9965 70.5065 41.6728 70.2081 40.3709ZM21.3541 43.0209C21.2415 43.9439 21.182 44.8726 21.1759 45.8024C21.1811 46.2134 21.1968 46.6243 21.223 47.0346L37.0881 45.9576C37.0858 45.9059 37.0839 45.8541 37.0825 45.8024C37.0843 45.5208 37.0997 45.2394 37.1287 44.9592L21.3541 43.0209ZM70.7807 44.3755L54.911 45.4534C54.9158 45.5697 54.9183 45.686 54.9184 45.8024C54.918 46.0133 54.91 46.2241 54.8944 46.4345L70.6708 48.3738C70.7674 47.5199 70.8185 46.6616 70.8241 45.8024C70.8236 45.3264 70.8092 44.8506 70.7807 44.3755ZM37.1056 46.4235L21.2248 47.0785C21.2926 48.4192 21.4715 49.7521 21.7595 51.0639L37.2395 47.4164C37.1759 47.0882 37.1312 46.7567 37.1056 46.4235ZM54.8436 46.8994C54.8031 47.2255 54.7442 47.549 54.6672 47.8686L69.908 52.351C70.2685 51.063 70.5221 49.7482 70.6662 48.4194L54.8436 46.8994ZM37.3356 47.8732L21.7678 51.1068C22.0616 52.4188 22.4638 53.7047 22.9703 54.9516L37.6311 48.8341C37.5142 48.5196 37.4155 48.1988 37.3356 47.8732ZM54.5444 48.3208C54.4481 48.6362 54.334 48.946 54.2027 49.2488L68.4987 56.1555C69.0672 54.942 69.5345 53.6845 69.896 52.3957L54.5444 48.3208ZM37.8047 49.2653L22.9878 54.9899C23.499 56.2358 24.1127 57.438 24.8228 58.5844L38.2535 50.1696C38.0866 49.8769 37.9368 49.5749 37.8047 49.2653ZM54.0106 49.6763C53.8623 49.9724 53.6974 50.26 53.5165 50.5377L66.4744 59.6833C67.238 58.5771 67.9089 57.411 68.4802 56.1966L54.0106 49.6763ZM38.501 50.5661L24.8459 58.62C25.5563 59.7661 26.3606 60.8525 27.2508 61.8683L39.0986 51.3836C38.8838 51.1226 38.6843 50.8496 38.501 50.5661ZM53.2533 50.926C53.0586 51.1963 52.8486 51.4555 52.6244 51.7024L63.8747 62.822C64.8168 61.8588 65.6776 60.821 66.4485 59.7189L53.2533 50.926ZM39.4052 51.7353L27.2785 61.9003C28.1697 62.9167 29.1439 63.8589 30.1912 64.7174L40.1366 52.4405C39.8794 52.2194 39.6352 51.984 39.4052 51.7353ZM52.2984 52.0386C52.0617 52.2752 51.8116 52.4985 51.5494 52.7072L60.7901 65.5011C61.8792 64.7024 62.9004 63.8167 63.8433 62.853L52.2984 52.0386ZM40.4958 52.7392L30.2236 64.7448C31.2712 65.6032 32.3884 66.3749 33.5639 67.0522L41.3362 53.3147C41.0452 53.1389 40.7646 52.9467 40.4958 52.7392ZM51.1698 52.984C50.8949 53.1777 50.6091 53.3558 50.3137 53.5174L57.3029 67.6469C58.5102 67.0349 59.6648 66.3261 60.755 65.5276L51.1698 52.984ZM41.7435 53.5476L33.6009 67.0732C34.7815 67.7426 36.0158 68.3148 37.2912 68.7841L42.667 53.9815C42.3511 53.8544 42.0427 53.7096 41.7435 53.5476ZM49.8972 53.7349C49.5921 53.8799 49.2788 54.0077 48.9589 54.1176L53.5045 69.2006C54.798 68.792 56.0554 68.279 57.2641 67.667L49.8972 53.7349ZM43.1075 54.1404L37.3309 68.7978C38.606 69.2661 39.9178 69.63 41.2531 69.8857L44.0911 54.4163C43.7582 54.343 43.4298 54.2509 43.1075 54.1404ZM48.512 54.2628C48.186 54.357 47.8548 54.4326 47.5201 54.4894L49.4937 70.105C50.8395 69.9161 52.1673 69.6182 53.4639 69.2144L48.512 54.2628ZM44.5519 54.5031L41.2956 69.894C42.6305 70.1492 43.9843 70.2955 45.3434 70.3315L45.5678 54.6072C45.2274 54.5917 44.8883 54.5569 44.5519 54.5031ZM47.0556 54.556C46.7179 54.5972 46.3781 54.6191 46.0379 54.6218L45.3868 70.3333C45.5911 70.3434 45.7955 70.3511 46 70.3562C47.1548 70.3535 48.308 70.271 49.4512 70.1095L47.0556 54.556Z" fill="white"/>
        <path d="M46 37.6296C43.8086 37.6297 41.707 38.4907 40.1574 40.0234C38.6079 41.5561 37.7373 43.6348 37.7373 45.8024C37.7373 47.9699 38.6079 50.0486 40.1574 51.5813C41.707 53.114 43.8086 53.975 46 53.9751C47.0852 53.9752 48.1597 53.7639 49.1623 53.3532C50.1648 52.9425 51.0758 52.3405 51.8432 51.5816C52.6105 50.8227 53.2192 49.9217 53.6345 48.9301C54.0498 47.9385 54.2636 46.8757 54.2636 45.8024C54.2636 44.729 54.0498 43.6662 53.6345 42.6746C53.2192 41.683 52.6105 40.782 51.8432 40.0231C51.0758 39.2642 50.1648 38.6622 49.1623 38.2515C48.1597 37.8408 47.0852 37.6295 46 37.6296ZM46 38.6226C46.9533 38.6225 47.8973 38.8081 48.7781 39.1689C49.6589 39.5297 50.4592 40.0585 51.1333 40.7252C51.8074 41.3919 52.3422 42.1835 52.7071 43.0546C53.0719 43.9257 53.2597 44.8594 53.2598 45.8024C53.2597 46.7453 53.0719 47.679 52.7071 48.5501C52.3422 49.4213 51.8074 50.2128 51.1333 50.8795C50.4592 51.5462 49.6589 52.075 48.7781 52.4358C47.8973 52.7966 46.9533 52.9822 46 52.9822C44.0749 52.9821 42.2286 52.2256 40.8673 50.8792C39.506 49.5327 38.7412 47.7065 38.7412 45.8024C38.7412 43.8982 39.506 42.072 40.8673 40.7255C42.2286 39.3791 44.0749 38.6226 46 38.6226Z" fill="white"/>
    </g>
    <defs>
        <clipPath id="clip0_409_18926">
            <rect width="92" height="91" fill="white" transform="translate(0 0.301483)"/>
        </clipPath>
    </defs>
</svg>
