<svg width="56" height="82" viewBox="0 0 56 82" fill="none" xmlns="http://www.w3.org/2000/svg">
<path d="M27.6897 0.00264967H27.5477C27.5477 0.00270261 27.5477 0.00264967 27.5477 0.00264967C27.5262 0.106998 27.4992 0.210911 27.4681 0.314147C27.468 0.3142 27.4681 0.314147 27.4681 0.314147C26.5021 3.51431 21.1032 6.16304 13.7648 6.99539V7.0288C12.2359 7.20223 10.6341 7.29623 8.98348 7.29628C5.83946 7.28834 2.74902 6.94758 0 6.29497V58.3159C0 66.9608 5.81681 74.1935 13.7648 76.3399V76.3479L27.6166 81.2835L41.4684 76.3479V76.3399C49.4164 74.1935 55.2329 66.9608 55.2329 58.3159V6.30899C52.4808 6.95673 49.3906 7.29639 46.2493 7.29628C41.0071 7.29628 36.2415 6.36378 32.8415 4.85542L32.8924 4.83687C29.9196 3.53022 28.085 1.827 27.6928 0.0116327C27.6928 0.0116327 27.6928 0.00370592 27.6928 0L27.6897 0.00264967Z" fill="url(#paint0_linear_1555_6475)"/>
<path d="M34.9591 60.117C30.7794 59.3603 27.4893 56.3645 26.3535 52.2812C26.0055 51.0303 26.0357 48.1317 26.4103 46.8342C27.5393 42.9235 30.659 40.0391 34.6255 39.2386C35.8621 38.989 38.1871 39.0517 39.3461 39.366C40.4214 39.6575 42.4151 40.6785 43.2925 41.3869C44.9021 42.6864 46.1973 44.6397 46.8234 46.7118C47.1136 47.6722 47.1576 48.0331 47.1671 49.5271C47.1753 50.8331 47.1239 51.4445 46.951 52.0976C45.9295 55.9546 43.0792 58.8588 39.313 59.8798C38.2515 60.1676 35.9352 60.2937 34.9591 60.117ZM38.3511 57.6069C38.8137 57.5088 39.6675 57.1993 40.2484 56.919C41.107 56.5048 41.5017 56.2124 42.3589 55.3552C43.2163 54.4977 43.5085 54.1034 43.9232 53.2439C44.599 51.8432 44.8341 50.709 44.7572 49.2209C44.6493 47.1327 43.823 45.2899 42.344 43.8382C40.7626 42.2862 39.2408 41.6376 36.9533 41.5409C35.2898 41.4707 34.176 41.7142 32.7418 42.4617C31.5754 43.0697 30.0734 44.5717 29.4654 45.738C28.7212 47.1658 28.4751 48.2858 28.5401 49.9496C28.6278 52.1971 29.2941 53.7569 30.8419 55.3381C32.7978 57.3363 35.6133 58.1869 38.3511 57.6069ZM34.5723 53.5754C34.1185 53.3706 31.3227 50.9958 31.1187 50.6419C30.5283 49.6174 31.6687 48.4406 32.7137 48.9959C32.8607 49.074 33.3822 49.4871 33.8724 49.9139C34.3626 50.3407 34.812 50.6899 34.8711 50.6899C34.9301 50.6899 35.6847 49.9325 36.548 49.0068C37.4112 48.0812 38.5157 46.9169 39.0023 46.4196C39.8803 45.5223 39.891 45.5159 40.412 45.5858C41.099 45.6779 41.4881 46.1116 41.4881 46.7851C41.4881 47.338 41.7739 46.9899 37.9566 51.086C36.6538 52.4839 35.5154 53.6276 35.4267 53.6276C35.3381 53.6276 35.1922 53.653 35.1025 53.6843C35.0129 53.7156 34.7743 53.6668 34.5723 53.5754ZM20.839 55.2115C18.7466 54.9391 16.3609 54.022 14.4875 52.7699C13.2904 51.9699 11.3735 50.0588 10.6209 48.9151C7.21339 43.7368 7.21278 37.5825 10.6193 32.3905C11.3584 31.2641 13.4068 29.2287 14.5566 28.4783C15.9385 27.5764 17.5862 26.8452 19.1829 26.4257C20.5235 26.0733 20.7598 26.0485 22.7604 26.0485C24.7632 26.0485 24.9963 26.0728 26.3453 26.4276C28.0633 26.8789 29.9114 27.7369 31.25 28.7045C31.9876 29.2378 32.2497 29.3683 32.3743 29.2649C32.4947 29.165 32.5468 28.5926 32.5754 27.0577L32.6139 24.9854L34.5204 23.0792C36.2274 21.3725 36.4786 21.1661 36.9205 21.1068C37.3465 21.0497 37.471 21.0915 37.8293 21.4115L38.2445 21.7823L38.2868 23.4332L38.3291 25.084L39.98 25.1264L41.6309 25.1687L42.0017 25.5839C42.3218 25.9421 42.3635 26.0667 42.3064 26.4926C42.2471 26.9345 42.0407 27.1857 40.334 28.8928L38.4278 30.7993L36.3554 30.8374C34.8206 30.866 34.2481 30.9181 34.1482 31.0385C34.0449 31.163 34.1647 31.4119 34.6601 32.1026C35.5832 33.3894 36.2248 34.6604 36.2248 35.2022C36.2248 35.8141 35.6845 36.3683 35.0879 36.3683C34.5101 36.3683 34.0847 35.9975 33.6342 35.1012C33.4262 34.6873 33.0324 34.0287 32.7592 33.6377L32.2625 32.9268L31.0934 34.0958L29.9244 35.2648L30.1436 35.6023C30.6294 36.3504 30.7371 36.7311 30.5893 37.1788C30.4159 37.7042 29.9647 38.011 29.3895 37.9947C29.0461 37.9852 28.857 37.8819 28.5326 37.528L28.1163 37.0737L25.8974 39.2747C23.4576 41.6947 23.2357 41.8765 22.7209 41.8765C22.2346 41.8765 21.5364 41.173 21.5364 40.683C21.5364 40.1683 21.9715 39.639 24.2777 37.3489C25.3955 36.2388 26.3101 35.2896 26.3101 35.2395C26.3101 35.1018 25.2337 34.5852 24.4824 34.3623C23.4773 34.0641 21.8666 34.1017 20.776 34.4491C15.9672 35.9806 14.6367 42.0863 18.3708 45.4873C18.7403 45.8239 19.3421 46.2491 19.7081 46.4321C20.3995 46.7778 21.6285 47.1398 22.111 47.1398C22.4943 47.1398 23.1143 47.7356 23.1938 48.1802C23.277 48.6454 22.8891 49.3001 22.4263 49.4761C22.0036 49.6369 21.1277 49.5217 19.9451 49.1487C17.1314 48.2624 14.8254 45.8122 14.0556 42.8908C13.7129 41.5901 13.7129 39.7147 14.0556 38.414C14.4686 36.8469 15.1922 35.6063 16.3921 34.4079C17.5672 33.2344 18.5704 32.5983 20.0063 32.1165C20.8787 31.8238 21.1724 31.7874 22.6992 31.783C24.2635 31.7777 24.5064 31.8089 25.4862 32.1299C26.0766 32.3235 26.9239 32.7014 27.369 32.9699L28.1783 33.458L29.3448 32.2916L30.5113 31.1251L29.4611 30.4405C28.2283 29.637 27.1361 29.151 25.6981 28.7662C24.1738 28.3583 21.3104 28.3546 19.8227 28.7583C17.5158 29.3845 15.7551 30.3932 14.1093 32.0315C12.5619 33.5718 11.6201 35.1706 10.9263 37.4351C10.6222 38.4277 10.5969 38.6748 10.5969 40.6523C10.5969 42.6299 10.6222 42.8769 10.9263 43.8696C11.6201 46.134 12.5619 47.7327 14.1093 49.2731C16.2944 51.4481 18.9715 52.6691 21.9648 52.8557C23.1369 52.9289 23.2057 52.9489 23.5866 53.3286C24.1322 53.8723 24.1265 54.3664 23.5682 54.9246C23.1774 55.3154 23.1047 55.3398 22.3748 55.3252C21.9473 55.3168 21.2562 55.2653 20.8391 55.211L20.839 55.2115ZM37.7319 28.0691C37.9128 27.8803 38.0608 27.6875 38.0608 27.6407C38.0608 27.5941 37.7261 27.5556 37.317 27.5556C36.658 27.5556 36.5323 27.5148 36.2153 27.1978C35.8984 26.8809 35.8575 26.7551 35.8575 26.0962C35.8575 25.687 35.8192 25.3523 35.7724 25.3523C35.7256 25.3523 35.5328 25.5003 35.344 25.6813C35.0136 25.9978 35.0007 26.055 35.0007 27.2113V28.4124H36.2019C37.3581 28.4124 37.4153 28.3997 37.7319 28.0691Z" fill="white"/>
<defs>
<linearGradient id="paint0_linear_1555_6475" x1="8.24515" y1="73.8306" x2="58.2916" y2="-41.6853" gradientUnits="userSpaceOnUse">
<stop stop-color="#006079"/>
<stop offset="1" stop-color="#00CCFF"/>
</linearGradient>
</defs>
</svg>
