<svg width="131" height="43" viewBox="0 0 131 43" fill="none" xmlns="http://www.w3.org/2000/svg">
<g clip-path="url(#clip0_1543_2721)">
<path d="M14.0316 0.00138462H13.9597C13.9597 0.00142663 13.9597 0.00138462 13.9597 0.00138462C13.9488 0.0565861 13.9351 0.111541 13.9193 0.166154C13.9193 0.166196 13.9193 0.166154 13.9193 0.166154C13.4298 1.85908 10.6939 3.26031 6.97526 3.70062V3.71826C6.20049 3.81001 5.38882 3.85975 4.55235 3.8598C2.95913 3.8556 1.39306 3.67534 0 3.3301V30.8498C0 35.4231 2.94765 39.2493 6.97526 40.3848V40.389L13.9946 43L21.0139 40.389V40.3848C25.0415 39.2493 27.989 35.4231 27.989 30.8498V3.33749C26.5944 3.68017 25.0285 3.85984 23.4366 3.8598C20.7802 3.8598 18.3652 3.36646 16.6423 2.56851L16.6681 2.55887C15.1616 1.86764 14.232 0.966663 14.0332 0.00630769C14.0332 0.00630769 14.0332 0.00210051 14.0332 0L14.0316 0.00138462Z" fill="#2B2C30"/>
<path d="M14.0553 1.33416L13.9878 1.33501C13.6556 2.99187 11.0372 4.3788 7.43636 4.80517V5.62928L5.39209 7.91042L9.94275 6.18399L16.5283 3.73424C15.1122 3.0844 14.2391 2.237 14.0553 1.33398V1.33416ZM23.4322 5.25436L18.8814 6.9808L7.43636 11.2382V13.4475L5.39209 15.7286L9.94275 14.0022L20.6048 10.0362V8.40909L23.4322 5.25436ZM23.4322 13.0722L18.8814 14.7986L7.43636 19.0558V21.265L5.39209 23.5462L9.94275 21.8198L20.6048 17.8537V16.2267L23.4322 13.0722ZM23.4322 20.89L18.8814 22.6164L7.43636 26.8738V29.0828L5.39209 31.364L9.94275 29.6376L20.6048 25.6715V24.0445L23.4322 20.89ZM23.4322 28.4872L18.8814 30.2136L7.43636 34.4711C7.44039 34.545 7.44574 34.6149 7.45061 34.6865L7.43636 34.6918V39.2181L14.0206 41.6672L20.6048 39.2181V33.269V31.642L23.4322 28.4872Z" fill="#F2F2F2"/>
<path fill-rule="evenodd" clip-rule="evenodd" d="M70.8889 15.414C69.805 16.5349 68.4756 17.0953 66.9009 17.0953C65.3262 17.0953 63.9917 16.5349 62.8976 15.414C61.8137 14.2824 61.2717 12.8947 61.2717 11.2508C61.2717 9.60685 61.8137 8.22443 62.8976 7.10356C63.9917 5.97201 65.3262 5.40625 66.9009 5.40625C68.4756 5.40625 69.805 5.97201 70.8889 7.10356C71.983 8.22443 72.5301 9.60685 72.5301 11.2508C72.5301 12.8947 71.983 14.2824 70.8889 15.414ZM64.8302 13.4445C65.3824 14.0103 66.0726 14.2931 66.9009 14.2931C67.7292 14.2931 68.4194 14.0103 68.9716 13.4445C69.5238 12.868 69.7999 12.1368 69.7999 11.2508C69.7999 10.3648 69.5238 9.63886 68.9716 9.07308C68.4194 8.49663 67.7292 8.2084 66.9009 8.2084C66.0726 8.2084 65.3824 8.49663 64.8302 9.07308C64.278 9.63886 64.002 10.3648 64.002 11.2508C64.002 12.1368 64.278 12.868 64.8302 13.4445ZM38.7855 9.77773C39.8797 9.77773 40.754 10.098 41.4084 10.7385C42.0629 11.379 42.3901 12.233 42.3901 13.3005C42.3901 14.3679 42.0629 15.2273 41.4084 15.8784C40.754 16.5296 39.8797 16.8552 38.7855 16.8552H34.3528V5.6465H41.4698V8.41665H37.0984V9.77773H38.7855ZM38.6782 14.2292C38.9747 14.2292 39.2099 14.1544 39.3837 14.005C39.5678 13.8449 39.6598 13.61 39.6598 13.3005C39.6598 12.9909 39.5678 12.756 39.3837 12.5959C39.2099 12.4358 38.9747 12.3557 38.6782 12.3557H37.0984V14.2292H38.6782ZM48.8782 5.6465H51.6852L48.5868 13.4125C48.096 14.6295 47.4518 15.5208 46.6542 16.0866C45.8668 16.6523 44.8902 16.9085 43.7245 16.8552V14.1811C44.696 14.2665 45.4117 13.9943 45.8719 13.3645L42.3594 5.6465H45.1817L47.1604 10.2261L48.8782 5.6465ZM59.5231 6.75138C58.7869 6.01479 57.8768 5.6465 56.7929 5.6465H52.6208V16.8552H55.3664V13.4926H56.7929C57.8768 13.4926 58.7869 13.1243 59.5231 12.3877C60.2594 11.6512 60.6275 10.7117 60.6275 9.56951C60.6275 8.4273 60.2594 7.48795 59.5231 6.75138ZM57.5598 10.4342C57.3552 10.6584 57.0996 10.7705 56.7929 10.7705H55.3664V8.38466H56.7929C57.0996 8.38466 57.3552 8.49674 57.5598 8.7209C57.7745 8.9344 57.8819 9.21725 57.8819 9.56951C57.8819 9.92179 57.7745 10.21 57.5598 10.4342ZM81.9324 13.5726C81.9324 12.4518 81.4825 11.6138 80.5827 11.0587C81.2473 10.5143 81.5797 9.77236 81.5797 8.83295C81.5797 7.85086 81.2575 7.07693 80.6134 6.51117C79.9691 5.9347 79.1102 5.6465 78.0365 5.6465H73.8031V16.8552H78.3279C79.4221 16.8552 80.2963 16.5563 80.9508 15.9585C81.6052 15.3607 81.9324 14.5654 81.9324 13.5726ZM76.5487 8.20848H77.9598C78.2155 8.20848 78.4251 8.28853 78.5887 8.44865C78.7523 8.60879 78.8341 8.82232 78.8341 9.08918C78.8341 9.36675 78.7472 9.58556 78.5733 9.74568C78.4097 9.89512 78.2052 9.96988 77.9598 9.96988H76.5487V8.20848ZM78.9261 14.037C78.7523 14.2078 78.5273 14.2932 78.2512 14.2932H76.5487V12.4037H78.2512C78.5273 12.4037 78.7523 12.4891 78.9261 12.6599C79.0999 12.8307 79.1869 13.0603 79.1869 13.3485C79.1869 13.626 79.0999 13.8555 78.9261 14.037ZM83.0368 16.8552V5.6465H85.7824V9.00908H87.2088C88.2928 9.00908 89.2028 9.38271 89.9391 10.13C90.6753 10.8665 91.0434 11.8006 91.0434 12.9322C91.0434 14.0744 90.6753 15.0137 89.9391 15.7503C89.2028 16.4869 88.2928 16.8552 87.2088 16.8552H83.0368ZM91.9331 16.8552V5.6465H94.6633V16.8552H91.9331ZM85.7824 14.1331H87.2088C87.5156 14.1331 87.7712 14.021 87.9757 13.7969C88.1905 13.5727 88.2979 13.2844 88.2979 12.9322C88.2979 12.5799 88.1905 12.297 87.9757 12.0835C87.7712 11.8593 87.5156 11.7472 87.2088 11.7472H85.7824V14.1331ZM103.268 14.1651H99.1114V12.5158H102.808V9.8738H99.1114V8.32058H103.191V5.6465H96.3659V16.8552H103.268V14.1651ZM41.7152 20.858V23.6281H39.0617V32.0666H36.3162V23.6281H33.6626V20.858H41.7152ZM49.6145 29.3766H45.4578V27.7273H49.1543V25.0852H45.4578V23.532H49.5378V20.858H42.7122V32.0666H49.6145V29.3766ZM59.6765 32.0666H56.6089L54.9216 29.0883L53.2344 32.0666H50.1514L53.3878 26.3502L50.2741 20.858H53.3571L54.9216 23.6281L56.4861 20.858H59.5692L56.4555 26.3662L59.6765 32.0666ZM69.1097 20.858H66.3794V25.0052H63.3577V20.858H60.6121V32.0666H63.3577V27.7593H66.3794V32.0666H69.1097V20.858ZM80.0151 30.6254C78.9312 31.7462 77.6019 32.3067 76.0271 32.3067C74.4524 32.3067 73.118 31.7462 72.0239 30.6254C70.94 29.4938 70.398 28.106 70.398 26.4621C70.398 24.8182 70.94 23.4358 72.0239 22.3149C73.118 21.1833 74.4524 20.6176 76.0271 20.6176C77.6019 20.6176 78.9312 21.1833 80.0151 22.3149C81.1093 23.4358 81.6564 24.8182 81.6564 26.4621C81.6564 28.106 81.1093 29.4938 80.0151 30.6254ZM73.9565 28.6558C74.5087 29.2216 75.1989 29.5045 76.0271 29.5045C76.8554 29.5045 77.5457 29.2216 78.0979 28.6558C78.65 28.0794 78.9261 27.3481 78.9261 26.4621C78.9261 25.5761 78.65 24.8502 78.0979 24.2844C77.5457 23.708 76.8554 23.4198 76.0271 23.4198C75.1989 23.4198 74.5087 23.708 73.9565 24.2844C73.4043 24.8502 73.1282 25.5761 73.1282 26.4621C73.1282 27.3481 73.4043 28.0794 73.9565 28.6558ZM81.6256 29.3925V32.0666C82.1982 32.1307 82.73 32.1147 83.2208 32.0186C83.7116 31.9225 84.1718 31.7251 84.6013 31.4262C85.041 31.1273 85.3835 30.6629 85.6289 30.0331C85.8846 29.3926 86.0124 28.6133 86.0124 27.6953V23.6281H88.1598V32.0666H90.9054V20.858H83.2668V27.5672C83.2668 28.3571 83.1339 28.8802 82.8681 29.1364C82.6124 29.3819 82.1982 29.4673 81.6256 29.3925ZM101.796 30.6254C100.712 31.7462 99.3825 32.3067 97.8078 32.3067C96.233 32.3067 94.8986 31.7462 93.8045 30.6254C92.7205 29.4938 92.1785 28.106 92.1785 26.4621C92.1785 24.8182 92.7205 23.4358 93.8045 22.3149C94.8986 21.1833 96.233 20.6176 97.8078 20.6176C99.3825 20.6176 100.712 21.1833 101.796 22.3149C102.89 23.4358 103.437 24.8182 103.437 26.4621C103.437 28.106 102.89 29.4938 101.796 30.6254ZM95.7371 28.6558C96.2893 29.2216 96.9795 29.5045 97.8078 29.5045C98.6361 29.5045 99.3263 29.2216 99.8785 28.6558C100.431 28.0794 100.707 27.3481 100.707 26.4621C100.707 25.5761 100.431 24.8502 99.8785 24.2844C99.3263 23.708 98.6361 23.4198 97.8078 23.4198C96.9795 23.4198 96.2893 23.708 95.7371 24.2844C95.1849 24.8502 94.9088 25.5761 94.9088 26.4621C94.9088 27.3481 95.1849 28.0794 95.7371 28.6558ZM111.06 23.6281V20.858H104.71V32.0666H107.456V23.6281H111.06ZM117.916 32.0666V26.4303L114.128 32.0666H111.996V20.858H114.741V26.4943L118.53 20.858H120.646V32.0666H117.916ZM128.27 26.4303V32.0666H131V20.858H128.883L125.095 26.4943V20.858H122.349V32.0666H124.481L128.27 26.4303Z" fill="#2B2C30"/>
<path d="M37.109 36.3921V37.0602H34.9273V41.7064H34.251V36.3921H37.109Z" fill="#1A1A1A"/>
<path d="M41.7549 36.3921C42.2252 36.3921 42.6154 36.5566 42.9257 36.8856C43.2409 37.2096 43.3984 37.6144 43.3984 38.1003C43.3984 38.5811 43.2409 38.986 42.9257 39.315C42.6154 39.644 42.2252 39.8084 41.7549 39.8084H40.584V41.7064H39.9077V36.3921H41.7549ZM41.7549 39.148C42.0361 39.148 42.2688 39.0493 42.453 38.8519C42.6373 38.6495 42.7294 38.3989 42.7294 38.1003C42.7294 37.7966 42.6373 37.5461 42.453 37.3487C42.2688 37.1513 42.0361 37.0527 41.7549 37.0527H40.584V39.148H41.7549Z" fill="#1A1A1A"/>
<path d="M49.0183 36.3921H49.7019L48.0656 40.4462C47.8813 40.9017 47.6462 41.2333 47.3602 41.4408C47.0741 41.6432 46.725 41.7318 46.3129 41.7065V41.0535C46.5941 41.0839 46.822 41.0409 46.9965 40.9245C47.1711 40.8081 47.3165 40.6082 47.4329 40.3248L47.4838 40.2032L45.7603 36.3921H46.4438L47.7965 39.4289L49.0183 36.3921Z" fill="#1A1A1A"/>
<path d="M56.144 36.3921V41.7064H55.4677V37.0602H53.126V41.7064H52.4497V36.3921H56.144Z" fill="#1A1A1A"/>
<path d="M63.0586 36.3921V41.7064H62.3823V37.0602H60.0406V41.7064H59.3643V36.3921H63.0586Z" fill="#1A1A1A"/>
<path d="M69.6313 41.7064L69.2168 40.5146H66.926L66.5115 41.7064H65.7915L67.6896 36.3921H68.4532L70.3512 41.7064H69.6313ZM67.1587 39.854H68.9841L68.0677 37.2349L67.1587 39.854Z" fill="#1A1A1A"/>
<path d="M80.7338 41.7064H79.9048L77.7086 39.1556V41.7064H77.0322V36.3921H77.7086V38.7912L79.8321 36.3921H80.6611L78.414 38.9734L80.7338 41.7064Z" fill="#1A1A1A"/>
<path d="M87.2628 41.0004C86.7538 41.5369 86.1308 41.8052 85.3938 41.8052C84.6569 41.8052 84.0339 41.5369 83.5248 41.0004C83.0158 40.464 82.7612 39.8136 82.7612 39.0494C82.7612 38.28 83.0158 37.6297 83.5248 37.0982C84.0339 36.5617 84.6569 36.2935 85.3938 36.2935C86.1308 36.2935 86.7538 36.5617 87.2628 37.0982C87.7767 37.6297 88.0337 38.28 88.0337 39.0494C88.0337 39.8136 87.7767 40.464 87.2628 41.0004ZM83.9903 40.5221C84.3684 40.9169 84.8363 41.1143 85.3938 41.1143C85.9514 41.1143 86.4168 40.9169 86.7901 40.5221C87.1683 40.1223 87.3574 39.6314 87.3574 39.0494C87.3574 38.4623 87.1683 37.9713 86.7901 37.5765C86.4168 37.1766 85.9514 36.9767 85.3938 36.9767C84.8363 36.9767 84.3684 37.1766 83.9903 37.5765C83.6169 37.9713 83.4303 38.4623 83.4303 39.0494C83.4303 39.6314 83.6169 40.1223 83.9903 40.5221Z" fill="#1A1A1A"/>
<path d="M95.7409 36.3921V41.7064H95.0719V37.5537L93.4065 40.4462H93.3192L91.6539 37.5613V41.7064H90.9775V36.3921H91.7411L93.3629 39.2011L94.9773 36.3921H95.7409Z" fill="#1A1A1A"/>
<path d="M102.656 36.3921V41.7064H101.979V37.0602H99.6377V41.7064H98.9614V36.3921H102.656Z" fill="#1A1A1A"/>
<path d="M109.228 41.7064L108.814 40.5146H106.523L106.109 41.7064H105.389L107.287 36.3921H108.05L109.948 41.7064H109.228ZM106.756 39.854H108.581L107.665 37.2349L106.756 39.854Z" fill="#1A1A1A"/>
<path d="M115.831 36.3921H116.5V41.7064H115.831V39.315H113.358V41.7064H112.682V36.3921H113.358V38.6469H115.831V36.3921Z" fill="#1A1A1A"/>
<path d="M122.883 41.7064V37.7435L120.265 41.7064H119.72V36.3921H120.396V40.3627L123.014 36.3921H123.56V41.7064H122.883Z" fill="#1A1A1A"/>
<path d="M129.943 41.7064V37.7435L127.325 41.7064H126.78V36.3921H127.456V40.3627L130.074 36.3921H130.62V41.7064H129.943Z" fill="#1A1A1A"/>
</g>
<defs>
<clipPath id="clip0_1543_2721">
<rect width="131" height="43" fill="white"/>
</clipPath>
</defs>
</svg>
