<svg width="34" height="21" viewBox="0 0 34 21" fill="none" xmlns="http://www.w3.org/2000/svg">
    <path fill-rule="evenodd" clip-rule="evenodd" d="M24.2383 0.209004C27.1861 0.922919 28.3137 2.72192 29.7274 5.19802H24.2383V0.209004ZM7.01105 5.40594C7.58821 5.40594 8.00714 5.6967 8.00714 6.37624C8.00714 6.94937 7.56279 7.41422 7.0139 7.41584H0.996094C0.445908 7.41584 0 7.8815 0 8.45545C0 9.02966 0.445908 9.49505 0.996094 9.49505H9.96094C10.5163 9.49505 10.9609 9.96016 10.9609 10.5347C10.9609 11.1089 10.515 11.5743 9.96483 11.5743H0.996094C0.445908 11.5743 0 12.0396 0 12.6139C0 13.1881 0.445908 13.6535 0.996094 13.6535H3.1875V16.7723C3.1875 17.3465 3.63341 17.8119 4.18359 17.8119H6.1859C6.54283 19.6469 8.09637 21 9.92773 21C11.7591 21 13.3126 19.6469 13.6696 17.8119H23.7836C24.1405 19.6469 25.694 21 27.5254 21C29.3568 21 30.9103 19.6469 31.2672 17.8119H33.0039C33.5541 17.8119 34 17.3465 34 16.7723V10.5347C34 7.48434 30.9173 7.28183 30.9144 7.27723H23.2422C22.692 7.27723 22.2461 6.81184 22.2461 6.23762V0H4.18359C3.63341 0 3.1875 0.465385 3.1875 1.0396V3.32673H1.99219C1.442 3.32673 0.996094 3.79212 0.996094 4.36634C0.996094 4.94056 1.442 5.40594 1.99219 5.40594H7.01105ZM28.8167 15.6672C29.5298 16.4114 29.5298 17.6186 28.8167 18.3628C27.6696 19.56 25.6992 18.7083 25.6992 17.0149C25.6992 15.3217 27.6696 14.47 28.8167 15.6672ZM11.219 15.6672C11.9321 16.4114 11.9321 17.6186 11.219 18.3628C10.072 19.56 8.10156 18.7083 8.10156 17.0149C8.10156 15.3217 10.072 14.47 11.219 15.6672Z" fill="#00CCFF"/>
</svg>
