<svg width="92" height="93" viewBox="0 0 92 93" fill="none" xmlns="http://www.w3.org/2000/svg">
    <g clip-path="url(#clip0_409_18922)">
        <path class="icon-background" d="M46 92.3015C71.4051 92.3015 92 71.7066 92 46.3015C92 20.8964 71.4051 0.301514 46 0.301514C20.5949 0.301514 0 20.8964 0 46.3015C0 71.7066 20.5949 92.3015 46 92.3015Z" fill="#BCC0D0"/>
        <path d="M20.3608 73.2996C20.0753 73.1754 19.6379 72.8313 19.3888 72.5352C18.5476 71.5355 18.5752 70.201 19.458 69.1958C20.0527 68.5185 20.8371 68.2228 21.8482 68.2947L22.5825 68.347L27.4841 63.1548C31.8476 58.5327 32.3735 57.9159 32.2741 57.5371C32.2125 57.3029 32.1281 56.6519 32.0857 56.09C31.9798 54.6822 32.478 53.7334 33.6945 53.0258L34.5726 52.5152L34.5792 47.6367L34.5858 42.7583L33.6256 42.4563C33.0975 42.29 32.2753 41.8612 31.7987 41.5031C31.3221 41.1448 30.8849 40.8716 30.8271 40.8956C30.7695 40.9187 29.2171 41.9733 27.3777 43.2373C24.1141 45.4799 24.0331 45.5499 24.0285 46.1313C24.0186 47.6934 22.882 48.8551 21.3695 48.8551C18.7778 48.8551 17.7985 45.5743 19.9627 44.1421C20.6282 43.7017 20.6072 43.703 22.9247 43.9537C23.3094 43.9954 29.8204 39.5574 29.8174 39.2556C29.8162 39.1516 29.7014 38.6905 29.562 38.2309C28.9114 36.0861 29.6707 33.5917 31.4513 32.0244C32.1124 31.4424 32.772 31.1105 34.373 30.5543C34.5329 30.499 34.5859 29.6994 34.5859 27.3396V24.1988L34.0082 23.8417C32.4259 22.8638 32.5272 20.4376 34.1911 19.4625C35.9401 18.4376 38.0191 19.6539 38.0191 21.7026C38.0191 22.6491 37.6044 23.4281 36.8699 23.8615L36.2809 24.209L36.3273 27.3584L36.3737 30.5078L37.4563 30.8997C39.5318 31.6509 40.7971 33.1033 41.4942 35.5342C41.5415 35.6991 42.8607 35.7472 47.3527 35.7472H53.1502L53.2993 35.3545C53.5463 34.7047 54.3338 33.8812 55.0647 33.5083C55.7345 33.1665 56.2011 33.1496 57.9933 33.4013C58.2473 33.4358 59.5953 32.109 63.2884 28.1861C68.2397 22.9267 68.2431 22.9227 68.075 22.375C67.5392 20.6292 69.2496 18.7908 71.0885 19.1358C71.4273 19.1993 71.9699 19.4845 72.2945 19.7694C73.3931 20.7339 73.4953 22.3007 72.5316 23.3985C71.9294 24.0844 71.1482 24.3808 70.1334 24.3087L69.3992 24.2564L64.4975 29.4485C60.134 34.0707 59.6081 34.6874 59.7075 35.0663C59.7691 35.3004 59.8536 35.9515 59.896 36.5133C60.0019 37.9211 59.5035 38.8699 58.2871 39.5775L57.409 40.0882L57.4024 44.9704L57.3958 49.8526L58.2927 50.1132C59.6684 50.5131 61.2596 51.7968 61.9845 53.0916C62.0918 53.284 62.5232 53.1986 64.31 52.6326C65.5163 52.2503 66.8162 51.8423 67.1985 51.7257C67.8115 51.5389 67.9278 51.4171 68.1836 50.697C69.1361 48.0153 73.2382 48.7307 73.2249 51.5763C73.2216 52.4011 72.5765 53.4745 71.8632 53.844C71.0301 54.2756 69.6837 54.1609 68.9515 53.5963L68.4009 53.1717L65.5795 54.052L62.7581 54.9324L62.6416 56.1071C62.4989 57.5424 62.3071 58.1968 61.7473 59.1518C60.9503 60.5119 59.8837 61.2585 57.6086 62.0488C57.4487 62.1041 57.3957 62.9038 57.3957 65.2635V68.4043L57.9734 68.7615C59.5557 69.7393 59.4544 72.1655 57.7906 73.1406C56.0416 74.1656 53.9626 72.9492 53.9626 70.9006C53.9626 69.954 54.3772 69.175 55.1117 68.7417L55.7007 68.3941L55.6543 65.2447L55.608 62.0953L54.5254 61.7035C52.4498 60.9522 51.1846 59.4999 50.4875 57.0689C50.4402 56.904 49.121 56.856 44.629 56.856H38.8314L38.6824 57.2486C38.6003 57.4645 38.3345 57.8774 38.0914 58.1662L37.6498 58.6911L39.0602 61.7279L40.4705 64.7647L41.23 64.8899C41.8232 64.9873 42.1292 65.1701 42.6279 65.724C43.1905 66.3489 43.2661 66.5366 43.2656 67.3049C43.2643 68.8684 42.2131 69.963 40.7127 69.963C38.7128 69.963 37.5127 67.8412 38.5094 66.0678L38.8596 65.4447L37.6436 62.8102C36.9748 61.3612 36.3493 60.0122 36.2535 59.8122C36.1207 59.5354 35.8711 59.4248 35.2042 59.348C34.7228 59.2924 34.1756 59.2264 33.9883 59.201C33.7353 59.1665 32.3761 60.5054 28.6931 64.4176C23.7418 69.677 23.7386 69.681 23.9066 70.2287C24.5234 72.2382 22.3151 74.151 20.3611 73.2999L20.3608 73.2996ZM58.033 58.1211C58.542 57.7877 59.0963 56.8848 59.0971 56.3879C59.0976 56.0488 59.0122 56.0049 58.3496 56.0049C57.7591 56.0049 57.4903 56.1088 57.0729 56.4988C56.6258 56.9165 56.5442 57.1167 56.5442 57.7968V58.601L57.0886 58.492C57.3879 58.4321 57.8129 58.2652 58.033 58.1212V58.1211ZM50.6619 54.26C51.2851 52.3077 52.847 50.7457 54.7992 50.1225L55.6929 49.8374L55.6925 44.9628L55.692 40.0881L54.8838 39.6625C54.2889 39.3493 53.941 39.0027 53.565 38.3489L53.0543 37.4609L47.3285 37.4543L41.6026 37.4476L41.3175 38.3413C40.6943 40.2936 39.1323 41.8556 37.1801 42.4788L36.2864 42.7639L36.2869 47.6385L36.2874 52.5132L37.0955 52.9388C37.6904 53.2518 38.0384 53.5987 38.4143 54.2525L38.9251 55.1405L44.6508 55.1471L50.3767 55.1537L50.6619 54.26ZM35.435 38.3856C35.435 37.661 35.3765 37.4493 35.1761 37.4493C35.0334 37.4493 34.8297 37.2579 34.7231 37.0237C34.5552 36.6551 34.4188 36.5981 33.7054 36.5981C32.9628 36.5981 32.8815 36.6362 32.8815 36.9838C32.8815 37.6721 33.4818 38.5308 34.2455 38.9346C35.3377 39.5121 35.435 39.4672 35.435 38.3856Z" fill="white"/>
    </g>
    <defs>
        <clipPath id="clip0_409_18922">
            <rect width="92" height="92" fill="white" transform="translate(0 0.301483)"/>
        </clipPath>
    </defs>
</svg>
