<svg width="56" height="82" viewBox="0 0 56 82" fill="none" xmlns="http://www.w3.org/2000/svg">
<path d="M27.6897 0.00264967H27.5477C27.5477 0.00270261 27.5477 0.00264967 27.5477 0.00264967C27.5262 0.106998 27.4992 0.210911 27.4681 0.314148C27.468 0.3142 27.4681 0.314148 27.4681 0.314148C26.5021 3.51431 21.1032 6.16304 13.7648 6.99539V7.0288C12.2359 7.20224 10.6341 7.29623 8.98346 7.29629C5.83944 7.28835 2.74902 6.94758 0 6.29497V58.3159C0 66.9608 5.81681 74.1935 13.7648 76.34V76.3479L27.6166 81.2835L41.4684 76.3479V76.34C49.4164 74.1935 55.2329 66.9608 55.2329 58.3159V6.30899C52.4808 6.95674 49.3906 7.29639 46.2493 7.29629C41.0071 7.29629 36.2415 6.36379 32.8415 4.85542L32.8924 4.83688C29.9196 3.53022 28.085 1.827 27.6928 0.0116327C27.6928 0.0116327 27.6928 0.00370592 27.6928 0L27.6897 0.00264967Z" fill="url(#paint0_linear_1555_6474)"/>
<path d="M26.4485 58.8613C25.7499 58.696 24.8323 58.239 24.2168 57.7498C23.5462 57.2168 22.7481 56.088 22.5491 55.3912C22.4743 55.1295 22.3643 54.851 22.3046 54.7722C22.2244 54.6663 21.6251 54.6294 20.0046 54.6307H17.8131L17.4959 55.2058C17.1703 55.7961 16.446 56.4038 15.7719 56.6523C15.2971 56.8274 14.2879 56.8386 13.7414 56.6751C13.0244 56.4603 12.2405 55.7826 11.8692 55.0565C11.4298 54.1973 11.401 53.0992 11.7965 52.2822C12.0914 51.673 12.8108 50.9296 13.3026 50.7259L13.6312 50.5898V48.3098V46.0298L13.3161 45.9055C12.0859 45.4201 11.5714 45.1144 10.93 44.488C8.24288 41.8635 8.95493 37.5475 12.3525 35.8654C13.0877 35.5014 13.3238 35.4429 14.2299 35.3996C15.4315 35.3421 16.316 35.5049 17.1033 35.9286L17.6539 36.2248L21.1474 32.7373C24.2369 29.6533 24.6336 29.2168 24.5766 28.9634C24.2556 27.536 24.4618 26.5156 25.2422 25.6689C25.9744 24.8746 26.4597 24.6697 27.609 24.6697C28.7584 24.6697 29.2437 24.8746 29.9758 25.6689C30.8714 26.6405 31.0514 28.0534 30.4345 29.2707C30.1148 29.9016 29.6726 30.3276 28.94 30.7102C28.3846 31.0002 26.931 31.0585 26.4784 30.809C26.2168 30.6648 26.0798 30.7863 22.6632 34.198L19.1194 37.7364L19.4155 38.2662C19.8192 38.9885 20.0852 40.3072 19.9941 41.1347C19.9137 41.8647 19.572 42.9472 19.2822 43.3894L19.0931 43.678L21.8646 46.3957L24.636 49.1133L25.3689 48.7704C26.8556 48.0747 28.399 48.078 29.8586 48.7799L30.5306 49.1031L33.2968 46.3503L36.063 43.5974L35.7398 42.9142C35.0136 41.3785 35.0384 39.7991 35.8132 38.2505C36.4684 36.9409 37.6158 35.9801 39.0987 35.4995L39.5321 35.3591L39.4997 34.1581L39.4672 32.9571L38.8929 32.7629C37.6122 32.3298 36.4024 31.2959 35.8112 30.1292C34.0046 26.5641 36.5746 22.3386 40.5603 22.321C41.9449 22.3146 43.3079 22.8925 44.337 23.9217C45.6516 25.2362 46.2159 27.1138 45.8169 28.8456C45.4146 30.5916 43.9473 32.2326 42.3316 32.7437C41.6056 32.9733 41.5868 33.0093 41.5868 34.1764C41.5868 35.3476 41.6024 35.3765 42.349 35.5897C43.0693 35.7954 44.1863 36.5984 44.7484 37.3147C46.4535 39.487 46.2811 42.486 44.3395 44.4276C42.7342 46.0329 40.3737 46.448 38.3434 45.4819L37.6341 45.1444L34.8687 47.8958L32.1032 50.6471L32.4406 51.3681C33.4049 53.4286 32.994 55.7732 31.387 57.3802C30.6943 58.0729 29.6734 58.6451 28.7516 58.8576C28.1461 58.9971 27.0331 58.9982 26.4484 58.8629L26.4485 58.8613ZM28.9839 56.5255C30.0542 55.9842 30.8171 54.7727 30.8171 53.614C30.8171 51.8725 29.3419 50.3898 27.609 50.3898C25.8762 50.3898 24.401 51.8725 24.401 53.614C24.401 54.9686 25.3652 56.2727 26.6858 56.7041C27.1566 56.8579 28.5391 56.7507 28.9839 56.5255ZM15.5343 54.2494C15.7733 53.9653 15.8183 53.818 15.7661 53.4896C15.5637 52.2174 13.6937 52.2983 13.6937 53.5792C13.6937 54.6394 14.8515 55.0609 15.5343 54.2494ZM22.4103 52.2516C22.4521 52.0784 22.6298 51.6489 22.8053 51.2973L23.1243 50.658L20.3911 47.9267L17.658 45.1953L16.9908 45.4932C16.6239 45.657 16.1741 45.8278 15.9914 45.873L15.6591 45.955L15.7378 48.2583C15.7811 49.5252 15.8615 50.5773 15.9164 50.5964C16.3681 50.7534 17.1247 51.4224 17.4401 51.9437L17.8131 52.5602L20.0737 52.5655L22.3344 52.5708L22.4103 52.2558V52.2516ZM15.8014 43.6612C16.4186 43.4412 17.2287 42.718 17.563 42.0885C17.755 41.7271 17.8096 41.4233 17.8111 40.7085C17.8129 39.8932 17.7738 39.7223 17.4577 39.1618C16.1601 36.8614 12.9955 36.9412 11.7164 39.3065C11.4208 39.8533 11.4334 41.4669 11.7382 42.0833C12.0704 42.7554 12.8573 43.4694 13.4896 43.6725C14.4726 43.9882 14.8899 43.9862 15.8014 43.6614L15.8014 43.6612ZM41.7295 43.6316C42.3868 43.3856 43.1333 42.706 43.4925 42.0264C43.6507 41.7272 43.7045 41.3783 43.7045 40.6516C43.7045 39.5338 43.5581 39.1634 42.8098 38.3877C41.5884 37.1215 39.5927 37.1314 38.3141 38.4099C37.0104 39.7136 37.0113 41.5904 38.3163 42.8953C39.2568 43.8359 40.4788 44.0995 41.7295 43.6315L41.7295 43.6316ZM41.6104 30.7348C42.269 30.5104 42.9894 29.8991 43.3795 29.2334C43.7884 28.5357 43.8813 27.3584 43.5881 26.5907C43.309 25.8598 42.5163 25.0382 41.7878 24.7249C40.9708 24.3733 39.7801 24.4399 39.0307 24.8791C37.8936 25.5454 37.2673 26.7111 37.3798 27.9516C37.5708 30.0578 39.6271 31.4106 41.6104 30.7348ZM28.1035 28.7173C28.4776 28.5181 28.6325 28.2634 28.6366 27.8406C28.6416 27.3142 28.4596 27.026 28.0008 26.8344C26.9125 26.3797 26.0304 27.7967 26.9304 28.554C27.3107 28.874 27.7061 28.9291 28.1035 28.7173ZM39.8683 56.6413C38.8602 56.4321 38.1757 55.8874 37.628 54.8585C37.312 54.2649 37.3297 52.7847 37.6602 52.1661C38.3666 50.8439 39.6876 50.1727 41.1335 50.4012C42.2244 50.5736 43.2127 51.4061 43.6118 52.4887C43.7869 52.9635 43.798 53.9727 43.6343 54.5192C43.4197 55.2354 42.7416 56.0216 42.0419 56.3657C41.2801 56.7401 40.6997 56.8138 39.8683 56.6413H39.8683ZM41.2528 54.3104C41.9994 53.6433 41.5537 52.515 40.5436 52.515C40.1711 52.515 40.016 52.5815 39.7988 52.8339C38.9239 53.851 40.2546 55.2024 41.2528 54.3104ZM26.2915 43.5895C24.5801 42.7897 23.9148 40.7649 24.8288 39.1377C26.3719 36.3906 30.502 37.2842 30.787 40.4267C31.0028 42.8067 28.4539 44.6 26.2915 43.5895ZM28.3824 41.3898C28.7778 40.9405 28.7362 40.2942 28.2877 39.9168C28.0891 39.7497 27.7928 39.6202 27.609 39.6202C27.4253 39.6202 27.129 39.7497 26.9304 39.9168C26.6541 40.1493 26.5779 40.3048 26.5779 40.6361C26.5779 41.6764 27.713 42.1505 28.3824 41.3898ZM13.7298 30.8477C13.0581 30.6409 12.1649 29.8469 11.8143 29.1448C11.2796 28.0742 11.5032 26.5909 12.3438 25.6336C12.9343 24.9611 13.6544 24.6685 14.7197 24.6685C16.0255 24.6685 16.8671 25.1257 17.4803 26.168C18.5043 27.9087 17.5761 30.2858 15.6491 30.858C14.9519 31.0651 14.4267 31.0623 13.7298 30.8474V30.8477ZM15.4046 28.5926C15.5787 28.4414 15.7285 28.1638 15.7671 27.9209C15.8222 27.5745 15.7789 27.4465 15.5016 27.1361C15.2343 26.837 15.0829 26.7652 14.7197 26.7652C14.3564 26.7652 14.205 26.837 13.9377 27.1361C13.6604 27.4465 13.6171 27.5745 13.6722 27.9209C13.7569 28.4535 14.2042 28.8504 14.7197 28.8504C14.958 28.8504 15.2224 28.7509 15.4046 28.5926Z" fill="white"/>
<defs>
<linearGradient id="paint0_linear_1555_6474" x1="8.24515" y1="73.8306" x2="58.2917" y2="-41.6853" gradientUnits="userSpaceOnUse">
<stop stop-color="#006079"/>
<stop offset="1" stop-color="#00CCFF"/>
</linearGradient>
</defs>
</svg>
