<svg width="56" height="82" viewBox="0 0 56 82" fill="none" xmlns="http://www.w3.org/2000/svg">
<path d="M27.6897 0.00264967H27.5477C27.5477 0.00270261 27.5477 0.00264967 27.5477 0.00264967C27.5262 0.106998 27.4992 0.210911 27.4681 0.314148C27.468 0.3142 27.4681 0.314148 27.4681 0.314148C26.5021 3.51431 21.1032 6.16304 13.7648 6.99539V7.0288C12.2359 7.20224 10.6342 7.29623 8.98348 7.29629C5.83946 7.28835 2.74902 6.94758 0 6.29497V58.3159C0 66.9608 5.8168 74.1935 13.7648 76.34V76.3479L27.6166 81.2835L41.4684 76.3479V76.34C49.4164 74.1935 55.2329 66.9608 55.2329 58.3159V6.30899C52.4808 6.95674 49.3906 7.29639 46.2493 7.29629C41.0071 7.29629 36.2415 6.36379 32.8416 4.85542L32.8924 4.83688C29.9196 3.53022 28.0851 1.827 27.6928 0.0116327C27.6928 0.0116327 27.6928 0.00370592 27.6928 0L27.6897 0.00264967Z" fill="url(#paint0_linear_409_18378)"/>
<path d="M19.2899 60.628C19.1152 60.5195 18.3854 59.5275 17.6682 58.4236C16.9511 57.3197 16.356 56.4134 16.3459 56.4095C16.3358 56.4042 15.2162 56.3277 13.8579 56.2365C12.4996 56.1452 11.2602 56.002 11.1037 55.9183C10.7281 55.7172 10.4649 55.0776 10.5852 54.6582C10.6778 54.3352 14.8034 46.8789 15.0184 46.6458C15.2601 46.3839 15.0967 46.2221 14.3904 46.0239C13.038 45.6444 12.9378 45.2939 13.5432 43.0595C14.1916 40.6663 14.1981 40.7073 12.9721 39.4702C11.208 37.69 11.092 37.5397 11.092 37.0359C11.092 36.6239 11.2331 36.4351 12.5428 35.0961C14.2557 33.3447 14.2075 33.5408 13.5303 31.0848C12.8601 28.6545 12.9316 28.5441 15.6337 27.8346C16.7934 27.5301 17.4273 27.2981 17.6204 27.1075C17.8175 26.913 18.0538 26.2721 18.3955 25.0059C18.7923 23.5352 18.9517 23.1286 19.2228 22.8954C19.6626 22.5171 19.8242 22.527 21.7256 23.0481C22.6116 23.291 23.5123 23.4896 23.7272 23.4896C24.0565 23.4896 24.3608 23.2517 25.6631 21.9758C26.9974 20.6686 27.2643 20.4619 27.6185 20.4619C27.9727 20.4619 28.2397 20.6686 29.574 21.9758C30.8765 23.2518 31.1806 23.4896 31.51 23.4896C31.7249 23.4896 32.6342 23.291 33.5305 23.0481C34.4268 22.8053 35.2768 22.6065 35.4194 22.6065C35.5619 22.6065 35.8296 22.7365 36.0143 22.8954C36.2854 23.1286 36.4448 23.5352 36.8416 25.0059C37.1832 26.2721 37.4197 26.913 37.6167 27.1075C37.8099 27.2981 38.4437 27.5301 39.6035 27.8346C42.3055 28.5441 42.377 28.6545 41.7068 31.0848C41.452 32.009 41.2435 32.9541 41.2435 33.185C41.2435 33.5495 41.4345 33.8018 42.6943 35.1014C44.6983 37.1688 44.7162 36.9868 42.2651 39.4774C41.0402 40.7221 41.0478 40.6745 41.6939 43.0595C42.3 45.2962 42.1998 45.6443 40.8403 46.0257C40.252 46.1908 40.1115 46.2773 40.1726 46.4371C40.2151 46.5484 41.2436 48.4146 42.4583 50.5841C43.7544 52.8991 44.6708 54.6733 44.6767 54.8787C44.6894 55.3255 44.4687 55.7375 44.1107 55.9352C43.9278 56.0363 43.0585 56.1051 41.622 56.1323C40.4077 56.1551 39.2908 56.2004 39.1399 56.2323C38.9477 56.2731 38.4753 56.911 37.5629 58.3622C36.8119 59.5565 36.1185 60.5182 35.9255 60.633C35.4579 60.911 35.004 60.8812 34.6359 60.5483C34.4633 60.3921 33.3226 58.4768 32.101 56.292C30.8793 54.1072 29.8252 52.2649 29.7584 52.1981C29.6805 52.1202 29.4618 52.2589 29.1492 52.5842C27.8623 53.9234 27.5455 53.9555 26.4065 52.8616C25.8992 52.3746 25.5502 52.1267 25.476 52.2009C25.4107 52.2662 24.3577 54.1072 23.1361 56.292C21.9145 58.4768 20.7738 60.3921 20.6012 60.5483C20.2366 60.878 19.7409 60.9082 19.2899 60.628ZM21.6746 54.0785C22.6727 52.307 23.4593 50.8276 23.4227 50.7909C23.3861 50.7544 22.5777 50.9309 21.6263 51.1834C19.1196 51.8485 19.0767 51.8212 18.3594 49.1074C17.9661 47.6199 17.6549 46.907 17.4778 47.0885C17.3633 47.2057 13.7413 53.6855 13.7413 53.773C13.7413 53.8238 14.4935 53.9035 15.4129 53.95C16.3322 53.9966 17.2361 54.093 17.4213 54.1645C17.6486 54.252 18.0797 54.7826 18.746 55.7946C19.2893 56.6198 19.7621 57.2959 19.7968 57.2971C19.8315 57.2971 20.6765 55.85 21.6746 54.0785ZM36.455 55.7141C36.9604 54.9092 37.4924 54.177 37.6372 54.0869C37.8018 53.9844 38.5557 53.8958 39.6512 53.85C40.6142 53.8098 41.4234 53.7556 41.4495 53.7295C41.491 53.6882 37.9058 47.2336 37.7607 47.0885C37.5813 46.9091 37.2717 47.6168 36.8777 49.1074C36.3749 51.0094 36.2498 51.2657 35.7156 51.487C35.3879 51.6227 35.1223 51.5844 33.6108 51.1834C32.6594 50.9309 31.8518 50.7535 31.8161 50.7893C31.7262 50.8792 35.3474 57.2941 35.4517 57.2296C35.498 57.201 35.9495 56.519 36.455 55.7141ZM28.5053 49.9056C29.51 48.8791 30.5337 48.3429 31.4888 48.3427C31.848 48.3427 32.6601 48.4813 33.2933 48.6507C34.1347 48.8759 34.4599 48.9183 34.5014 48.8083C34.5327 48.7257 34.698 48.1486 34.8689 47.5261C35.4008 45.5878 36.1766 44.8311 38.1604 44.3155C38.7806 44.1544 39.3289 43.9859 39.3788 43.9409C39.4287 43.8959 39.3258 43.3494 39.1503 42.7262C38.7683 41.3704 38.7909 40.3208 39.2201 39.4841C39.3725 39.187 39.9013 38.5339 40.3952 38.0328L41.2931 37.1218L40.4034 36.2036C38.8269 34.5765 38.5767 33.6372 39.1546 31.5158C39.3405 30.8335 39.4749 30.2577 39.4534 30.2364C39.4318 30.2146 38.9317 30.0745 38.3419 29.9243C36.1607 29.3688 35.4455 28.6993 34.8789 26.6822C34.6878 26.0018 34.4943 25.4051 34.449 25.3561C34.4037 25.3069 33.7992 25.412 33.1057 25.589C31.0036 26.1257 30.045 25.8529 28.5417 24.2899L27.6185 23.3301L26.6954 24.2899C25.1921 25.8529 24.2335 26.1257 22.1314 25.589C21.4379 25.412 20.8335 25.3071 20.7881 25.3561C20.7428 25.4048 20.5493 26.0018 20.3582 26.6822C19.7984 28.6749 19.1084 29.3327 16.9583 29.9232C16.4032 30.0757 15.9082 30.2386 15.8583 30.2853C15.8085 30.3319 15.9113 30.8799 16.0868 31.503C16.669 33.5694 16.3969 34.5903 14.8337 36.2036L13.944 37.1218L14.842 38.0328C15.3358 38.5339 15.8646 39.187 16.017 39.4841C16.4462 40.3208 16.4688 41.3704 16.0868 42.7262C15.9113 43.3494 15.8084 43.896 15.8583 43.9409C15.9082 43.9859 16.4565 44.1544 17.0767 44.3155C19.0605 44.8311 19.8363 45.5878 20.3682 47.5261C20.539 48.1486 20.7044 48.7257 20.7357 48.8083C20.7773 48.9183 21.1024 48.8759 21.9438 48.6507C22.5771 48.4813 23.3891 48.3427 23.7483 48.3427C24.7034 48.3428 25.7271 48.8791 26.7318 49.9056C27.1808 50.3643 27.5798 50.7396 27.6185 50.7396C27.6572 50.7396 28.0563 50.3643 28.5053 49.9056ZM26.1722 46.4443C24.1658 46.1301 22.5188 45.2714 20.9903 43.743C19.7424 42.4951 19.0466 41.3474 18.5448 39.7093C17.8023 37.2853 18.2053 34.3747 19.5916 32.1505C23.3129 26.18 31.9242 26.18 35.6455 32.1505C37.0318 34.3747 37.4349 37.2853 36.6923 39.7093C36.192 41.3424 35.4942 42.495 34.2469 43.7486C33.2817 44.7186 32.9222 44.9851 31.9079 45.4826C31.2487 45.8058 30.3727 46.1553 29.9611 46.2593C28.9948 46.5034 27.1311 46.5944 26.1722 46.4443ZM29.5005 43.9215C31.5934 43.3415 33.3142 41.8289 34.1586 39.827C34.5331 38.9393 34.6767 38.2028 34.6802 37.1524C34.6871 35.1465 34.0168 33.5162 32.6144 32.1276C31.147 30.6745 29.6448 30.0498 27.6185 30.0498C25.5923 30.0498 24.0901 30.6745 22.6227 32.1276C21.2322 33.5045 20.5538 35.1397 20.5538 37.1146C20.5538 40.2885 22.6369 43.0464 25.6925 43.918C26.8515 44.2486 28.3154 44.2499 29.5005 43.9233V43.9215ZM24.4389 40.2942C23.0353 38.8907 22.951 38.7778 22.9548 38.3073C22.959 37.7652 23.1141 37.4892 23.5417 37.2613C24.129 36.9486 24.4521 37.0765 25.4023 37.9977C25.9032 38.4834 26.3649 38.8808 26.4282 38.8808C26.4916 38.8808 27.4659 37.9596 28.5934 36.8336C30.5783 34.8516 30.66 34.7865 31.1629 34.7865C31.8286 34.7865 32.2864 35.2598 32.2864 35.9479C32.2864 36.3775 32.1124 36.582 29.6094 39.0949C26.2148 42.5029 26.566 42.4214 24.4389 40.2942Z" fill="white"/>
<defs>
<linearGradient id="paint0_linear_409_18378" x1="8.24515" y1="73.8306" x2="58.2917" y2="-41.6853" gradientUnits="userSpaceOnUse">
<stop stop-color="#006079"/>
<stop offset="1" stop-color="#00CCFF"/>
</linearGradient>
</defs>
</svg>
