<svg width="46" height="46" viewBox="0 0 46 46" fill="none" xmlns="http://www.w3.org/2000/svg">
    <path fill-rule="evenodd" clip-rule="evenodd" d="M34.4301 31.6054L34.4331 31.6024C34.8042 31.2296 34.8029 30.6266 34.43 30.2555L30.2075 26.0255L30.2045 26.0225C29.8317 25.6514 29.2286 25.6527 28.8575 26.0255L26.465 28.4555C25.768 29.1478 24.6757 29.2425 23.87 28.6805C22.4757 27.7055 21.1706 26.6087 19.9701 25.403C18.8933 24.33 17.9027 23.174 17.0075 21.9455C16.4181 21.1391 16.5074 20.0229 17.2175 19.3205L19.6925 16.8455L19.6955 16.8425C20.0667 16.4697 20.0653 15.8666 19.6925 15.4955L15.4775 11.2805L15.4746 11.2775C15.1018 10.9063 14.4987 10.9077 14.1276 11.2805L12.7926 12.6155C11.1725 14.2091 10.5918 16.5812 11.2926 18.7429C11.9038 20.5831 12.767 22.3296 13.8576 23.9329C14.8546 25.423 15.9977 26.8099 17.2701 28.0729C18.6529 29.4642 20.1847 30.6991 21.8376 31.7555C23.6167 32.924 25.5713 33.8001 27.6275 34.3504C29.6684 34.8377 31.8157 34.2234 33.2901 32.7304L34.4301 31.598V31.6054Z" fill="white"/>
    <circle cx="23" cy="23" r="21" stroke="white" stroke-width="4"/>
</svg>
