<svg width="19" height="28" viewBox="0 0 19 28" fill="none" xmlns="http://www.w3.org/2000/svg">
    <path d="M9.48504 0.000901611H9.43641C9.43641 0.000928967 9.43641 0.000901611 9.43641 0.000901611C9.42906 0.0368468 9.41981 0.0726311 9.40914 0.108193C9.40912 0.108221 9.40914 0.108193 9.40914 0.108193C9.07825 1.21057 7.22885 2.12299 4.71511 2.40971V2.42119C4.19138 2.48094 3.64271 2.51333 3.07728 2.51336C2.0003 2.51062 0.941673 2.39325 0 2.16844V20.0883C0 23.0662 1.99254 25.5577 4.71511 26.2971V26.2998L9.46001 28L14.2049 26.2998V26.2971C16.9275 25.5577 18.9199 23.0662 18.9199 20.0883V2.17325C17.9772 2.39639 16.9186 2.51339 15.8426 2.51336C14.0469 2.51336 12.4145 2.19211 11.2498 1.67252L11.2672 1.66624C10.2489 1.21614 9.62049 0.629455 9.48613 0.00410734C9.48613 0.00410734 9.48613 0.00136778 9.48613 0L9.48504 0.000901611Z" fill="#00CCFF"/>
</svg>
