<svg width="54" height="45" viewBox="0 0 54 45" fill="none" xmlns="http://www.w3.org/2000/svg">
    <path d="M16 40.5C16 42.9816 18.0187 45 20.5002 45C22.9813 45 25 42.9816 25 40.5C25 38.0187 22.9813 36 20.5002 36C18.0187 36 16 38.0187 16 40.5Z" fill="white"/>
    <path d="M37 40.5C37 42.9816 39.0187 45 41.5 45C43.9816 45 46 42.9816 46 40.5C46 38.0187 43.9816 36 41.5 36C39.0187 36 37 38.0187 37 40.5Z" fill="white"/>
    <path d="M52 5H12L17.5 28H45.5L52 5Z" stroke="white" stroke-width="3" stroke-linejoin="round"/>
    <path fill-rule="evenodd" clip-rule="evenodd" d="M45.2366 30.0001H17.1835C16.3283 30.0001 15.6308 30.6723 15.6308 31.5C15.6308 32.3278 16.3283 33 17.1835 33H45.2366C46.0951 33 46.7893 33.6711 46.7893 34.5C46.7893 35.3293 46.0951 36 45.2366 36H17.1835C14.6151 36 12.5254 33.9813 12.5254 31.5C12.5254 29.654 13.6838 28.0677 15.3336 27.3747L9.7264 2.99997H1.55273C0.694685 2.99997 0 2.32927 0 1.49998C0 0.671087 0.694685 0 1.55273 0H10.9726C11.7005 0 12.3313 0.487885 12.489 1.17499L13.5 5.56993V6L18 27.5H47.1463L46.7287 28.9118C46.5407 29.5563 45.9313 30.0001 45.2366 30.0001Z" fill="white"/>
</svg>
