<svg width="83" height="121" viewBox="0 0 83 121" fill="none" xmlns="http://www.w3.org/2000/svg">
<path d="M41.3913 0.050293L41.3866 0.0544468H41.1744C41.1423 0.209086 41.1019 0.362833 41.0554 0.515812C39.6116 5.25798 31.542 9.18331 20.5737 10.4167V10.4662C18.2884 10.7232 15.8947 10.8622 13.4275 10.8623C8.72828 10.8505 4.10885 10.346 0 9.37889V86.466C0 92.2768 1.79356 97.6534 4.85708 102.095C0.812523 94.7176 -0.156583 87.1556 2.10754 80.3309L2.74872 78.3975L3.86791 81.1519C4.98091 83.8916 6.69073 86.8295 7.96891 88.1983L8.63831 88.9151L7.86137 85.9909C6.5318 80.9857 6.38825 77.3942 7.37433 73.8119C8.89453 68.2894 12.2362 64.8365 23.9505 56.685C26.2757 55.0669 28.3249 53.694 28.5042 53.6335C28.697 53.5699 28.8224 53.6899 28.8113 53.9298C28.801 54.1533 28.899 55.0449 29.0296 55.9115C29.276 57.5458 29.489 58.0205 31.7677 62.0117L32.9372 64.0594L32.8014 62.2018C32.5314 58.5021 33.451 54.211 35.2075 50.9764C36.4569 48.6756 37.9627 46.8823 40.8235 44.2876C42.1603 43.0751 43.5407 41.753 43.8912 41.3495C44.2416 40.9459 44.5721 40.6448 44.6256 40.6802C44.6791 40.7155 45.2096 41.7526 45.8041 42.9846C46.3986 44.2166 47.2337 45.6709 47.6601 46.2165L48.4358 47.2085L47.7125 44.4752C46.4939 39.8697 46.5386 38.5469 47.9725 36.7437C49.4395 34.899 50.8052 32.6525 52.9306 28.5876C53.9253 26.6852 54.8614 25.0886 55.0108 25.0395C55.8472 24.7644 57.8323 27.8782 59.4099 31.9396C62.4571 39.7845 63.1565 49.5126 61.1314 55.8851C60.5345 57.7636 59.217 60.7546 58.9474 60.8433C58.8017 60.8911 58.163 60.8628 57.528 60.7804C55.0455 60.4573 52.71 61.1027 50.4968 62.7232C49.1083 63.7397 49.1494 63.9504 50.6211 63.3613C51.3008 63.0897 52.3376 62.8401 52.9249 62.8063C54.2403 62.731 56.7644 63.3956 57.0418 63.8895C57.4035 64.5333 53.5932 69.953 49.5865 74.4934C46.8723 77.5692 42.5165 81.7806 40.7626 83.0253C39.0663 84.2292 37.818 84.6955 30.2061 86.9671C26.6829 88.0185 24.9839 88.9224 22.1734 91.2409C19.2538 93.6495 19.2509 93.7348 22.121 92.7588C23.5067 92.287 25.2804 91.8352 26.0625 91.7538C27.5722 91.5965 30.9884 91.9853 31.2491 92.344C31.3347 92.4617 30.7817 93.2187 30.0204 94.0261C28.2474 95.9061 24.888 100.188 21.8756 104.409C19.3476 107.95 17.7905 109.714 16.5634 110.425L15.8004 110.867L15.1179 108.345C13.2403 101.41 13.9306 94.4745 17.1294 88.1367C19.1935 84.0469 21.0393 82.0144 27.4454 76.7759C34.1566 71.288 36.3082 69.3835 40.8644 64.8998C44.8814 60.9466 47.5411 57.8258 48.9772 55.38C50.4984 52.7893 50.1546 52.7648 47.609 55.2831C43.3645 59.4824 37.0998 64.5225 27.3121 71.6138C20.3524 76.6561 19.9789 76.9519 18.1382 78.8658C15.2565 81.862 13.3204 84.9219 11.91 88.7108C9.59894 94.9186 9.41598 101.277 11.3751 107.293L12.0032 109.222C14.5771 110.99 17.4646 112.342 20.5736 113.175V113.187L41.2774 120.5L61.9811 113.187V113.175C73.8605 109.994 82.5543 99.2765 82.5543 86.466V9.39956C78.441 10.3594 73.8219 10.8624 69.1268 10.8623C61.2916 10.8623 54.1686 9.48077 49.0868 7.24562L49.1628 7.21806C44.7195 5.28178 41.9777 2.75793 41.3914 0.0678242L41.3913 0.050293Z" fill="#F1F3F6"/>
</svg>
