<svg width="194" height="61" viewBox="0 0 194 61" fill="none" xmlns="http://www.w3.org/2000/svg">
<g clip-path="url(#clip0_1544_6472)">
<path d="M20.7796 0.00196422H20.6731C20.6731 0.00202382 20.6731 0.00196422 20.6731 0.00196422C20.657 0.0802733 20.6367 0.158232 20.6134 0.235707C20.6133 0.235766 20.6134 0.235707 20.6134 0.235707C19.8885 2.63731 15.8368 4.62509 10.3298 5.24971V5.27474C9.1824 5.4049 7.98038 5.47547 6.74164 5.47553C4.38222 5.46957 2.063 5.21386 0 4.7241V43.7637C0 50.2514 4.36522 55.6792 10.3298 57.2901V57.296L20.7248 61L31.1199 57.296V57.2901C37.0844 55.6792 41.4494 50.2514 41.4494 43.7637V4.73458C39.3841 5.2207 37.065 5.47559 34.7077 5.47553C30.7737 5.47553 27.1973 4.77567 24.6458 3.64371L24.684 3.63003C22.4531 2.64944 21.0764 1.37131 20.782 0.00894813C20.782 0.00894813 20.782 0.0029798 20.782 0L20.7796 0.00196422Z" fill="url(#paint0_linear_1544_6472)"/>
<path d="M20.8148 1.89262L20.7149 1.89382C20.223 4.24426 16.3453 6.21175 11.0127 6.8166V7.98569L7.98535 11.2217L14.7245 8.7726L24.4772 5.29738C22.38 4.37551 21.087 3.17339 20.8148 1.89236V1.89262ZM34.7013 7.45383L27.9619 9.90296L11.0127 15.9425V19.0766L7.98535 22.3126L14.7245 19.8635L30.5141 14.2373V11.9291L34.7013 7.45383ZM34.7013 18.5442L27.9619 20.9933L11.0127 27.0326V30.1667L7.98535 33.4027L14.7245 30.9536L30.5141 25.3274V23.0192L34.7013 18.5442ZM34.7013 29.6346L27.9619 32.0837L11.0127 38.1233V41.257L7.98535 44.493L14.7245 42.0439L30.5141 36.4177V34.1096L34.7013 29.6346ZM34.7013 40.412L27.9619 42.8612L11.0127 48.9008C11.0187 49.0057 11.0266 49.1049 11.0338 49.2064L11.0127 49.214V55.6349L20.7634 59.1092L30.5141 55.6349V47.1956V44.8874L34.7013 40.412Z" fill="#F2F2F2"/>
<path d="M57.438 13.8702C59.0584 13.8702 60.3532 14.3245 61.3223 15.2331C62.2915 16.1417 62.7761 17.3532 62.7761 18.8676C62.7761 20.3819 62.2915 21.6009 61.3223 22.5247C60.3532 23.4484 59.0584 23.9103 57.438 23.9103H50.8735V8.00961H61.4133V11.9394H54.9395V13.8702H57.438ZM57.2791 20.185C57.7183 20.185 58.0666 20.079 58.324 19.867C58.5966 19.6398 58.7328 19.3067 58.7328 18.8676C58.7328 18.4284 58.5966 18.0952 58.324 17.8681C58.0666 17.6409 57.7183 17.5274 57.2791 17.5274H54.9395V20.185H57.2791Z" fill="url(#paint1_linear_1544_6472)"/>
<path d="M72.3848 8.00961H76.5417L71.9532 19.0265C71.2264 20.7529 70.2723 22.0174 69.0911 22.82C67.9251 23.6226 66.4789 23.986 64.7526 23.9103V20.1168C66.1912 20.238 67.2512 19.8518 67.9326 18.9584L62.731 8.00961H66.9105L69.8408 14.5062L72.3848 8.00961Z" fill="url(#paint2_linear_1544_6472)"/>
<path d="M84.1057 8.00961C85.7109 8.00961 87.0586 8.53208 88.1489 9.57701C89.2393 10.6219 89.7844 11.9545 89.7844 13.5748C89.7844 15.1952 89.2393 16.5279 88.1489 17.5728C87.0586 18.6177 85.7109 19.1402 84.1057 19.1402H81.9932V23.9103H77.9272V8.00961H84.1057ZM84.1057 15.2785C84.56 15.2785 84.9385 15.1195 85.2414 14.8015C85.5594 14.4835 85.7184 14.0746 85.7184 13.5748C85.7184 13.0751 85.5594 12.6739 85.2414 12.371C84.9385 12.053 84.56 11.894 84.1057 11.894H81.9932V15.2785H84.1057Z" fill="url(#paint3_linear_1544_6472)"/>
<path d="M104.981 21.8659C103.375 23.4559 101.407 24.251 99.0747 24.251C96.7426 24.251 94.7664 23.4559 93.1461 21.8659C91.5409 20.2606 90.7383 18.2921 90.7383 15.96C90.7383 13.6279 91.5409 11.6667 93.1461 10.0767C94.7664 8.47144 96.7426 7.66885 99.0747 7.66885C101.407 7.66885 103.375 8.47144 104.981 10.0767C106.601 11.6667 107.411 13.6279 107.411 15.96C107.411 18.2921 106.601 20.2606 104.981 21.8659ZM96.0081 19.0719C96.8259 19.8745 97.8481 20.2758 99.0747 20.2758C100.301 20.2758 101.323 19.8745 102.141 19.0719C102.959 18.2542 103.368 17.2169 103.368 15.96C103.368 14.7031 102.959 13.6733 102.141 12.8706C101.323 12.0529 100.301 11.644 99.0747 11.644C97.8481 11.644 96.8259 12.0529 96.0081 12.8706C95.1904 13.6733 94.7815 14.7031 94.7815 15.96C94.7815 17.2169 95.1904 18.2542 96.0081 19.0719Z" fill="url(#paint4_linear_1544_6472)"/>
<path d="M119.336 15.6874C120.669 16.4748 121.335 17.6636 121.335 19.2536C121.335 20.662 120.851 21.7902 119.881 22.6382C118.912 23.4863 117.618 23.9103 115.997 23.9103H109.296V8.00961H115.566C117.156 8.00961 118.428 8.41846 119.382 9.23625C120.336 10.0388 120.813 11.1367 120.813 12.5299C120.813 13.8626 120.321 14.9151 119.336 15.6874ZM115.452 11.6441H113.362V14.1428H115.452C115.816 14.1428 116.118 14.0367 116.361 13.8247C116.618 13.5976 116.747 13.2872 116.747 12.8934C116.747 12.5149 116.626 12.2119 116.383 11.9848C116.141 11.7576 115.831 11.6441 115.452 11.6441ZM115.884 20.2759C116.292 20.2759 116.626 20.1548 116.883 19.9125C117.141 19.655 117.269 19.3294 117.269 18.9357C117.269 18.5268 117.141 18.2012 116.883 17.9589C116.626 17.7166 116.292 17.5955 115.884 17.5955H113.362V20.2759H115.884Z" fill="url(#paint5_linear_1544_6472)"/>
<path d="M122.971 23.9103V8.00961H127.037V12.7798H129.149C130.754 12.7798 132.102 13.3098 133.192 14.3699C134.283 15.4148 134.828 16.7399 134.828 18.3451C134.828 19.9655 134.283 21.298 133.192 22.3429C132.102 23.3879 130.754 23.9103 129.149 23.9103H122.971ZM136.145 23.9103V8.00961H140.189V23.9103H136.145ZM127.037 20.0487H129.149C129.603 20.0487 129.982 19.8897 130.285 19.5718C130.603 19.2537 130.762 18.8448 130.762 18.3451C130.762 17.8454 130.603 17.444 130.285 17.1411C129.982 16.8232 129.603 16.6642 129.149 16.6642H127.037V20.0487Z" fill="url(#paint6_linear_1544_6472)"/>
<path d="M146.775 20.0942H152.931V23.9103H142.709V8.00961H152.818V11.8031H146.775V14.0065H152.25V17.7545H146.775V20.0942Z" fill="url(#paint7_linear_1544_6472)"/>
<path d="M61.7769 29.5892V33.5189H57.8472V45.4898H53.7813V33.5189H49.8516V29.5892H61.7769Z" fill="url(#paint8_linear_1544_6472)"/>
<path d="M67.3194 41.6737H73.4751V45.4898H63.2534V29.5892H73.3615V33.3826H67.3194V35.586H72.7936V39.334H67.3194V41.6737Z" fill="url(#paint9_linear_1544_6472)"/>
<path d="M88.376 45.4898H83.833L81.3343 41.2648L78.8357 45.4898H74.27L79.0628 37.3805L74.4518 29.5892H79.0175L81.3343 33.5189L83.6512 29.5892H88.2169L83.6059 37.4032L88.376 45.4898Z" fill="url(#paint10_linear_1544_6472)"/>
<path d="M98.3025 29.5892H102.346V45.4898H98.3025V39.3794H93.8277V45.4898H89.7617V29.5892H93.8277V35.4724H98.3025V29.5892Z" fill="url(#paint11_linear_1544_6472)"/>
<path d="M118.496 43.4454C116.89 45.0354 114.922 45.8305 112.59 45.8305C110.258 45.8305 108.282 45.0354 106.661 43.4454C105.056 41.8402 104.253 39.8715 104.253 37.5393C104.253 35.2073 105.056 33.2462 106.661 31.6561C108.282 30.0509 110.258 29.2483 112.59 29.2483C114.922 29.2483 116.89 30.0509 118.496 31.6561C120.116 33.2462 120.926 35.2073 120.926 37.5393C120.926 39.8715 120.116 41.8402 118.496 43.4454ZM109.523 40.6513C110.341 41.454 111.363 41.8553 112.59 41.8553C113.816 41.8553 114.838 41.454 115.656 40.6513C116.474 39.8336 116.883 38.7963 116.883 37.5393C116.883 36.2825 116.474 35.2527 115.656 34.4501C114.838 33.6323 113.816 33.2235 112.59 33.2235C111.363 33.2235 110.341 33.6323 109.523 34.4501C108.706 35.2527 108.297 36.2825 108.297 37.5393C108.297 38.7963 108.706 39.8336 109.523 40.6513Z" fill="url(#paint12_linear_1544_6472)"/>
<path d="M120.881 45.4898V41.6963C121.729 41.8024 122.342 41.6813 122.721 41.3329C123.115 40.9695 123.311 40.2275 123.311 39.1069V29.5892H134.623V45.4898H130.557V33.5189H127.377V39.2886C127.377 40.5909 127.188 41.6964 126.809 42.605C126.446 43.4985 125.939 44.1573 125.288 44.5813C124.652 45.0053 123.97 45.2854 123.243 45.4217C122.516 45.558 121.729 45.5807 120.881 45.4898Z" fill="url(#paint13_linear_1544_6472)"/>
<path d="M150.751 43.4454C149.146 45.0354 147.177 45.8305 144.845 45.8305C142.513 45.8305 140.537 45.0354 138.917 43.4454C137.311 41.8402 136.509 39.8715 136.509 37.5393C136.509 35.2073 137.311 33.2462 138.917 31.6561C140.537 30.0509 142.513 29.2483 144.845 29.2483C147.177 29.2483 149.146 30.0509 150.751 31.6561C152.371 33.2462 153.182 35.2073 153.182 37.5393C153.182 39.8715 152.371 41.8402 150.751 43.4454ZM141.779 40.6513C142.596 41.454 143.619 41.8553 144.845 41.8553C146.072 41.8553 147.094 41.454 147.912 40.6513C148.729 39.8336 149.138 38.7963 149.138 37.5393C149.138 36.2825 148.729 35.2527 147.912 34.4501C147.094 33.6323 146.072 33.2235 144.845 33.2235C143.619 33.2235 142.596 33.6323 141.779 34.4501C140.961 35.2527 140.552 36.2825 140.552 37.5393C140.552 38.7963 140.961 39.8336 141.779 40.6513Z" fill="url(#paint14_linear_1544_6472)"/>
<path d="M164.471 29.5892V33.5189H159.133V45.4898H155.067V29.5892H164.471Z" fill="url(#paint15_linear_1544_6472)"/>
<path d="M174.624 45.4898V37.4941L169.013 45.4898H165.856V29.5892H169.922V37.5849L175.533 29.5892H178.667V45.4898H174.624Z" fill="url(#paint16_linear_1544_6472)"/>
<path d="M189.956 45.4898V37.4941L184.346 45.4898H181.188V29.5892H185.254V37.5849L190.865 29.5892H194V45.4898H189.956Z" fill="url(#paint17_linear_1544_6472)"/>
<path d="M54.9551 51.626V52.5738H51.7242V59.165H50.7227V51.626H54.9551Z" fill="#1A1A1A"/>
<path d="M61.8351 51.626C62.5316 51.626 63.1095 51.8595 63.569 52.3262C64.0357 52.7857 64.2691 53.3601 64.2691 54.0493C64.2691 54.7314 64.0357 55.3058 63.569 55.7725C63.1095 56.2392 62.5316 56.4725 61.8351 56.4725H60.1012V59.165H59.0996V51.626H61.8351ZM61.8351 55.5356C62.2515 55.5356 62.5962 55.3955 62.869 55.1155C63.1418 54.8283 63.2783 54.473 63.2783 54.0493C63.2783 53.6185 63.1418 53.2631 62.869 52.9831C62.5962 52.7031 62.2515 52.5631 61.8351 52.5631H60.1012V55.5356H61.8351Z" fill="#1A1A1A"/>
<path d="M72.5919 51.626H73.6043L71.1811 57.3772C70.9083 58.0234 70.56 58.4937 70.1364 58.7881C69.7128 59.0753 69.1959 59.2009 68.5856 59.165V58.2388C69.002 58.2819 69.3395 58.2208 69.5979 58.0557C69.8564 57.8905 70.0718 57.607 70.2441 57.2049L70.3195 57.0325L67.7671 51.626H68.7794L70.7826 55.934L72.5919 51.626Z" fill="#1A1A1A"/>
<path d="M83.1444 51.626V59.165H82.1428V52.5738H78.6749V59.165H77.6733V51.626H83.1444Z" fill="#1A1A1A"/>
<path d="M93.3841 51.626V59.165H92.3825V52.5738H88.9147V59.165H87.9131V51.626H93.3841Z" fill="#1A1A1A"/>
<path d="M103.118 59.165L102.504 57.4742H99.1117L98.4978 59.165H97.4316L100.243 51.626H101.373L104.184 59.165H103.118ZM99.4563 56.5371H102.16L100.803 52.8216L99.4563 56.5371Z" fill="#1A1A1A"/>
<path d="M119.559 59.165H118.332L115.079 55.5463V59.165H114.078V51.626H115.079V55.0294L118.224 51.626H119.452L116.124 55.2879L119.559 59.165Z" fill="#1A1A1A"/>
<path d="M129.229 58.1634C128.475 58.9245 127.552 59.305 126.461 59.305C125.37 59.305 124.447 58.9245 123.693 58.1634C122.939 57.4024 122.562 56.4798 122.562 55.3956C122.562 54.3042 122.939 53.3816 123.693 52.6277C124.447 51.8666 125.37 51.4861 126.461 51.4861C127.552 51.4861 128.475 51.8666 129.229 52.6277C129.99 53.3816 130.371 54.3042 130.371 55.3956C130.371 56.4798 129.99 57.4024 129.229 58.1634ZM124.383 57.4849C124.943 58.0449 125.635 58.325 126.461 58.325C127.287 58.325 127.976 58.0449 128.529 57.4849C129.089 56.9177 129.369 56.2213 129.369 55.3956C129.369 54.5627 129.089 53.8662 128.529 53.3062C127.976 52.7389 127.287 52.4554 126.461 52.4554C125.635 52.4554 124.943 52.7389 124.383 53.3062C123.83 53.8662 123.553 54.5627 123.553 55.3956C123.553 56.2213 123.83 56.9177 124.383 57.4849Z" fill="#1A1A1A"/>
<path d="M141.785 51.626V59.165H140.794V53.2739L138.328 57.3772H138.198L135.732 53.2847V59.165H134.73V51.626H135.861L138.263 55.6109L140.654 51.626H141.785Z" fill="#1A1A1A"/>
<path d="M152.024 51.626V59.165H151.023V52.5738H147.555V59.165H146.553V51.626H152.024Z" fill="#1A1A1A"/>
<path d="M161.758 59.165L161.144 57.4742H157.752L157.138 59.165H156.072L158.883 51.626H160.013L162.824 59.165H161.758ZM158.096 56.5371H160.8L159.443 52.8216L158.096 56.5371Z" fill="#1A1A1A"/>
<path d="M171.535 51.626H172.526V59.165H171.535V55.7725H167.874V59.165H166.872V51.626H167.874V54.8247H171.535V51.626Z" fill="#1A1A1A"/>
<path d="M181.98 59.165V53.5431L178.103 59.165H177.295V51.626H178.297V57.2587L182.174 51.626H182.981V59.165H181.98Z" fill="#1A1A1A"/>
<path d="M192.435 59.165V53.5431L188.558 59.165H187.75V51.626H188.752V57.2587L192.629 51.626H193.437V59.165H192.435Z" fill="#1A1A1A"/>
</g>
<defs>
<linearGradient id="paint0_linear_1544_6472" x1="6.18754" y1="55.4069" x2="43.7458" y2="-31.2827" gradientUnits="userSpaceOnUse">
<stop stop-color="#006079"/>
<stop offset="1" stop-color="#00CCFF"/>
</linearGradient>
<linearGradient id="paint1_linear_1544_6472" x1="71.2453" y1="72.1183" x2="91.6597" y2="-12.9024" gradientUnits="userSpaceOnUse">
<stop stop-color="#006079"/>
<stop offset="1" stop-color="#00CCFF"/>
</linearGradient>
<linearGradient id="paint2_linear_1544_6472" x1="71.2456" y1="72.1183" x2="91.66" y2="-12.9024" gradientUnits="userSpaceOnUse">
<stop stop-color="#006079"/>
<stop offset="1" stop-color="#00CCFF"/>
</linearGradient>
<linearGradient id="paint3_linear_1544_6472" x1="71.2457" y1="72.1183" x2="91.6601" y2="-12.9024" gradientUnits="userSpaceOnUse">
<stop stop-color="#006079"/>
<stop offset="1" stop-color="#00CCFF"/>
</linearGradient>
<linearGradient id="paint4_linear_1544_6472" x1="71.2455" y1="72.1183" x2="91.6599" y2="-12.9025" gradientUnits="userSpaceOnUse">
<stop stop-color="#006079"/>
<stop offset="1" stop-color="#00CCFF"/>
</linearGradient>
<linearGradient id="paint5_linear_1544_6472" x1="71.2456" y1="72.1183" x2="91.66" y2="-12.9024" gradientUnits="userSpaceOnUse">
<stop stop-color="#006079"/>
<stop offset="1" stop-color="#00CCFF"/>
</linearGradient>
<linearGradient id="paint6_linear_1544_6472" x1="71.2455" y1="72.1183" x2="91.6599" y2="-12.9024" gradientUnits="userSpaceOnUse">
<stop stop-color="#006079"/>
<stop offset="1" stop-color="#00CCFF"/>
</linearGradient>
<linearGradient id="paint7_linear_1544_6472" x1="71.2451" y1="72.1183" x2="91.6595" y2="-12.9024" gradientUnits="userSpaceOnUse">
<stop stop-color="#006079"/>
<stop offset="1" stop-color="#00CCFF"/>
</linearGradient>
<linearGradient id="paint8_linear_1544_6472" x1="71.2455" y1="72.1183" x2="91.6599" y2="-12.9023" gradientUnits="userSpaceOnUse">
<stop stop-color="#006079"/>
<stop offset="1" stop-color="#00CCFF"/>
</linearGradient>
<linearGradient id="paint9_linear_1544_6472" x1="71.2456" y1="72.1183" x2="91.66" y2="-12.9023" gradientUnits="userSpaceOnUse">
<stop stop-color="#006079"/>
<stop offset="1" stop-color="#00CCFF"/>
</linearGradient>
<linearGradient id="paint10_linear_1544_6472" x1="71.2456" y1="72.1183" x2="91.66" y2="-12.9023" gradientUnits="userSpaceOnUse">
<stop stop-color="#006079"/>
<stop offset="1" stop-color="#00CCFF"/>
</linearGradient>
<linearGradient id="paint11_linear_1544_6472" x1="71.2457" y1="72.1183" x2="91.6601" y2="-12.9023" gradientUnits="userSpaceOnUse">
<stop stop-color="#006079"/>
<stop offset="1" stop-color="#00CCFF"/>
</linearGradient>
<linearGradient id="paint12_linear_1544_6472" x1="71.2453" y1="72.1183" x2="91.6597" y2="-12.9025" gradientUnits="userSpaceOnUse">
<stop stop-color="#006079"/>
<stop offset="1" stop-color="#00CCFF"/>
</linearGradient>
<linearGradient id="paint13_linear_1544_6472" x1="71.2455" y1="72.1183" x2="91.6598" y2="-12.9023" gradientUnits="userSpaceOnUse">
<stop stop-color="#006079"/>
<stop offset="1" stop-color="#00CCFF"/>
</linearGradient>
<linearGradient id="paint14_linear_1544_6472" x1="71.2454" y1="72.1183" x2="91.6598" y2="-12.9026" gradientUnits="userSpaceOnUse">
<stop stop-color="#006079"/>
<stop offset="1" stop-color="#00CCFF"/>
</linearGradient>
<linearGradient id="paint15_linear_1544_6472" x1="71.2453" y1="72.1183" x2="91.6596" y2="-12.9024" gradientUnits="userSpaceOnUse">
<stop stop-color="#006079"/>
<stop offset="1" stop-color="#00CCFF"/>
</linearGradient>
<linearGradient id="paint16_linear_1544_6472" x1="71.2453" y1="72.1183" x2="91.6597" y2="-12.9023" gradientUnits="userSpaceOnUse">
<stop stop-color="#006079"/>
<stop offset="1" stop-color="#00CCFF"/>
</linearGradient>
<linearGradient id="paint17_linear_1544_6472" x1="71.2446" y1="72.1183" x2="91.6589" y2="-12.9024" gradientUnits="userSpaceOnUse">
<stop stop-color="#006079"/>
<stop offset="1" stop-color="#00CCFF"/>
</linearGradient>
<clipPath id="clip0_1544_6472">
<rect width="194" height="61" fill="white"/>
</clipPath>
</defs>
</svg>
