<svg width="92" height="93" viewBox="0 0 92 93" fill="none" xmlns="http://www.w3.org/2000/svg">
    <g clip-path="url(#clip0_409_18914)">
        <path class="icon-background" d="M46 92.3015C71.4051 92.3015 92 71.7066 92 46.3015C92 20.8964 71.4051 0.301514 46 0.301514C20.5949 0.301514 0 20.8964 0 46.3015C0 71.7066 20.5949 92.3015 46 92.3015Z" fill="#BCC0D0"/>
        <path d="M38.5906 75.3268C38.2055 74.968 38.0735 74.6227 37.9696 73.7014C37.9298 73.351 37.6851 73.1391 36.8648 72.7465L35.8109 72.242L35.166 72.7339C34.102 73.5454 33.4418 73.4253 32.2709 72.2068C31.1056 70.9941 31.0284 70.4961 31.8361 69.3979L32.3804 68.6577L31.9406 67.663C31.5226 66.7179 31.4615 66.6631 30.7156 66.563C29.4873 66.3985 29.113 65.8341 29.113 64.1474C29.113 62.9683 29.1687 62.7318 29.533 62.3676C29.7793 62.1213 30.2859 61.8968 30.7584 61.8247C31.5437 61.7048 31.5746 61.6743 31.9811 60.6218L32.3982 59.5418L31.9357 58.8613C31.2155 57.8014 31.3132 57.2805 32.4442 56.1494C33.5726 55.0211 34.2417 54.8912 35.2757 55.5998L35.8904 56.021L37.0862 55.5368C37.9051 55.2051 38.2984 54.9438 38.3343 54.7071C38.5761 53.1145 38.9419 52.8182 40.6663 52.8182C42.2857 52.8182 42.8766 53.207 43.0334 54.3753C43.1284 55.0833 43.1817 55.1362 44.2865 55.6175L45.4406 56.1203L45.9745 55.7402C46.802 55.1508 47.6113 55.2425 48.5311 56.0299C49.593 56.9388 49.9075 57.7027 49.5448 58.492C49.3958 58.8165 49.1803 59.2094 49.066 59.365C48.9051 59.5842 48.9491 59.8973 49.2637 60.7594C49.6522 61.8248 49.6997 61.8762 50.4047 61.9953C50.8093 62.0635 51.3315 62.3106 51.5651 62.5444C51.9339 62.9132 51.9899 63.1463 51.9899 64.3126C51.9899 65.4757 51.9319 65.7186 51.558 66.1221C51.2799 66.4221 50.8435 66.6308 50.3326 66.7081C49.5602 66.825 49.5273 66.8575 49.1121 67.9243L48.6855 69.0205L49.0587 69.5253C49.8834 70.6407 49.7031 71.463 48.3699 72.6675C47.4451 73.503 46.6071 73.5652 45.6909 72.8665L45.0767 72.3981L44.0396 72.8194C42.8598 73.2988 42.7369 73.4185 42.733 74.0926C42.7317 74.3596 42.5187 74.8294 42.2602 75.1366C41.81 75.6716 41.7308 75.6952 40.388 75.6952C39.2305 75.6952 38.917 75.631 38.5907 75.3271L38.5906 75.3268ZM41.8727 68.0585C43.4474 67.6211 44.6201 65.9596 44.6201 64.1658C44.6201 62.4177 43.8205 61.2003 42.1855 60.459C40.454 59.6741 38.3755 60.2637 37.2175 61.8688C36.6879 62.6027 36.6478 62.7646 36.6478 64.1681C36.6478 65.5506 36.6936 65.7441 37.1936 66.4651C38.192 67.9051 40.0933 68.5526 41.8727 68.0585ZM60.4763 63.8955C60.031 63.5452 59.8022 63.0103 59.5372 61.7003C59.4578 61.3069 59.26 61.1774 58.3034 60.8913C57.6769 60.7039 57.0827 60.5249 56.9828 60.4933C56.8831 60.4635 56.4043 60.7646 55.919 61.1662C54.6761 62.1948 54.1684 62.1602 52.651 60.943C51.9974 60.4187 51.3339 59.7273 51.1763 59.4065C50.9197 58.8838 50.9183 58.7555 51.163 58.1704C51.313 57.8114 51.6001 57.2869 51.8009 57.005L52.1659 56.4923L51.5787 55.3031L50.9917 54.114L50.1234 54.1007C49.6458 54.0941 48.9807 53.9732 48.6453 53.8335C47.8678 53.5086 47.6434 52.8559 47.5857 50.7525C47.5453 49.2836 47.5758 49.1303 47.9561 48.8202C48.1839 48.6348 48.8047 48.3861 49.3359 48.2672L50.3015 48.0513L50.7149 46.6213L51.128 45.1913L50.3789 44.3786C49.3218 43.2317 49.3649 42.8195 50.7181 41.1375C52.175 39.3264 52.6271 39.1861 54.1844 40.0615C55.0557 40.5512 55.0786 40.5541 55.5729 40.2327C55.8491 40.0532 56.4636 39.7363 56.9379 39.5289L57.8004 39.1519V38.1877C57.8004 36.4649 58.5918 36.003 61.6384 35.9475C62.7423 35.9277 63.1759 36.3058 63.4917 37.5648L63.742 38.5619L65.169 39.0461L66.5962 39.5302L67.4874 38.8206C68.7919 37.7818 69.015 37.8303 71.087 39.6028C72.4433 40.763 72.5634 41.2653 71.7841 42.5189L71.2072 43.447L71.8716 44.7734L72.5359 46.0997L73.3839 46.1024C74.4081 46.1056 75.0669 46.4104 75.3519 47.0128C75.4688 47.2595 75.6205 48.1971 75.6894 49.0962C75.8123 50.6972 75.805 50.7409 75.3355 51.2104C75.0716 51.4743 74.5522 51.7436 74.1808 51.8094C73.0983 52.0012 72.87 52.0999 72.87 52.3751C72.87 52.5178 72.7015 53.1211 72.4958 53.7159L72.1215 54.7972L72.8589 55.7301C73.8694 57.0086 73.8358 57.3967 72.5814 58.9302C71.0442 60.8098 70.4158 60.987 68.8833 59.9729L68.1565 59.4919L66.9273 60.1037C66.2512 60.4401 65.638 60.7972 65.5647 60.897C65.4915 60.9967 65.4302 61.4965 65.4285 62.0073C65.4265 62.6598 65.3172 63.0741 65.0604 63.4004C64.6581 63.9119 64.348 63.999 62.3333 64.1661C61.1155 64.2667 60.912 64.2373 60.4766 63.8948L60.4763 63.8955ZM63.2251 54.6972C64.3612 54.3303 65.4454 53.43 66.1076 52.3036C66.5396 51.5688 66.6052 51.2639 66.6025 50.004C66.5997 48.8638 66.514 48.3907 66.2026 47.8041C65.1793 45.8762 63.7826 45.0085 61.7131 45.015C58.9637 45.0216 56.9678 46.8142 56.7551 49.463C56.6256 51.0769 56.9485 52.0954 57.9405 53.1984C59.4577 54.8859 61.1525 55.3666 63.2251 54.6972ZM31.931 52.203C31.6925 51.9646 31.4572 51.4947 31.4082 51.159C31.3588 50.8232 31.2515 50.1564 31.1691 49.677L31.0194 48.8055L29.4811 48.1878L27.9429 47.5701L27.0301 48.2581C25.0225 49.7711 24.8147 49.7345 22.6014 47.4775C20.5038 45.3386 20.4787 45.1388 22.0583 43.1404C22.727 42.2945 22.7435 42.2409 22.4866 41.7442C22.3396 41.4601 22.051 40.7771 21.8449 40.2264L21.4703 39.225L20.4348 39.1111C18.7076 38.921 18.4199 38.8289 18.0399 38.3457C17.7167 37.9347 17.6745 37.6111 17.6745 35.5315C17.6745 33.1907 17.6766 33.1798 18.1915 32.6647C18.6277 32.2285 18.914 32.1275 20.0225 32.0182C20.9937 31.9225 21.3606 31.8126 21.4293 31.596C21.4807 31.4351 21.7682 30.6719 22.0683 29.9002L22.6142 28.4973L21.8656 27.557C20.4925 25.8325 20.5742 25.464 22.818 23.2636C24.8436 21.2772 25.1346 21.1997 26.5094 22.2804C27.7855 23.2835 27.7513 23.2754 28.6977 22.8011C29.1758 22.5613 29.8937 22.2628 30.2932 22.1372C30.6926 22.0117 31.0783 21.8557 31.1504 21.7907C31.2222 21.7258 31.3617 21.1024 31.4597 20.4055C31.6021 19.3949 31.7336 19.0559 32.1104 18.7301C32.55 18.3499 32.7531 18.3215 35.0324 18.3215C37.4349 18.3215 37.4905 18.3315 37.9179 18.7918C38.251 19.1511 38.3825 19.5537 38.4754 20.4964L38.5969 21.7307L39.8918 22.235C40.604 22.5125 41.3687 22.8566 41.5912 22.9998C41.9675 23.2422 42.0736 23.2019 43.1072 22.4251C44.7633 21.1801 44.9793 21.2267 47.0182 23.2691C47.964 24.2165 48.7484 25.165 48.8178 25.4449C48.943 25.9496 48.5258 26.8188 47.6002 27.9827L47.2086 28.4748L47.7664 29.7075C48.0734 30.3854 48.3748 31.1136 48.4369 31.3257C48.5303 31.645 48.743 31.7332 49.6682 31.8379C51.8482 32.0843 52.1712 32.5469 52.1712 35.4213C52.1712 37.4304 51.891 38.3838 51.2267 38.6352C50.9973 38.7223 50.2928 38.8528 49.6615 38.926C48.8394 39.021 48.4853 39.1432 48.4137 39.357C48.3587 39.5209 48.0523 40.2759 47.7327 41.0344L47.1516 42.4134L47.9311 43.3903C49.2956 45.1003 49.1971 45.5814 47.0553 47.6691C44.9559 49.7155 44.7171 49.7621 43.0147 48.4572L41.8252 47.5456L40.9612 47.9829C40.486 48.2233 39.7514 48.5236 39.3287 48.65C38.4993 48.8977 38.5415 48.8083 38.2751 50.8896C38.2009 51.4707 38.0138 51.9229 37.7307 52.2059C37.3192 52.6174 37.1871 52.637 34.8319 52.637C32.4727 52.637 32.3453 52.6171 31.9308 52.2034L31.931 52.203ZM37.5177 40.8804C38.8679 40.2836 40.1996 38.8567 40.7379 37.4302C41.0541 36.5925 41.1158 36.1183 41.0509 35.0251C40.9515 33.3431 40.4592 32.241 39.2559 31.0057C38.1216 29.8411 37.0222 29.3572 35.2754 29.2538C34.1174 29.1852 33.7304 29.2438 32.7961 29.6197C30.2803 30.6358 28.8844 32.6585 28.8779 35.2974C28.8746 37.0552 29.4159 38.3974 30.6148 39.5963C32.5348 41.5163 35.0293 41.9804 37.5176 40.8804H37.5177Z" fill="white"/>
    </g>
    <defs>
        <clipPath id="clip0_409_18914">
            <rect width="92" height="92" fill="white" transform="translate(0 0.301483)"/>
        </clipPath>
    </defs>
</svg>
