<svg width="92" height="93" viewBox="0 0 92 93" fill="none" xmlns="http://www.w3.org/2000/svg">
    <g clip-path="url(#clip0_409_18900)">
        <path class="icon-background" d="M46 92.3015C71.4051 92.3015 92 71.7066 92 46.3015C92 20.8964 71.4051 0.301514 46 0.301514C20.5949 0.301514 0 20.8964 0 46.3015C0 71.7066 20.5949 92.3015 46 92.3015Z" fill="#BCC0D0"/>
        <path d="M23.6174 36.3231C23.4983 36.3222 23.3817 36.3512 23.2709 36.4151L21.7931 37.2682C21.35 37.524 21.3475 38.1431 21.583 38.7515L22.7388 41.737C22.7472 41.7586 22.7577 41.7783 22.7675 41.7988C21.8347 42.539 20.9899 43.3838 20.2497 44.3165C20.2293 44.3071 20.2096 44.2962 20.188 44.2878L17.2019 43.1321C16.9357 43.0291 16.6677 42.9717 16.4289 42.9767C16.1218 42.983 15.8631 43.0929 15.7192 43.3421L14.8655 44.8205C14.6097 45.2636 14.9171 45.8005 15.4252 46.2096L17.9187 48.2175C17.9376 48.2328 17.9575 48.2452 17.9771 48.2586C17.5279 49.3651 17.2075 50.5196 17.0222 51.6994C17.0098 51.7005 16.9979 51.7002 16.9854 51.7026L13.8218 52.1947C13.1771 52.295 12.6427 52.6067 12.6427 53.1182V54.8251C12.6427 55.3366 13.1771 55.6478 13.8218 55.7481L16.9854 56.2402C16.998 56.2424 17.0102 56.2424 17.0227 56.2434C17.208 57.4233 17.5284 58.5781 17.9777 59.6847C17.958 59.698 17.9375 59.7096 17.9187 59.7248L15.4252 61.7326C14.9171 62.1418 14.6097 62.6787 14.8655 63.1217L15.7192 64.6001C15.975 65.0432 16.5935 65.0457 17.2019 64.8102L20.188 63.6544C20.2096 63.646 20.2293 63.6354 20.2497 63.6257C20.99 64.5587 21.835 65.4037 22.768 66.144C22.7586 66.1646 22.7466 66.1835 22.7382 66.2052L21.583 69.1913C21.3475 69.7997 21.35 70.4182 21.7931 70.674L23.2709 71.5272C23.714 71.7829 24.2514 71.4761 24.6606 70.968L26.6684 68.474C26.6836 68.4551 26.6961 68.4351 26.7095 68.4155C27.8157 68.8645 28.9699 69.1847 30.1492 69.3699C30.1503 69.3826 30.1503 69.395 30.1525 69.4078L30.6446 72.5714C30.7448 73.2161 31.0565 73.7505 31.5681 73.7505H33.275C33.7865 73.7505 34.0982 73.2161 34.1985 72.5714L34.6906 69.4078C34.6928 69.395 34.6922 69.3826 34.6933 69.3699C35.8729 69.1849 37.0272 68.8649 38.1336 68.4161C38.1468 68.4354 38.1596 68.4552 38.1747 68.474L40.1831 70.968C40.5922 71.4762 41.1292 71.7829 41.5722 71.5272L43.0501 70.674C43.4931 70.4182 43.4961 69.7997 43.2606 69.1913L42.1049 66.2052C42.0965 66.1835 42.0848 66.1646 42.0751 66.144C43.0083 65.4037 43.8534 64.5587 44.594 63.6257C44.6144 63.6351 44.6341 63.646 44.6557 63.6544L47.6412 64.8102C48.2496 65.0457 48.8681 65.0432 49.1239 64.6001L49.9776 63.1217C50.2334 62.6787 49.9261 62.1418 49.4179 61.7326L46.9244 59.7248C46.9056 59.7096 46.8867 59.6953 46.8671 59.682C47.3158 58.5762 47.6358 57.4224 47.8209 56.2434C47.8333 56.2423 47.8448 56.2423 47.8572 56.2402L51.0208 55.7481C51.6654 55.6478 52.2004 55.3366 52.2004 54.8251V53.1182C52.2004 52.9321 52.1293 52.7729 52.0082 52.6402C50.3355 53.1327 48.6083 53.4167 46.866 53.4858C46.8757 53.6474 46.8828 53.8091 46.8871 53.9708C46.887 57.8074 45.3629 61.4868 42.6501 64.1996C39.9373 66.9125 36.2579 68.4366 32.4213 68.4366C28.5848 68.4366 24.9054 66.9125 22.1926 64.1996C19.4797 61.4868 17.9556 57.8074 17.9555 53.9708C17.9577 51.1689 18.7736 48.428 20.304 46.0809C21.8344 43.7339 24.0134 41.8818 26.5764 40.7496C26.2183 39.9261 25.9129 39.0806 25.6621 38.2183L24.6606 36.9743C24.3538 36.5932 23.9746 36.3253 23.6175 36.3231L23.6174 36.3231ZM26.9699 41.6299C24.5763 42.6858 22.541 44.4142 21.1111 46.605C19.6812 48.7958 18.9184 51.3547 18.9153 53.9709C18.9153 55.7445 19.2646 57.5008 19.9433 59.1394C20.6221 60.778 21.6169 62.2669 22.8711 63.521C24.1252 64.7752 25.6141 65.77 27.2527 66.4488C28.8914 67.1275 30.6476 67.4768 32.4213 67.4768C34.1949 67.4768 35.9512 67.1275 37.5898 66.4488C39.2284 65.77 40.7173 64.7752 41.9714 63.521C43.2256 62.2669 44.2204 60.778 44.8992 59.1394C45.5779 57.5008 45.9272 55.7445 45.9272 53.9709C45.9273 53.8189 45.9248 53.6669 45.9197 53.515C45.3261 53.5109 44.733 53.4818 44.1419 53.4279C44.143 53.4403 44.1441 53.4529 44.1441 53.4658V54.477C44.1441 54.7802 43.8273 54.9643 43.4452 55.0238L41.57 55.3156C41.1875 55.3751 40.8712 55.0044 40.8712 54.6172V53.3256C40.8712 53.1765 40.9204 53.0311 41 52.9104C40.4911 52.7869 39.9869 52.6446 39.4886 52.4838C39.595 52.9724 39.6506 53.4708 39.6542 53.9709C39.6542 55.8891 38.8921 57.7288 37.5357 59.0853C36.1793 60.4417 34.3396 61.2037 32.4213 61.2037C30.503 61.2037 28.6633 60.4417 27.3069 59.0853C25.9505 57.7288 25.1885 55.8891 25.1884 53.9709C25.1886 52.3556 25.7294 50.7868 26.7247 49.5147C27.7201 48.2425 29.1126 47.3401 30.6804 46.9513C29.1777 45.3785 27.9262 43.5836 26.97 41.6299H26.9699ZM27.2032 43.511C27.4149 43.5121 27.6401 43.6717 27.822 43.8975L29.0119 45.3754C29.2547 45.677 29.0916 46.1362 28.7564 46.3298L27.6374 46.9756C27.3021 47.1692 26.8222 47.0812 26.6825 46.7201L25.9977 44.9505C25.8581 44.5899 25.8602 44.2229 26.1227 44.0713L26.9981 43.5657C27.0638 43.5278 27.1327 43.5106 27.2032 43.511ZM22.9434 47.4547C23.085 47.4516 23.2436 47.4857 23.4014 47.5467L25.171 48.2315C25.532 48.3713 25.6201 48.8512 25.4266 49.1865L24.7807 50.3054C24.5872 50.6407 24.1279 50.8037 23.8263 50.5609L22.3485 49.3711C22.0474 49.1286 21.8645 48.8102 22.0161 48.5477L22.5228 47.6718C22.6081 47.5241 22.7614 47.4586 22.9434 47.4547ZM31.501 47.7725C30.0141 47.9929 28.6559 48.74 27.6734 49.8776C26.691 51.0152 26.1498 52.4678 26.1482 53.9709C26.1481 54.7947 26.3104 55.6104 26.6256 56.3715C26.9409 57.1326 27.4029 57.8242 27.9854 58.4067C28.568 58.9892 29.2595 59.4513 30.0206 59.7665C30.7817 60.0817 31.5975 60.244 32.4213 60.2439C33.2451 60.244 34.0608 60.0817 34.8219 59.7665C35.583 59.4513 36.2746 58.9892 36.8571 58.4067C37.4396 57.8242 37.9017 57.1326 38.2169 56.3715C38.5321 55.6104 38.6944 54.7947 38.6943 53.9709C38.6904 53.3363 38.5902 52.7061 38.3971 52.1016C35.8401 51.1181 33.4981 49.6479 31.501 47.7725ZM23.3619 52.6191L23.3613 52.6197C23.703 52.6249 23.972 52.9681 23.972 53.3251V54.6167C23.972 55.0038 23.6551 55.3745 23.2725 55.315L21.3979 55.0243C21.0158 54.9649 20.6995 54.7797 20.6995 54.4765V53.4653C20.6995 53.1621 21.0158 52.9769 21.3979 52.9174L23.2725 52.6267C23.3024 52.6215 23.3328 52.6191 23.3619 52.6191L23.3619 52.6191ZM24.1419 57.2649C24.3887 57.2566 24.6477 57.4058 24.7807 57.6363L25.4266 58.7553C25.6201 59.0905 25.5321 59.5694 25.171 59.7091L23.4014 60.395C23.0408 60.5345 22.6744 60.5325 22.5228 60.2699L22.0161 59.394C21.8645 59.1315 22.0473 58.8132 22.3485 58.5707L23.8263 57.3808C23.9206 57.3049 24.0298 57.2688 24.1419 57.2649ZM40.667 57.2649C40.7908 57.2618 40.9131 57.2973 41.0167 57.3808L42.4946 58.5707C42.7957 58.8132 42.9786 59.1315 42.827 59.394L42.3208 60.2699C42.1692 60.5325 41.8028 60.5346 41.4422 60.395L39.6726 59.7091C39.3115 59.5693 39.2224 59.0905 39.416 58.7553L40.0623 57.6363C40.1894 57.4163 40.4307 57.2701 40.667 57.2649ZM27.2601 60.8659C27.3898 60.8662 27.5221 60.8995 27.6374 60.9661L28.7564 61.6119C29.0916 61.8055 29.2547 62.2642 29.0119 62.5658L27.822 64.0442C27.5795 64.3454 27.2607 64.5276 26.9981 64.376L26.1227 63.8699C25.8602 63.7183 25.8581 63.3519 25.9977 62.9913L26.6825 61.2216C26.7741 60.9847 27.0125 60.8654 27.2601 60.8659ZM37.5835 60.8659C37.8311 60.8654 38.0684 60.9847 38.16 61.2216L38.8459 62.9913C38.9856 63.3519 38.9834 63.7183 38.7209 63.8699L37.845 64.376C37.5824 64.5276 37.2641 64.3454 37.0216 64.0442L35.8312 62.5658C35.5884 62.2642 35.752 61.8055 36.0872 61.6119L37.2057 60.9661C37.3209 60.8997 37.4538 60.8663 37.5835 60.8659ZM31.776 62.4207H33.0676C33.4548 62.4207 33.8254 62.7365 33.766 63.119L33.4753 64.9942C33.4159 65.3763 33.2306 65.6931 32.9274 65.6931H31.9162C31.613 65.6931 31.4278 65.3763 31.3683 64.9942L31.0766 63.119C31.0171 62.7365 31.3888 62.4207 31.776 62.4207Z" fill="white"/>
        <path d="M58.7246 34.1918C58.213 34.1918 57.9013 34.7262 57.8011 35.3708L57.309 38.5345C57.3068 38.5472 57.3068 38.5597 57.3057 38.5724C56.1264 38.7574 54.9722 39.0774 53.866 39.5262C53.8527 39.5067 53.8401 39.4871 53.8249 39.4683L51.817 36.9743C51.5102 36.5932 51.131 36.3254 50.7739 36.3231C50.6548 36.3222 50.5382 36.3512 50.4274 36.4151L48.9496 37.2683C48.5065 37.524 48.504 38.1431 48.7395 38.7515L49.8953 41.7371C49.9036 41.7586 49.9142 41.7783 49.924 41.7988C49.8877 41.8275 49.8522 41.8574 49.8162 41.8865C50.0218 42.1823 50.2199 42.4834 50.4101 42.7894C52.9947 40.6679 56.2345 39.5074 59.5783 39.5051C63.4148 39.5052 67.0942 41.0293 69.8071 43.7421C72.5199 46.4549 74.044 50.1343 74.0441 53.9709C74.044 57.8074 72.5199 61.4868 69.8071 64.1997C67.0942 66.9125 63.4148 68.4366 59.5783 68.4367C56.23 68.4345 52.9861 67.2709 50.3998 65.1442C50.2118 65.452 50.0159 65.7548 49.8125 66.0526C49.8499 66.0829 49.8867 66.1141 49.9245 66.1441C49.9151 66.1646 49.9031 66.1836 49.8947 66.2052L48.7395 69.1913C48.504 69.7997 48.5065 70.4183 48.9496 70.674L50.4274 71.5272C50.8704 71.783 51.4079 71.4762 51.817 70.968L53.8249 68.474C53.8401 68.4552 53.8526 68.4351 53.866 68.4156C54.9722 68.8645 56.1264 69.1847 57.3057 69.3699C57.3068 69.3826 57.3068 69.3951 57.309 69.4078L57.8011 72.5714C57.9013 73.2161 58.213 73.7505 58.7246 73.7505H60.4314C60.943 73.7505 61.2547 73.2161 61.355 72.5714L61.8471 69.4078C61.8493 69.3951 61.8493 69.3826 61.8503 69.3699C63.0298 69.185 64.1842 68.8649 65.2905 68.4161C65.3038 68.4355 65.3161 68.4553 65.3311 68.474L67.3395 70.968C67.7487 71.4762 68.2856 71.783 68.7286 71.5272L70.2065 70.674C70.6495 70.4183 70.6526 69.7997 70.4171 69.1913L69.2613 66.2052C69.2529 66.1836 69.2414 66.1646 69.2315 66.1441C70.1647 65.4037 71.0099 64.5588 71.7504 63.6257C71.7708 63.6352 71.7905 63.6461 71.8121 63.6544L74.7976 64.8102C75.406 65.0457 76.0246 65.0432 76.2804 64.6002L77.1341 63.1218C77.3898 62.6787 77.0825 62.1418 76.5743 61.7327L74.0809 59.7248C74.062 59.7096 74.0431 59.6954 74.0235 59.6821C74.4722 58.5762 74.7922 57.4224 74.9773 56.2434C74.9897 56.2423 75.0018 56.2423 75.0141 56.2402L78.1778 55.7481C78.8224 55.6479 79.3573 55.3367 79.3573 54.8251V53.1183C79.3573 52.6067 78.8224 52.295 78.1778 52.1947L75.0141 51.7027C75.0019 51.7004 74.99 51.7015 74.9779 51.6994C74.7924 50.5195 74.4718 49.3647 74.0224 48.2581C74.042 48.2447 74.062 48.2328 74.0809 48.2175L76.5743 46.2096C77.0825 45.8005 77.3898 45.2636 77.1341 44.8206L76.2804 43.3421C76.1285 43.0791 75.8488 42.9716 75.5192 42.9767C75.2937 42.9799 75.0448 43.0364 74.7976 43.1321L71.8121 44.2879C71.7905 44.2962 71.7708 44.3068 71.7504 44.3166C71.0102 43.3838 70.1654 42.539 69.2326 41.7988C69.242 41.7783 69.2529 41.7586 69.2613 41.7371L70.4171 38.7515C70.6526 38.1431 70.6495 37.524 70.2065 37.2683L68.7286 36.4151C68.6179 36.3512 68.5012 36.3222 68.3821 36.3231C68.025 36.3253 67.6464 36.5932 67.3395 36.9743L65.3311 39.4683C65.3161 39.4871 65.3038 39.5067 65.2905 39.5262C64.1842 39.0774 63.0298 38.7574 61.8503 38.5724C61.8492 38.5597 61.8492 38.5473 61.8471 38.5345L61.355 35.3709C61.2547 34.7262 60.943 34.1918 60.4314 34.1918L58.7246 34.1918ZM59.5783 40.4649C56.4061 40.47 53.3368 41.5915 50.9087 43.6328C52.0849 45.7369 52.8934 48.0263 53.2992 50.4023C53.9293 49.2917 54.8421 48.3676 55.9449 47.7239C57.0478 47.0803 58.3014 46.7402 59.5783 46.738C61.4966 46.738 63.3363 47.5 64.6927 48.8565C66.0491 50.2129 66.8112 52.0526 66.8112 53.9709C66.8112 55.8892 66.0491 57.7289 64.6927 59.0853C63.3363 60.4417 61.4966 61.2037 59.5783 61.2038C58.2988 61.2017 57.0429 60.8603 55.9384 60.2143C54.834 59.5684 53.9207 58.6411 53.2917 57.527C52.8869 59.9054 52.0788 62.1972 50.9022 64.3035C53.3313 66.3483 56.4031 67.4718 59.5783 67.4769C61.3519 67.4769 63.1082 67.1275 64.7468 66.4488C66.3854 65.7701 67.8743 64.7752 69.1285 63.5211C70.3826 62.2669 71.3775 60.778 72.0562 59.1394C72.7349 57.5008 73.0843 55.7445 73.0843 53.9709C73.0843 52.1972 72.7349 50.441 72.0562 48.8023C71.3775 47.1637 70.3826 45.6748 69.1285 44.4207C67.8743 43.1665 66.3854 42.1717 64.7468 41.493C63.1082 40.8142 61.3519 40.4649 59.5783 40.4649ZM59.0732 42.2486H60.0844C60.3876 42.2486 60.5728 42.5649 60.6323 42.947L60.923 44.8216C60.9825 45.2042 60.6118 45.521 60.2246 45.521H58.933C58.5459 45.521 58.1741 45.2042 58.2336 44.8216L58.5254 42.947C58.5848 42.5649 58.77 42.2486 59.0732 42.2486ZM54.3603 43.511C54.5719 43.5121 54.7972 43.6717 54.979 43.8976L56.1689 45.3754C56.4117 45.677 56.2487 46.1362 55.9134 46.3298L54.7944 46.9756C54.4591 47.1692 53.9793 47.0812 53.8395 46.7201L53.1547 44.9505C53.0151 44.5899 53.0172 44.2229 53.2798 44.0713L54.1551 43.5657C54.2208 43.5278 54.2898 43.5106 54.3603 43.511ZM64.7968 43.511V43.5116C64.8674 43.511 64.9363 43.5278 65.002 43.5657L65.8779 44.0719C66.1404 44.2235 66.1425 44.5899 66.0029 44.9505L65.3181 46.7201C65.1784 47.0811 64.698 47.1692 64.3627 46.9757L63.2443 46.3298C62.909 46.1363 62.7454 45.6765 62.9882 45.3749L64.1786 43.897C64.3605 43.6712 64.5852 43.5124 64.7968 43.5111V43.511ZM69.0264 47.4547C69.2217 47.4516 69.3879 47.5159 69.4778 47.6718L69.984 48.5477C70.1356 48.8103 69.9528 49.1286 69.6516 49.3711L68.1737 50.561C67.8722 50.8037 67.4129 50.6407 67.2193 50.3054L66.573 49.1865C66.3794 48.8512 66.4685 48.3713 66.8296 48.2316L68.5992 47.5468C68.7457 47.4902 68.8927 47.4573 69.0264 47.4547ZM59.5783 47.6983C58.2073 47.6991 56.8744 48.1489 55.7834 48.979C54.6923 49.8091 53.9032 50.9738 53.5369 52.2949C53.5812 52.8524 53.6034 53.4116 53.6035 53.9709C53.6026 54.5284 53.5796 55.0857 53.5347 55.6415C53.9001 56.964 54.689 58.1303 55.7806 58.9616C56.8722 59.7929 58.2062 60.2434 59.5783 60.244C60.4021 60.244 61.2178 60.0818 61.9789 59.7665C62.74 59.4513 63.4316 58.9892 64.0141 58.4067C64.5966 57.8242 65.0587 57.1326 65.3739 56.3715C65.6892 55.6104 65.8514 54.7947 65.8514 53.9709C65.8513 52.3072 65.1903 50.7117 64.0139 49.5354C62.8375 48.3591 61.2419 47.6983 59.5783 47.6983ZM68.6388 52.6197C68.6677 52.6197 68.6971 52.6202 68.727 52.6262L70.6022 52.918C70.9843 52.9774 71.3011 53.1626 71.3011 53.4658V54.477C71.3011 54.7802 70.9843 54.9643 70.6022 55.0238L68.727 55.3156C68.3444 55.3751 68.0281 55.0044 68.0281 54.6172V53.3256C68.0281 52.9687 68.297 52.6254 68.6388 52.6202V52.6197ZM67.824 57.265C67.9478 57.2618 68.0701 57.2973 68.1737 57.3808L69.6516 58.5707C69.9527 58.8132 70.1356 59.1315 69.984 59.3941L69.4778 60.27C69.3262 60.5325 68.9598 60.5346 68.5992 60.395L66.8296 59.7091C66.4685 59.5694 66.3794 59.0906 66.573 58.7553L67.2193 57.6363C67.3464 57.4163 67.5877 57.2701 67.824 57.265ZM54.4171 60.866C54.5468 60.8662 54.6791 60.8995 54.7944 60.9661L55.9134 61.6119C56.2487 61.8055 56.4117 62.2642 56.1689 62.5658L54.979 64.0442C54.7365 64.3454 54.4177 64.5276 54.1551 64.376L53.2798 63.8699C53.0172 63.7183 53.0151 63.3519 53.1547 62.9913L53.8395 61.2216C53.9313 60.9847 54.1695 60.8654 54.4171 60.866ZM64.7405 60.866C64.9881 60.8654 65.2254 60.9847 65.3171 61.2216L66.0029 62.9913C66.1426 63.3519 66.1405 63.7183 65.8779 63.8699L65.002 64.376C64.7394 64.5276 64.4211 64.3455 64.1786 64.0442L62.9882 62.5658C62.7454 62.2642 62.909 61.8055 63.2443 61.6119L64.3627 60.9661C64.4779 60.8997 64.6108 60.8663 64.7405 60.866ZM58.933 62.4207H60.2246C60.6118 62.4207 60.9824 62.7365 60.923 63.119L60.6323 64.9943C60.5729 65.3763 60.3876 65.6931 60.0844 65.6931H59.0732C58.77 65.6931 58.5848 65.3763 58.5254 64.9943L58.2336 63.119C58.1741 62.7365 58.5459 62.4207 58.933 62.4207Z" fill="white"/>
        <path d="M45.1461 12.557C44.6345 12.557 44.3228 13.0914 44.2226 13.7361L43.7305 16.8997C43.7283 16.9125 43.7283 16.9249 43.7272 16.9376C42.5479 17.1226 41.3937 17.4427 40.2875 17.8914C40.2742 17.8719 40.2616 17.8524 40.2464 17.8335L38.2386 15.3395C37.9317 14.9584 37.5525 14.6906 37.1954 14.6883C37.0763 14.6875 36.9597 14.7164 36.8489 14.7803L35.3711 15.6335C34.928 15.8893 34.9255 16.5084 35.161 17.1168L36.3168 20.1023C36.3252 20.1239 36.3357 20.1436 36.3455 20.164C35.4127 20.9042 34.5679 21.749 33.8277 22.6818C33.8073 22.6723 33.7876 22.6615 33.766 22.6531L30.7799 21.4973C30.5137 21.3943 30.2457 21.3369 30.0069 21.3419C29.6998 21.3482 29.4411 21.4582 29.2972 21.7074L28.4435 23.1858C28.1877 23.6288 28.4951 24.1657 29.0032 24.5748L31.4967 26.5827C31.5156 26.598 31.5355 26.6104 31.5551 26.6238C31.1059 27.7303 30.7855 28.8849 30.6002 30.0646C30.5878 30.0657 30.5759 30.0654 30.5634 30.0679L27.3998 30.5599C26.7551 30.6602 26.2207 30.9719 26.2207 31.4835V33.1903C26.2207 33.7019 26.7551 34.0131 27.3998 34.1133L30.5634 34.6054C30.5759 34.6076 30.5882 34.6071 30.6007 34.6082C30.786 35.7881 31.1064 36.9428 31.5557 38.0495C31.536 38.0629 31.5155 38.0743 31.4967 38.0895L29.0032 40.0974C28.4951 40.5065 28.1877 41.0435 28.4435 41.4865L29.2972 42.9649C29.553 43.4079 30.1715 43.4104 30.7799 43.1749L33.766 42.0192C33.7875 42.0108 33.8073 42.0002 33.8277 41.9905C34.568 42.9235 35.413 43.7684 36.346 44.5088C36.3366 44.5293 36.3246 44.5483 36.3162 44.57L35.161 47.556C34.9255 48.1644 34.928 48.783 35.3711 49.0388L36.8489 49.8919C37.292 50.1477 37.8294 49.8409 38.2386 49.3327L39.24 48.0887C39.491 47.2264 39.7966 46.3809 40.1549 45.5574C37.5919 44.4252 35.4128 42.5731 33.8825 40.2261C32.3521 37.879 31.5362 35.1381 31.534 32.3361C31.5341 28.4996 33.0582 24.8202 35.771 22.1074C38.4839 19.3945 42.1633 17.8704 45.9998 17.8704C49.8363 17.8704 53.5157 19.3945 56.2286 22.1074C58.9414 24.8202 60.4655 28.4996 60.4656 32.3361C60.4613 32.4936 60.4544 32.651 60.445 32.8082C62.1893 32.8796 63.9181 33.1663 65.5921 33.6619C65.7097 33.5306 65.7789 33.3735 65.7789 33.1904V31.4835C65.7789 30.972 65.2439 30.6603 64.5993 30.56L61.4357 30.0679C61.4234 30.0657 61.4116 30.0668 61.3994 30.0647C61.214 28.8847 60.8934 27.73 60.4439 26.6234C60.4635 26.6099 60.4835 26.598 60.5024 26.5828L62.9958 24.5749C63.504 24.1658 63.8114 23.6288 63.5556 23.1858L62.7019 21.7074C62.55 21.4444 62.2704 21.3369 61.9408 21.342C61.7152 21.3451 61.4663 21.4017 61.2191 21.4974L58.2336 22.6531C58.212 22.6615 58.1923 22.6721 58.1719 22.6818C57.4317 21.749 56.5869 20.9043 55.6541 20.164C55.6636 20.1436 55.6744 20.1239 55.6828 20.1023L56.8386 17.1168C57.0741 16.5084 57.071 15.8893 56.628 15.6335L55.1501 14.7804C55.0394 14.7165 54.9227 14.6875 54.8037 14.6884C54.4466 14.6906 54.0679 14.9585 53.761 15.3396L51.7527 17.8336C51.7376 17.8523 51.7254 17.872 51.7121 17.8915C50.6057 17.4427 49.4513 17.1226 48.2718 16.9376C48.2707 16.925 48.2707 16.9125 48.2686 16.8997L47.7765 13.7361C47.6762 13.0915 47.3645 12.5571 46.853 12.5571L45.1461 12.557ZM45.9998 18.8301C44.2262 18.8301 42.4699 19.1794 40.8313 19.8582C39.1926 20.5369 37.7038 21.5318 36.4496 22.7859C35.1955 24.04 34.2006 25.5289 33.5219 27.1676C32.8431 28.8062 32.4938 30.5625 32.4938 32.3361C32.4969 34.9522 33.2597 37.5112 34.6896 39.702C36.1195 41.8928 38.1549 43.6212 40.5485 44.6771C41.5046 42.7231 42.7561 40.9281 44.2588 39.3551C42.6911 38.9664 41.2987 38.064 40.3034 36.792C39.3081 35.5199 38.7672 33.9513 38.7669 32.3361C38.7669 30.4178 39.529 28.5781 40.8854 27.2217C42.2418 25.8653 44.0815 25.1032 45.9998 25.1032C47.9181 25.1032 49.7578 25.8653 51.1142 27.2217C52.4706 28.5781 53.2327 30.4178 53.2327 32.3361C53.2291 32.8364 53.1735 33.3349 53.067 33.8237C53.5647 33.6631 54.0681 33.521 54.5763 33.3977C54.4969 33.2772 54.4496 33.1309 54.4496 32.9819V31.6903C54.4496 31.3334 54.7186 30.9901 55.0603 30.9849C55.0892 30.9849 55.1186 30.985 55.1485 30.9909L57.0237 31.2826C57.4058 31.342 57.7226 31.5273 57.7226 31.8305V32.8417C57.7226 32.8544 57.7209 32.8668 57.7198 32.8791C58.3109 32.8251 58.904 32.796 59.4976 32.7919C59.5029 32.64 59.5056 32.4881 59.5057 32.3361C59.5057 30.5625 59.1564 28.8062 58.4776 27.1676C57.7989 25.5289 56.8041 24.0401 55.5499 22.7859C54.2958 21.5318 52.8069 20.5369 51.1683 19.8582C49.5296 19.1794 47.7734 18.8301 45.9997 18.8301L45.9998 18.8301ZM45.4947 20.6138H46.5059C46.8091 20.6138 46.9943 20.9301 47.0538 21.3122L47.3445 23.1868C47.404 23.5694 47.0333 23.8863 46.6462 23.8863H45.3545C44.9674 23.8863 44.5956 23.5694 44.6551 23.1868L44.9469 21.3122C45.0063 20.9301 45.1915 20.6138 45.4947 20.6138ZM40.7818 21.8763C40.9934 21.8774 41.2187 22.0369 41.4005 22.2628L42.5904 23.7406C42.8332 24.0422 42.6702 24.5015 42.3349 24.695L41.2159 25.3408C40.8807 25.5344 40.4008 25.4464 40.261 25.0853L39.5762 23.3157C39.4366 22.9551 39.4387 22.5881 39.7013 22.4365L40.5766 21.9309C40.6423 21.893 40.7113 21.8758 40.7818 21.8763ZM51.2183 21.8763V21.8768C51.289 21.8762 51.3578 21.893 51.4235 21.9309L52.2994 22.4371C52.5619 22.5887 52.564 22.9551 52.4245 23.3157L51.7397 25.0853C51.5999 25.4463 51.1195 25.5344 50.7842 25.3409L49.6658 24.695C49.3305 24.5015 49.1669 24.0417 49.4097 23.7401L50.6001 22.2622C50.782 22.0364 51.0067 21.8776 51.2183 21.8763V21.8763ZM36.522 25.8199C36.6635 25.8168 36.8222 25.8509 36.9799 25.912L38.7496 26.5968C39.1106 26.7365 39.1987 27.2164 39.0051 27.5517L38.3593 28.6707C38.1657 29.0059 37.7064 29.169 37.4049 28.9262L35.927 27.7363C35.6259 27.4938 35.443 27.1755 35.5946 26.9129L36.1013 26.037C36.1866 25.8894 36.3399 25.8238 36.522 25.8199ZM55.4479 25.8199C55.6432 25.8168 55.8094 25.8811 55.8993 26.037L56.4055 26.9129C56.5571 27.1755 56.3743 27.4938 56.0731 27.7363L54.5952 28.9262C54.2937 29.1689 53.8344 29.0059 53.6409 28.6707L52.9945 27.5517C52.8009 27.2164 52.8901 26.7365 53.2511 26.5968L55.0207 25.912C55.1672 25.8554 55.3142 25.8226 55.4479 25.8199ZM45.9998 26.0635C44.3361 26.0635 42.7406 26.7243 41.5642 27.9006C40.3877 29.077 39.7268 30.6724 39.7267 32.3361C39.7281 33.8392 40.2693 35.2918 41.2516 36.4295C42.2339 37.5673 43.5921 38.3144 45.079 38.535C47.0795 36.6564 49.4261 35.1845 51.9881 34.201C52.1765 33.5973 52.2725 32.9685 52.2729 32.3361C52.2728 30.6724 51.6118 29.077 50.4354 27.9006C49.259 26.7243 47.6634 26.0635 45.9998 26.0635ZM36.9399 30.9844V30.9849C37.2816 30.9901 37.5505 31.3334 37.5505 31.6903V32.9819C37.5505 33.3691 37.2336 33.7397 36.8511 33.6803L34.9764 33.3896C34.5943 33.3302 34.2781 33.1449 34.2781 32.8417V31.8305C34.2781 31.5273 34.5943 31.3421 34.9764 31.2826L36.8511 30.9919C36.8809 30.9867 36.911 30.9844 36.9399 30.9844V30.9844ZM37.7205 35.6302C37.9672 35.6218 38.2262 35.771 38.3593 36.0015L39.0051 37.1205C39.1987 37.4558 39.1106 37.9346 38.7496 38.0743L36.9799 38.7602C36.6193 38.8998 36.2529 38.8977 36.1013 38.6352L35.5946 37.7593C35.443 37.4967 35.6258 37.1784 35.927 36.9359L37.4049 35.746C37.4991 35.6702 37.6083 35.6341 37.7205 35.6302ZM40.8386 39.2312C40.9683 39.2314 41.1007 39.2647 41.2159 39.3313L42.3349 39.9772C42.6702 40.1707 42.8332 40.6295 42.5904 40.931L41.4005 42.4094C41.1581 42.7106 40.8392 42.8929 40.5766 42.7413L39.7013 42.2351C39.4387 42.0835 39.4366 41.7171 39.5762 41.3565L40.261 39.5868C40.3528 39.35 40.5911 39.2306 40.8386 39.2312Z" fill="white"/>
        <path d="M52.0068 51.1521C51.5673 51.836 46.5752 51.5406 45.7632 51.5019C44.9512 51.4632 39.9536 51.2829 39.5811 50.5603C39.2086 49.8378 41.9605 45.6622 42.4 44.9783C42.8395 44.2944 45.4945 40.0566 46.3065 40.0953C47.1185 40.1339 49.3587 44.6049 49.7312 45.3275C50.1037 46.0501 52.4463 50.4683 52.0068 51.1521Z" fill="white"/>
    </g>
    <defs>
        <clipPath id="clip0_409_18900">
            <rect width="92" height="92" fill="white" transform="translate(0 0.301483)"/>
        </clipPath>
    </defs>
</svg>
