<svg width="83" height="121" viewBox="0 0 83 121" fill="none" xmlns="http://www.w3.org/2000/svg">
<path d="M41.3916 0L41.3868 0.00415166H41.1746C41.1426 0.158771 41.1021 0.312518 41.0556 0.465497C39.6115 5.20766 31.542 9.13302 20.5737 10.3664V10.4159C18.2884 10.6729 15.8947 10.8119 13.4275 10.812C8.72827 10.8001 4.10885 10.2957 0 9.32859V72.86L0.725407 71.8149C4.93041 65.7556 13.1113 63.2958 19.9214 66.0434C22.4492 67.0633 23.9075 68.0846 25.9517 70.2662L27.7775 72.2142L29.2058 71.3543C32.5855 69.3203 36.1619 68.4272 41.0304 68.4005C42.9588 68.3903 44.5368 68.3696 44.5368 68.3563C44.5368 68.3422 43.9746 67.1502 43.2876 65.7062C41.7933 62.5654 40.9146 60.3209 38.4612 53.3784C35.2648 44.3337 34.6434 43.3766 31.9664 43.3766C31.1634 43.3766 29.5027 43.5982 28.276 43.8691C24.6505 44.6698 22.6953 44.7522 21.3482 44.1614C18.2756 42.8139 17.3448 38.1908 19.2942 33.9585C20.7223 30.858 22.5822 29.8267 26.6976 29.8529C29.3718 29.8693 30.9423 30.2278 33.8274 31.4774C37.136 32.9104 38.8753 34.3036 39.5166 36.0342C39.8796 37.0138 40.107 37.2397 41.3117 37.8196C46.8267 40.4737 59.2966 52.9326 63.5983 60.0864C65.9832 64.0524 67.8063 67.9795 68.9056 71.5189C69.1916 72.4396 69.7595 73.6471 70.1675 74.2023C70.8088 75.075 70.8899 75.3559 70.7658 76.2719C70.4773 78.4001 69.2489 80.4093 66.7106 82.9045C57.5369 91.9218 38.0971 96.6518 26.2477 92.7498L25.0284 92.3485L23.4025 94.1465C19.2709 98.7156 15.4373 101.816 11.2877 103.943C9.50497 104.857 9.17968 105.124 8.47841 106.302C11.8123 109.503 15.9497 111.886 20.5737 113.125V113.136L41.2774 120.45L61.9811 113.136V113.125C73.8605 109.944 82.5543 99.2262 82.5543 86.4157V9.34927C78.441 10.3091 73.8219 10.8121 69.1268 10.812C61.2916 10.812 54.1686 9.43049 49.0868 7.19531L49.1628 7.16775C44.7195 5.23147 41.9777 2.70763 41.3914 0.0175187L41.3916 0Z" fill="#F1F3F6"/>
</svg>
