<svg width="92" height="93" viewBox="0 0 92 93" fill="none" xmlns="http://www.w3.org/2000/svg">
    <g clip-path="url(#clip0_409_18910)">
        <path class="icon-background" d="M46 92.3015C71.4051 92.3015 92 71.7066 92 46.3015C92 20.8964 71.4051 0.301514 46 0.301514C20.5949 0.301514 0 20.8964 0 46.3015C0 71.7066 20.5949 92.3015 46 92.3015Z" fill="#BCC0D0"/>
        <path d="M46.6266 74.8391C44.3245 74.4758 41.519 73.2743 39.5946 71.8275C36.1234 69.2179 33.789 64.5265 33.794 60.1703C33.8007 56.346 36.624 50.2102 42.3198 41.6573C45.0053 37.6246 48.4155 32.9517 48.6728 32.9517C48.9199 32.9517 52.7102 38.1164 55.0617 41.6573C60.007 49.104 62.7586 54.6516 63.4226 58.5136C64.168 62.8498 61.9526 68.3703 58.2254 71.4644C56.7898 72.6561 54.4665 73.8793 52.6398 74.4051C51.3089 74.7883 47.8747 75.0361 46.6266 74.8391ZM27.6002 44.5451C23.9223 43.6323 21.2281 40.2484 21.2281 36.5416C21.2281 35.0418 21.5764 33.8658 22.6755 31.6549C23.9963 28.9979 27.1778 24.1263 29.0807 21.8468L29.5809 21.2477L31.0361 23.1957C35.1792 28.742 37.6472 33.367 37.8672 35.9976C38.055 38.2412 37.1415 40.5809 35.3966 42.3258C33.3502 44.3723 30.3475 45.227 27.6002 44.5451ZM62.3838 35.5737C59.9262 34.7717 58.2725 32.8451 57.8158 30.2523C57.4883 28.3929 58.3773 26.0529 60.8455 22.2789C62.2078 20.1959 64.0826 17.6946 64.2816 17.6946C64.4724 17.6946 66.551 20.4815 67.8966 22.541C69.1815 24.5077 69.8383 25.7622 70.4102 27.3415C71.4966 30.342 70.0606 33.7495 67.0987 35.1986C65.8467 35.8111 63.6474 35.9861 62.3838 35.5737Z" fill="white"/>
    </g>
    <defs>
        <clipPath id="clip0_409_18910">
            <rect width="92" height="92" fill="white" transform="translate(0 0.301483)"/>
        </clipPath>
    </defs>
</svg>
