<svg width="55" height="81" viewBox="0 0 55 81" fill="none" xmlns="http://www.w3.org/2000/svg">
<g clip-path="url(#clip0_1555_6473)">
<path d="M27.5729 0.00227422H27.4315C27.4315 0.00232698 27.4315 0.00227422 27.4315 0.00227422C27.4102 0.106258 27.3833 0.209809 27.3523 0.312686C27.3522 0.312739 27.3523 0.312686 27.3523 0.312686C26.3904 3.50169 21.0142 6.14118 13.7068 6.97063V7.00392C12.1843 7.17675 10.5893 7.27042 8.94557 7.27048C5.81481 7.26256 2.73743 6.92299 0 6.27265V58.1121C0 66.7269 5.79227 73.9344 13.7068 76.0734V76.0813L27.5002 80.9996L41.2936 76.0813V76.0734C49.208 73.9344 55 66.7269 55 58.1121V6.28663C52.2595 6.93211 49.1823 7.27058 46.0543 7.27048C40.8342 7.27048 36.0887 6.34123 32.7031 4.83813L32.7537 4.81964C29.7934 3.51754 27.9666 1.82027 27.5761 0.0112259C27.5761 0.0112259 27.5761 0.00332678 27.5761 -0.000366211L27.5729 0.00227422Z" fill="url(#paint0_linear_1555_6473)"/>
<path d="M31.3269 20.0079V20.0084C30.4744 20.0084 30.3964 20.0232 29.7553 20.3291C28.9782 20.6997 28.3086 21.3053 27.9219 21.972C27.8113 22.1626 27.4204 23.0749 27.1385 23.8559C26.2148 26.4148 25.8442 27.1277 24.5433 28.856C21.9121 32.3517 19.6224 33.5839 15.7209 33.5839C14.8076 33.5843 13.7237 33.6511 13.4843 33.6964H13.4833C11.619 34.0502 10.0794 35.5094 9.58647 37.4034C9.55415 37.5277 9.49058 38.1704 9.45882 38.9506C9.42703 39.7308 9.40979 40.6952 9.40763 41.6477C9.40552 42.6002 9.41865 43.5423 9.44685 44.2763C9.46098 44.6434 9.47849 44.9588 9.49962 45.1933C9.52076 45.4278 9.57273 45.6223 9.54991 45.5676C9.86215 46.3155 10.9328 46.3903 11.3612 45.6873C11.4557 45.5321 11.4756 45.516 11.5051 45.0106C11.5344 44.5053 11.538 43.5877 11.5384 41.865C11.5388 40.7492 11.5516 39.7936 11.5734 39.0786C11.5843 38.7211 11.5976 38.4236 11.6133 38.1939C11.629 37.9642 11.6355 37.8289 11.6773 37.678C11.7948 37.2546 12.0754 36.8716 12.4164 36.547C12.7573 36.2223 13.1587 35.9578 13.5899 35.8492C13.807 35.7945 14.1053 35.7685 14.4926 35.7436C14.8799 35.7182 15.3347 35.7024 15.7701 35.7024C18.7328 35.7024 21.0131 35.009 22.9697 33.5369C23.8745 32.8561 25.626 30.997 26.535 29.7292C27.4514 28.4513 28.6254 26.1241 29.1839 24.4683C29.5238 23.4606 29.8635 22.7741 30.3712 22.3752C30.625 22.1758 30.9313 22.0648 31.2448 22.0604C31.5583 22.0551 31.8685 22.1533 32.1841 22.312C32.5633 22.5026 32.8691 22.7782 33.0586 23.1384C33.2481 23.4987 33.3229 23.923 33.3229 24.4162C33.3229 25.958 32.6867 27.8014 31.0694 31.1706C30.5805 32.189 30.319 32.8044 30.2323 33.1794C30.1455 33.5543 30.1809 33.6517 30.3356 33.9137C30.4389 34.0883 30.4801 34.1503 30.5493 34.1969C30.6186 34.2433 30.77 34.303 31.1197 34.3445C31.819 34.4271 33.2272 34.4323 36.0143 34.4323C38.42 34.4323 39.6887 34.4323 40.4192 34.4645C40.7845 34.4798 41.0165 34.5009 41.2042 34.5396C41.3919 34.5786 41.5417 34.6486 41.6467 34.7128C42.1249 35.0045 42.3538 35.5314 42.3694 36.0417C42.385 36.552 42.1871 37.0912 41.7242 37.4055C41.5333 37.5351 41.2809 37.616 40.8795 37.657C40.4781 37.6982 39.8831 37.7193 38.8731 37.7442C37.7433 37.7721 37.1545 37.7911 36.86 37.8286C36.5655 37.866 36.6365 37.8502 36.5046 37.9743C35.9456 38.5004 36.0532 39.3468 36.6981 39.676C36.8739 39.7657 36.9527 39.7977 37.3509 39.8269C37.7491 39.856 38.4263 39.8618 39.641 39.8618H42.4725L42.9778 40.3675C43.2394 40.6293 43.4218 40.932 43.4706 41.2709C43.5193 41.6097 43.4319 41.953 43.2591 42.2876C43.1678 42.4642 43.048 42.6455 42.8619 42.784C42.6758 42.9225 42.4472 43.0048 42.1649 43.0577C41.6003 43.1637 40.7743 43.1746 39.3002 43.1746H36.7901L36.5445 43.381C36.4384 43.4703 36.2197 43.8041 36.1799 43.937C36.0765 44.2824 36.0686 44.1881 36.2403 44.5341C36.3476 44.7502 36.4255 44.8851 36.4942 44.9597C36.5629 45.0344 36.6235 45.077 36.7987 45.1245C37.1489 45.2194 37.9144 45.248 39.3871 45.266C40.7922 45.2829 41.5489 45.2961 42.0607 45.3921C42.3166 45.4401 42.5264 45.5164 42.6957 45.6471C42.8651 45.7778 42.9668 45.9439 43.0462 46.0976C43.5263 47.0267 43.072 48.1926 42.0812 48.4678C41.9494 48.5048 41.832 48.5133 41.6482 48.5286C41.4645 48.5439 41.2353 48.5565 40.9715 48.5676C40.444 48.5898 39.7797 48.604 39.0948 48.6045H36.7901L36.5506 48.8067C36.2695 49.0434 36.1483 49.3271 36.1483 49.6061C36.1483 49.885 36.2695 50.1685 36.5506 50.4052C36.7083 50.5379 36.6895 50.5417 36.8744 50.5706C37.0594 50.5996 37.4424 50.6076 38.1709 50.6076C39.0755 50.6077 39.6486 50.6313 40.1064 50.784C40.5643 50.9366 40.8678 51.272 41.0635 51.6729C41.4304 52.4248 41.1948 53.3247 40.4925 53.7532C40.385 53.8188 40.2156 53.8943 39.9887 53.9315C39.7619 53.9684 39.4537 53.9891 38.9302 54.0039C37.8831 54.0356 35.9774 54.0356 32.3027 54.0356C28.5831 54.036 26.6736 54.0356 25.663 54.0672C25.1577 54.082 24.8768 54.1052 24.728 54.1311C24.5793 54.1569 24.582 54.1633 24.5005 54.213C23.8226 54.6267 23.8869 55.7108 24.6002 56.0257C24.6006 56.0258 24.6012 56.0256 24.6012 56.0257C24.5591 56.0072 24.7084 56.051 24.9821 56.07C25.2564 56.089 25.6751 56.1032 26.2862 56.1127C27.5086 56.1317 29.5027 56.1333 32.7058 56.1227L40.5276 56.0958L41.0851 55.8297C42.0009 55.3922 42.487 54.9118 42.9415 53.9916C43.305 53.2556 43.3283 53.1688 43.3318 52.4624C43.3334 52.0423 43.2484 51.434 43.2015 51.2955C43.1271 51.0758 43.0523 50.9373 43.0923 50.6943C43.1123 50.5728 43.184 50.4515 43.2533 50.3795C43.3227 50.3073 43.3863 50.2654 43.452 50.2199C44.1581 49.7312 44.6634 49.162 44.9751 48.5285C45.3079 47.8517 45.3109 47.8268 45.3109 46.8917C45.3109 45.955 45.3088 45.9323 44.9724 45.2481L44.4986 44.2851L44.9683 43.5449C45.5993 42.5495 45.7477 41.5437 45.432 40.4631C45.3361 40.1349 45.1584 39.7485 44.9598 39.421C44.7611 39.0934 44.5272 38.82 44.3989 38.7265L43.8509 38.3273L44.2438 37.4223C44.6105 36.5789 44.5869 35.5064 44.1687 34.6121C43.7179 33.6481 43.2231 33.1285 42.3705 32.7082L41.6842 32.3695L37.6571 32.3133L32.9692 32.2477L33.7637 30.3899C34.9728 27.5621 35.4392 25.8337 35.4392 24.328C35.4392 22.3981 34.7258 21.2448 33.0075 20.395C32.2252 20.0081 32.2225 20.0079 31.3268 20.0079H31.3269ZM27.4627 42.962C27.2942 42.962 27.1316 43.0005 27.0014 43.0843C26.8375 43.1896 26.1757 43.8718 20.9866 49.692C19.6839 51.1532 18.3463 52.6381 17.9882 53.0194C17.6097 53.4225 17.2682 53.706 16.8767 53.8673C16.4851 54.0283 16.0669 54.0461 15.6075 53.9771C15.3242 53.9349 15.0263 53.8365 14.6556 53.5371C14.2849 53.2377 13.7714 52.7336 12.8008 51.776L10.8747 49.8755H10.5004C9.80284 49.8755 9.30915 50.4991 9.45853 51.1829C9.4617 51.1902 9.46397 51.1971 9.47182 51.2098C9.49428 51.2435 9.5327 51.2972 9.58344 51.3616C9.68493 51.4905 9.83381 51.6652 10.013 51.8658C10.3715 52.2669 10.8528 52.7747 11.3528 53.2832C11.8528 53.7918 12.3727 54.3021 12.8069 54.7071C13.2411 55.112 13.6275 55.4293 13.7128 55.4797C13.9393 55.614 14.4659 55.8489 14.7927 55.9573C15.2552 56.11 15.5628 56.145 16.275 56.11C17.0814 56.0705 17.2204 56.0343 17.9097 55.6869C18.1291 55.5764 18.3565 55.4526 18.5405 55.345C18.7244 55.2374 18.8838 55.1258 18.8891 55.1214C18.8597 55.1467 18.9971 55.0117 19.155 54.8425C19.3129 54.6732 19.5284 54.4406 19.7839 54.1611C20.2949 53.6021 20.9687 52.8573 21.6811 52.0637C23.1073 50.4749 25.1605 48.1876 26.2445 46.9802C26.7855 46.3776 27.2995 45.7971 27.6909 45.3492C27.8867 45.1252 28.0525 44.9347 28.1742 44.7913C28.2959 44.648 28.3882 44.5298 28.3831 44.5372C28.4386 44.4568 28.5009 44.2536 28.5039 44.0324C28.5071 43.8111 28.4571 43.5741 28.3797 43.4242C28.2733 43.2184 28.0325 43.067 27.7667 43.0002V43.0004C27.6671 42.9751 27.5638 42.9619 27.4627 42.9624L27.4627 42.962Z" fill="white"/>
</g>
<defs>
<linearGradient id="paint0_linear_1555_6473" x1="8.21038" y1="73.5728" x2="58.1073" y2="-41.5136" gradientUnits="userSpaceOnUse">
<stop stop-color="#006079"/>
<stop offset="1" stop-color="#00CCFF"/>
</linearGradient>
<clipPath id="clip0_1555_6473">
<rect width="55" height="81" fill="white"/>
</clipPath>
</defs>
</svg>
