<svg width="28" height="28" viewBox="0 0 28 28" fill="none" xmlns="http://www.w3.org/2000/svg">
    <path fill-rule="evenodd" clip-rule="evenodd" d="M21.3828 0V16.7431L16.4855 11.8462L9.5252 9.52448L11.8453 16.4862L21.3828 26.0232V28H8.25781V19.7969H0V0H21.3828ZM18.1016 2.51562H6.61719V4.15625H18.1016V2.51562ZM4.97656 2.51562H3.33594V4.15625H4.97656V2.51562ZM3.33594 5.79688V7.4375H18.1016V5.79688H3.33594ZM12.1193 12.1192L13.2792 15.6L13.8595 16.1803L16.1794 13.8602L15.5992 13.28L12.1193 12.1192ZM6.61713 27.5194V21.4375H0.480591L6.61713 27.5194ZM17.3357 15.0217L15.0161 17.3413L22.7748 25.1L25.0944 22.7804L17.3357 15.0217ZM23.9343 26.2596L26.2539 23.94L27.9941 25.6801L25.6744 27.9998L23.9343 26.2596Z" fill="#00CCFF"/>
</svg>
