<svg width="92" height="93" viewBox="0 0 92 93" fill="none" xmlns="http://www.w3.org/2000/svg">
    <g clip-path="url(#clip0_409_18890)">
        <path class="icon-background" d="M46 92.3015C71.4051 92.3015 92 71.7066 92 46.3015C92 20.8964 71.4051 0.301483 46 0.301483C20.5949 0.301483 0 20.8964 0 46.3015C0 71.7066 20.5949 92.3015 46 92.3015Z" fill="#BCC0D0"/>
        <path d="M64.3545 26.7209C63.7547 26.7209 63.2353 27.0518 62.9676 27.5419H60.4462C60.11 27.5419 59.839 27.8124 59.839 28.1486V32.4779C59.839 32.8141 60.11 33.085 60.4462 33.085H62.7749V34.5937H52.2536L43.5981 29.5964C44.3197 31.4877 44.6896 33.495 44.6897 35.5193C44.6896 39.9268 42.9387 44.1537 39.8221 47.2702C36.7055 50.3867 32.4786 52.1375 28.0711 52.1375C24.3965 52.1348 20.8264 50.9142 17.9192 48.6667V61.5018C17.9192 61.5816 17.931 61.6583 17.9424 61.7349H15.5107C14.6355 61.7349 13.9311 62.4397 13.9311 63.3149V64.4026C13.9311 65.2778 14.6355 65.9823 15.5107 65.9823H77.3035C78.1787 65.9823 78.8831 65.2778 78.8831 64.4026V63.3149C78.8831 62.4397 78.1787 61.7349 77.3035 61.7349H74.8718C74.8832 61.6583 74.8951 61.5816 74.8951 61.5018V36.1738C74.8951 35.2986 74.1902 34.5937 73.315 34.5937H67.5401V33.085H69.8267C70.1629 33.085 70.4335 32.8141 70.4335 32.4779V28.1486C70.4335 27.8124 70.1629 27.5419 69.8267 27.5419H67.3473C67.0797 27.0518 66.5599 26.7209 65.96 26.7209H64.3545ZM60.8877 38.0044C63.9378 38.0044 66.863 39.2161 69.0197 41.3728C71.1764 43.5295 72.3881 46.4547 72.3881 49.5047C72.3881 52.5548 71.1764 55.48 69.0197 57.6367C66.863 59.7934 63.9378 61.005 60.8877 61.0051C57.8377 61.005 54.9125 59.7934 52.7558 57.6367C50.5991 55.48 49.3874 52.5548 49.3874 49.5047C49.3874 46.4547 50.5991 43.5295 52.7558 41.3728C54.9125 39.2161 57.8377 38.0044 60.8877 38.0044ZM60.8877 39.616C58.2651 39.6161 55.7499 40.6579 53.8954 42.5124C52.0409 44.3669 50.9991 46.8821 50.999 49.5047C50.999 50.8034 51.2548 52.0893 51.7517 53.2891C52.2486 54.4889 52.977 55.5791 53.8953 56.4974C54.8135 57.4156 55.9037 58.1441 57.1034 58.6411C58.3032 59.1381 59.5891 59.3939 60.8877 59.3939C62.1864 59.3939 63.4723 59.1381 64.6721 58.6411C65.8718 58.1441 66.962 57.4156 67.8802 56.4974C68.7985 55.5791 69.5269 54.4889 70.0238 53.2891C70.5207 52.0893 70.7765 50.8034 70.7765 49.5047C70.7764 46.8821 69.7346 44.3669 67.8801 42.5124C66.0256 40.6579 63.5104 39.6161 60.8877 39.616Z" fill="white"/>
        <path d="M28.0711 21.127C24.2248 21.127 20.5359 22.655 17.8162 25.3748C15.0964 28.0946 13.5684 31.7834 13.5684 35.6297C13.5683 37.5343 13.9434 39.4202 14.6722 41.1798C15.401 42.9394 16.4693 44.5382 17.816 45.885C19.1627 47.2317 20.7615 48.3 22.5211 49.0289C24.2806 49.7577 26.1666 50.1329 28.0711 50.1329C29.9757 50.133 31.8617 49.7578 33.6213 49.029C35.3809 48.3002 36.9798 47.2319 38.3265 45.8851C39.6733 44.5384 40.7416 42.9395 41.4704 41.1799C42.1992 39.4203 42.5743 37.5343 42.5743 35.6297C42.5743 33.7252 42.1991 31.8393 41.4703 30.0797C40.7414 28.3201 39.6731 26.7213 38.3264 25.3746C36.9796 24.0279 35.3808 22.9596 33.6212 22.2308C31.8616 21.502 29.9757 21.1269 28.0711 21.127ZM28.0711 22.8349C31.4646 22.8349 34.719 24.1829 37.1186 26.5824C39.5182 28.9818 40.8663 32.2363 40.8663 35.6297C40.8664 37.31 40.5354 38.9739 39.8924 40.5263C39.2494 42.0787 38.3069 43.4892 37.1188 44.6774C35.9306 45.8655 34.5201 46.808 32.9677 47.451C31.4153 48.094 29.7514 48.425 28.0711 48.4249C24.6777 48.4249 21.4232 47.0768 19.0238 44.6772C16.6243 42.2776 15.2763 39.0232 15.2763 35.6297C15.2764 32.2364 16.6244 28.982 19.0239 26.5825C21.4234 24.183 24.6777 22.835 28.0711 22.8349Z" fill="white" stroke="white" stroke-width="1.03036" stroke-linecap="round" stroke-linejoin="round"/>
        <path d="M28.175 20.9197H27.9678C27.0953 20.9197 26.388 21.627 26.388 22.4995V48.0868C26.388 48.9592 27.0953 49.6665 27.9678 49.6665H28.175C29.0475 49.6665 29.7547 48.9592 29.7547 48.0868V22.4995C29.7547 21.627 29.0475 20.9197 28.175 20.9197Z" fill="white"/>
        <path d="M40.5709 28.1961L40.4673 28.0167C40.0311 27.2611 39.0649 27.0022 38.3093 27.4385L16.1501 40.2321C15.3945 40.6683 15.1356 41.6345 15.5718 42.3901L15.6754 42.5696C16.1117 43.3252 17.0779 43.584 17.8335 43.1478L39.9927 30.3542C40.7483 29.9179 41.0072 28.9517 40.5709 28.1961Z" fill="white"/>
        <path d="M40.4673 42.5695L40.5709 42.3901C41.0071 41.6345 40.7483 40.6683 39.9927 40.2321L17.8334 27.4385C17.0778 27.0022 16.1116 27.2611 15.6754 28.0167L15.5718 28.1961C15.1356 28.9517 15.3944 29.9179 16.15 30.3542L38.3093 43.1478C39.0649 43.584 40.031 43.3251 40.4673 42.5695Z" fill="white"/>
    </g>
    <defs>
        <clipPath id="clip0_409_18890">
            <rect width="92" height="92" fill="white" transform="translate(0 0.301483)"/>
        </clipPath>
    </defs>
</svg>
