<svg width="92" height="92" viewBox="0 0 92 92" fill="none" xmlns="http://www.w3.org/2000/svg">
    <path class="icon-background" d="M45.9267 91.8538C71.2912 91.8538 91.8533 71.2917 91.8533 45.9271C91.8533 20.5626 71.2912 0.000488281 45.9267 0.000488281C20.5621 0.000488281 0 20.5626 0 45.9271C0 71.2917 20.5621 91.8538 45.9267 91.8538Z" fill="#BCC0D0"/>
    <path d="M45.9264 0C38.6956 0.00922421 31.5691 1.72564 25.1271 5.00958C27.0119 5.64879 29.5032 6.32753 32.4369 6.98779C35.3804 7.65015 38.2741 8.30119 38.8674 8.43404L39.9464 8.67661L39.8171 18.2312L39.6896 27.7872L33.515 29.328C30.1191 30.1758 26.7656 31.0968 26.0631 31.3754C24.6212 31.947 23.674 33.3651 24.1837 34.1898C24.7504 35.1066 28.4943 36.5493 34.7237 38.2503L40.6393 39.8652V47.8766V55.8881L35.8026 57.6322C33.1425 58.5916 30.5127 59.6936 29.9592 60.0812C28.9959 60.7559 29.1579 60.892 33.747 63.2491C39.2267 66.064 40.3866 67.3329 42.7973 73.1536C45.2735 79.1322 44.9903 78.9696 46.9716 75.5537C47.9502 73.8662 50.639 70.6273 53.107 68.1621C55.5235 65.7486 57.5006 63.572 57.5006 63.325C57.5006 63.078 56.4122 62.5147 55.0822 62.0729C52.5975 61.2475 49.426 58.8779 49.426 57.8465C49.426 56.2334 51.7342 55.1661 58.2502 53.7672C65.5549 52.1992 69.2442 51.1855 70.3245 50.448C70.9251 50.0378 70.8044 49.7482 69.5566 48.6066C67.9279 47.1163 65.354 46.0814 61.1742 45.2345C57.6511 44.5209 51.8816 41.5715 50.6338 39.8478C49.7658 38.648 49.6636 37.7995 49.6636 31.7742V25.0413L53.4633 24.4159C65.4694 22.4386 70.7996 20.8844 70.7996 19.3604C70.7996 18.2102 68.0871 16.8218 64.1549 15.9604C57.0129 14.3957 51.5836 11.7462 50.3625 9.22934C49.9937 8.46922 49.7648 5.73151 49.6124 0.149833C48.3862 0.0505924 47.1566 0.000510347 45.9264 0Z" fill="white"/>
</svg>
