<svg width="83" height="121" viewBox="0 0 83 121" fill="none" xmlns="http://www.w3.org/2000/svg">
<path d="M41.392 0L41.3873 0.00392343H41.1751C41.143 0.158564 41.1026 0.31231 41.0561 0.46529C39.6123 5.20746 31.5427 9.1328 20.5744 10.3662V10.4157C18.2892 10.6727 15.8954 10.8117 13.4282 10.8118C8.72901 10.7999 4.10959 10.2954 0.000736528 9.32837V63.829L1.33298 64.2797L2.99357 62.9739L4.65376 61.6685L4.51269 60.2423C4.33471 58.4411 4.72993 57.7408 6.20109 57.2487C10.2615 55.8911 11.528 56.1262 12.3438 58.3879L12.8005 59.6536L14.1209 59.7436C14.8472 59.7932 15.8105 59.9209 16.2616 60.027C17.0683 60.2169 17.0974 60.2021 18.0191 59.1501C19.6667 57.2697 20.3318 57.2419 23.1187 58.9356C25.7068 60.5084 25.959 61.0293 25.1023 63.0315L24.4951 64.4496L25.7194 66.1329L26.9441 67.8166L28.325 67.6467C29.0846 67.5536 30.0248 67.5891 30.4141 67.7253C31.0658 67.9536 31.1769 68.1409 31.8191 70.0881C32.7388 72.8765 32.7509 73.8389 31.8751 74.6303C31.4974 74.9718 30.6735 75.4418 30.0444 75.675L28.9007 76.0991L28.6864 77.936L28.4722 79.7725L29.1984 80.2744C29.5977 80.5503 30.2258 81.104 30.5944 81.5048C31.1951 82.1582 31.2543 82.3271 31.162 83.1338C31.1054 83.6288 30.5537 84.8484 29.9365 85.8435C28.5035 88.1536 27.8478 88.4373 25.7149 87.6703C24.8822 87.3708 24.1052 87.1982 23.988 87.2868C23.8707 87.3751 23.1685 87.8888 22.4276 88.4288C21.2962 89.2537 21.0958 89.5166 21.1767 90.0704C21.4463 91.9147 21.3969 92.7241 20.9731 93.3931L20.9707 93.3892C20.5564 94.0433 20.3011 94.178 18.6407 94.6172C15.8938 95.3437 15.4422 95.375 14.6673 94.8924C14.1729 94.5845 13.8314 94.0921 13.5199 93.2363C13.276 92.5665 12.9586 91.9392 12.8141 91.8425C12.6697 91.746 11.6887 91.565 10.6342 91.4408L8.71682 91.2145L7.982 92.1871C6.43306 94.2379 5.51724 94.3003 2.59169 92.5544C0.204816 91.1301 -0.0237016 90.6365 0.709047 88.4837L1.24391 86.9127L0.23593 85.6689C0.15434 85.5682 0.0783462 85.4687 0 85.3685V86.4157C0 99.2262 8.69412 109.944 20.5737 113.125V113.136L41.2774 120.45L61.9811 113.136V113.125C73.8605 109.944 82.5543 99.2262 82.5543 86.4157V9.34896C78.441 10.3088 73.8219 10.8118 69.1269 10.8117C61.2916 10.8117 54.1686 9.43019 49.0868 7.19503L49.1629 7.16745C44.7195 5.23119 41.9777 2.70734 41.3915 0.0172319L41.392 0ZM36.3215 20.637C36.6419 20.6133 36.8601 20.6736 37.1459 20.7834C37.7991 21.0343 38.1338 21.4174 38.8007 22.6774C39.2606 23.5463 39.7401 24.2992 39.8664 24.351C39.9926 24.4028 40.5776 24.4252 41.1659 24.4025C41.7543 24.3798 42.8463 24.4352 43.5928 24.5253C45.0705 24.7036 45.0291 24.73 46.2438 22.8141C47.5525 20.7499 47.9746 20.7154 51.5973 22.3722C55.6104 24.2075 55.8931 24.6528 54.8915 27.5614L54.3452 29.147L55.7326 30.7326C56.4956 31.6045 57.2378 32.4713 57.3818 32.6587C57.5753 32.9104 58.113 32.8827 59.4444 32.5524C60.9638 32.1754 61.391 32.1737 62.1751 32.5415C63.1011 32.9759 63.1087 32.9893 64.2172 36.0624C65.202 38.7926 65.2996 39.237 65.0661 39.9284C64.7917 40.7411 64.4542 40.997 62.2573 42.0577L60.9402 42.6933L60.9181 44.184C60.906 45.0037 60.8472 46.0359 60.7872 46.4779C60.6823 47.2504 60.7292 47.313 62.0152 48.1096C65.0532 49.9914 65.115 50.2656 63.3503 54.0582C61.4883 58.0604 61.2305 58.2061 57.8557 57.1625L56.3211 56.6877L54.5767 58.221L52.8322 59.7538L53.0469 60.9684C53.1648 61.6365 53.3381 62.5621 53.4321 63.0259C53.5261 63.4896 53.4368 64.2171 53.2342 64.6423C52.8814 65.3808 52.7217 65.4661 49.5977 66.5736C46.479 67.6794 46.2949 67.7153 45.5552 67.3682C45.0464 67.1297 44.5848 66.6238 44.2111 65.8958C42.8727 63.2885 42.9713 63.3868 41.7556 63.4504C41.136 63.4829 40.0211 63.4336 39.278 63.3409L37.9265 63.1723L36.7836 64.9277C35.1472 67.4399 34.8089 67.4908 31.06 65.79C27.2354 64.0549 26.8771 63.4696 27.8742 60.5841L28.4438 58.9357L27.0212 57.398C26.2388 56.5524 25.4755 55.705 25.325 55.5153C25.1291 55.2687 24.6021 55.2748 23.4685 55.536C22.598 55.7367 21.6038 55.8982 21.2588 55.8896C20.2601 55.8713 19.4377 54.7512 18.4863 52.1136C17.1253 48.3401 17.3337 47.5813 20.1036 46.2339C21.2789 45.6623 21.5188 45.4462 21.4914 44.9836C21.4732 44.676 21.5278 43.5786 21.6129 42.5447L21.7679 40.6644L21.0163 40.2022C19.2394 39.1091 18.2755 38.1638 18.2021 37.4426C18.1615 37.0423 18.7511 35.4286 19.5548 33.7408C21.2875 30.1023 21.5517 29.9398 24.3342 30.7967C26.0706 31.3308 26.23 31.334 26.6135 30.8393C26.8403 30.5467 27.6902 29.7357 28.5019 29.0372L29.9776 27.7671L29.554 26.0899C29.2306 24.8086 29.2145 24.2184 29.4853 23.5905C29.8327 22.7838 29.9021 22.7461 33.0833 21.6182C34.9697 20.9494 35.7875 20.6759 36.3215 20.6363L36.3215 20.637ZM40.9009 35.3879C39.8286 35.3787 39.2516 35.5302 37.9384 36.0848C35.6744 37.0406 34.4476 38.192 33.4971 40.2532C32.4889 42.4401 32.359 44.1176 33.0236 46.3725C33.4556 47.838 33.7619 48.4318 34.5771 49.3831C35.9654 51.0031 38.4045 52.2509 40.4748 52.4006C44.2906 52.6764 47.3741 50.8963 49.0072 47.4744C50.027 45.3375 50.1095 43.3209 49.2714 41.0154C48.0131 37.554 45.207 35.5538 41.3945 35.4009C41.2175 35.3938 41.0541 35.3892 40.9009 35.388V35.3879ZM13.0711 68.7211C12.2073 68.7157 11.3059 68.8677 10.3947 69.1878C7.65131 70.1508 6.21281 71.9457 5.77074 74.9568C5.63622 75.8732 5.74613 76.5346 6.2827 78.0326C6.87572 79.688 7.10712 80.0571 8.02713 80.819C9.43722 81.9869 11.2993 82.6591 12.9774 82.6081C16.0388 82.5139 18.0554 81.0872 19.2653 78.1595C20.0562 76.246 20.0015 74.7571 19.0658 72.699C17.9139 70.166 15.6624 68.7372 13.0711 68.7211ZM43.9387 69.1124C44.7736 69.1522 45.2694 69.7001 45.9408 70.9359C46.1004 71.2297 46.7452 71.3884 47.9866 71.4394L49.7989 71.5133L50.4135 70.6716C51.4472 69.256 52.3949 69.1124 54.4233 70.0639C56.4567 71.0178 56.8326 71.6559 56.3808 73.3854L56.0904 74.4958L57.154 75.7178C58.1907 76.909 58.2464 76.9344 59.3429 76.7232C60.0028 76.596 60.7799 76.6526 61.2227 76.8602C61.8773 77.1673 62.0633 77.4521 62.6216 78.9999C63.4203 81.2142 63.1919 82.1307 61.6435 82.9235C60.7031 83.4051 60.6482 83.5054 60.5423 84.9425L60.4306 86.4551L61.502 87.171C63.0914 88.2336 63.2253 88.9234 62.2564 91.0625C61.283 93.2119 60.4655 93.6798 58.6723 93.1139L57.5854 92.771L56.429 93.928C55.529 94.8285 55.3046 95.2213 55.4182 95.7C55.7168 96.9584 55.7055 97.4738 55.3654 98.1256C55.0772 98.6774 54.6929 98.9092 53.1601 99.4525C51.3821 100.083 51.2657 100.089 50.4163 99.5985C49.9285 99.3164 49.424 98.7994 49.2959 98.4495C48.9716 97.5665 48.7524 97.4671 46.963 97.3918L45.39 97.3258L44.7987 98.229C43.9163 99.5767 42.7775 99.8885 41.1573 99.2259C38.8215 98.2705 38.1932 97.2758 38.757 95.4244L39.0121 94.586L37.9285 93.3475C36.8736 92.142 36.8144 92.1146 35.7363 92.3238C35.0232 92.4622 34.3463 92.3929 33.8361 92.1296C33.15 91.7755 32.9582 91.484 32.4074 89.957C31.8551 88.4258 31.8189 88.0934 32.1326 87.4362C32.3313 87.0197 32.9059 86.451 33.4092 86.1709C34.2864 85.6835 34.3251 85.5935 34.335 84.0125C34.3429 82.733 34.2535 82.3016 33.9363 82.0892C33.7114 81.9387 33.2398 81.5241 32.8887 81.1681C32.0347 80.3022 32.0897 79.1516 33.0653 77.4598C33.9105 75.9944 34.9384 75.4941 36.3133 75.8791L37.2002 76.1277L38.4904 74.9256C39.7255 73.775 39.7712 73.6804 39.5617 72.7064C39.216 71.0991 39.8141 70.3113 41.9583 69.5511C42.8146 69.2475 43.4378 69.0886 43.9387 69.1124L43.9387 69.1124ZM47.5319 78.7644C46.0776 78.7404 44.6455 79.2579 43.565 80.2948C41.7509 82.0355 41.2688 84.0093 42.0966 86.3042C42.946 88.6591 45.2855 90.2897 47.5777 90.1244C50.1678 89.9378 52.379 88.1951 53.0191 85.836C53.3395 84.6547 53.3086 84.3793 52.6539 82.5643C51.9894 80.7219 51.8597 80.528 50.8109 79.8132C49.8076 79.1293 48.663 78.783 47.5319 78.7644Z" fill="#F1F3F6"/>
</svg>
