<svg width="92" height="92" viewBox="0 0 92 92" fill="none" xmlns="http://www.w3.org/2000/svg">
    <path class="icon-background" d="M45.9267 91.8537C71.2913 91.8537 91.8535 71.2916 91.8535 45.927C91.8535 20.5624 71.2913 0.000244141 45.9267 0.000244141C20.5621 0.000244141 0 20.5624 0 45.927C0 71.2916 20.5621 91.8537 45.9267 91.8537Z" fill="#BCC0D0"/>
    <path d="M45.9269 0C41.4441 0.00364823 36.9861 0.663578 32.6945 1.95879V54.5091H59.1593V1.95149C54.8673 0.658805 50.4093 0.00122306 45.9269 0Z" fill="white" fill-opacity="0.782051"/>
    <path d="M48.9779 0.105721V16.004H32.6945V54.5084L28.1287 62.2796H63.7251L59.1597 54.5093V43.0576H42.8754V23.1234H59.1597V1.95168C55.8461 0.954807 52.4305 0.335467 48.9779 0.105721ZM30.4169 64.4412V65.8651H61.4369V64.4412H30.4169ZM30.4169 68.0263V69.4497H61.4369V68.0263H30.4169ZM30.4169 71.6113V73.0352H61.4369V71.6113H30.4169ZM32.1331 75.1964L35.8378 77.8404H56.016L59.7202 75.1964H32.1331Z" fill="white"/>
</svg>
