<svg width="92" height="92" viewBox="0 0 92 92" fill="none" xmlns="http://www.w3.org/2000/svg">
    <path class="icon-background" d="M45.9267 91.8557C71.2913 91.8557 91.8534 71.2935 91.8534 45.9289C91.8534 20.5643 71.2913 0.00219727 45.9267 0.00219727C20.5621 0.00219727 0 20.5643 0 45.9289C0 71.2935 20.5621 91.8557 45.9267 91.8557Z" fill="#BCC0D0"/>
    <path d="M45.9267 0.00159883C44.6346 0.00645346 43.3433 0.0660035 42.0562 0.179754C40.8816 0.39797 39.7894 0.632557 38.9161 0.881412L36.8326 1.47572L36.0592 1.08652C33.7321 1.59571 31.4482 2.28504 29.2281 3.14855C29.3905 3.28725 29.5247 3.39585 29.6118 3.4569L30.2244 3.88493L28.9202 4.89904C25.842 7.29287 24.3051 9.59698 24.0922 12.1353C23.9906 13.3497 24.0643 13.7118 24.6993 15.1133C25.5262 16.9383 27.0831 18.7661 28.827 19.9591C29.6359 20.5125 29.8814 20.7884 29.6968 20.9358C27.0237 23.0718 26.3458 23.6637 25.6627 24.4564C24.6712 25.6073 23.9314 27.2076 23.7482 28.5978C23.5904 29.7967 24.3492 32.1728 25.3174 33.5094C25.9379 34.3661 28.276 36.3429 29.7699 37.274C30.8107 37.9225 30.8202 37.9013 29.0641 38.8714C27.9607 39.4809 25.9607 41.2434 25.0428 42.4144C22.7915 45.287 23.0472 48.3202 25.7673 51.0157C26.4743 51.7162 27.1328 52.3154 27.2305 52.3491C27.3282 52.3819 28.0414 52.8155 28.8151 53.3125C29.5887 53.8098 30.353 54.2234 30.5131 54.2147C31.1496 54.21 30.5194 54.7166 28.579 55.7656C25.1913 57.5967 23.4746 59.7346 23.5011 62.0924C23.5231 64.0937 25.867 67.1355 28.0427 67.987C29.7441 68.6529 33.4039 69.763 33.6354 69.6781C33.7205 69.6484 34.3197 69.7552 34.967 69.9152C36.3854 70.2663 43.0783 70.9646 43.5102 70.8069C43.6786 70.7459 43.9428 70.7506 44.0972 70.8163C44.2515 70.8829 45.1666 70.9491 46.13 70.9625C47.0937 70.9765 48.2761 70.9915 48.758 71.0004C52.0946 71.049 58.211 70.4872 61.0654 69.8698C63.2954 69.3875 66.5455 68.0324 67.4287 67.2166C68.4066 66.3136 68.613 65.0161 68.0276 63.4585C67.3649 61.6966 65.5093 60.4508 62.6359 59.8387C61.8341 59.668 61.2731 59.4526 61.3892 59.3602C61.5053 59.2636 61.8261 59.2252 62.1019 59.264C62.94 59.3833 65.4501 58.644 66.3424 58.0154C66.8646 57.6475 67.3162 57.0485 67.5767 56.3777C67.9599 55.3921 67.9491 55.2348 67.4191 54.0551C66.8802 52.855 66.776 52.7591 65.4087 52.2027C64.6156 51.8799 63.6728 51.5775 63.3133 51.5307C62.9538 51.4837 62.1092 51.3638 61.4363 51.2644C60.7635 51.165 59.8351 51.0792 59.3734 51.0703C58.9118 51.0633 58.1377 51.0446 57.653 51.0296C56.3413 50.9892 51.0239 51.125 49.636 51.2343C46.1643 51.5074 42.8843 51.8609 42.4751 52.0104C42.0364 52.168 40.0387 52.0353 38.8869 51.7715C38.3835 51.6564 33.5578 50.2325 32.7081 49.9484C32.4906 49.8756 32.2867 49.7457 32.2558 49.661C32.2247 49.5757 31.8519 49.2757 31.4276 48.9945C30.4982 48.3789 29.2113 46.9496 29.2811 46.6109C29.3965 46.0519 31.1842 44.6326 32.8479 43.7792C34.4675 42.9482 37.6418 41.8698 39.7146 41.4462C41.7006 41.0402 42.0424 41.0019 42.1069 41.179C42.1447 41.2826 42.4863 41.3725 42.8657 41.3814C43.2451 41.3884 44.0365 41.4852 44.6244 41.5949C46.4251 41.9317 50.0658 42.3847 51.5359 42.4553C52.3023 42.492 53.2746 42.5471 53.6961 42.5764C56.8791 42.8002 62.4841 42.2284 64.4983 41.4746C67.5736 40.3234 68.3306 37.037 65.9194 35.3058C64.6233 34.3752 63.5888 34.0521 60.7625 33.6937C58.0109 33.3448 53.8224 33.2649 50.8836 33.5048C47.8071 33.7563 47.0114 33.8429 44.5367 34.1935C43.0393 34.4056 41.401 34.7294 40.8959 34.913C40.3907 35.0966 39.7993 35.1647 39.5817 35.0639C39.3639 34.9634 38.991 34.8468 38.753 34.8061C38.1902 34.7088 35.5536 33.7414 34.1836 33.1291C32.6672 32.4516 30.5458 31.0021 29.9078 30.2078C29.3918 29.5653 29.3891 29.4946 29.8539 28.6835C30.5322 27.5 31.6808 26.795 35.364 25.3031L38.5507 24.0121L40.0654 24.2954C40.8986 24.4509 41.9595 24.6534 42.423 24.7451C47.3245 25.7171 53.8554 26.2315 57.7115 25.9495C62.8461 25.5738 64.8239 25.0162 66.2104 23.553C67.1869 22.5225 67.3506 21.855 67.0107 20.2891C66.4393 17.6568 61.9598 15.9762 55.5636 15.9947C48.9058 16.0134 43.7125 16.5585 39.1719 17.7127L37.6028 18.1115L35.0081 16.8782C31.961 15.4295 31.2931 15.0067 30.3322 13.9203C29.801 13.3199 29.6351 12.98 29.6899 12.5997C29.875 11.3005 32.8194 9.2271 36.2666 7.96902L38.2551 7.24293L40.5784 7.82673C46.0894 9.21133 49.0331 9.62533 54.1593 9.73619C57.3077 9.80448 61.5759 9.13823 64.0529 8.19286C65.7655 7.53915 66.0861 7.34053 66.5325 6.65524C66.8316 6.19566 67.0097 5.68834 67.0788 5.16513C60.5442 1.77288 53.2898 0.00139015 45.9272 0L45.9267 0.00159883ZM41.6547 58.21C42.8964 58.1913 44.6058 58.3386 45.0725 58.5512C45.2517 58.6331 45.275 58.6978 45.1365 58.7271C44.2301 58.9182 43.619 58.9944 42.7629 59.0103C41.7578 59.0337 38.3558 59.4591 35.9217 59.8668C34.6229 60.0843 33.7508 59.9289 34.5769 59.6274C35.0014 59.4726 38.3119 58.6977 39.1148 58.5654C39.373 58.5228 40.0558 58.398 40.6319 58.2881C40.8785 58.2408 41.2402 58.216 41.6542 58.21H41.6547ZM47.2656 62.5707C51.5864 62.5452 54.4706 62.8676 58.2469 63.7437C59.3314 63.9954 60.2375 64.253 60.2605 64.3157C60.3188 64.4756 59.6363 64.6712 58.9079 64.703C58.5709 64.7171 57.374 64.8146 56.2479 64.9182C52.4071 65.2714 46.9729 65.4232 44.75 65.2393C44.3051 65.2021 43.8478 65.2071 43.7336 65.2487C43.6194 65.2894 43.1883 65.2903 42.7757 65.2487C42.363 65.2075 41.3334 65.1145 40.4875 65.042C38.5248 64.8741 35.3751 64.3496 34.8432 64.1021C34.6177 63.9973 34.3414 63.944 34.2292 63.9856C34.117 64.0266 33.9951 63.9785 33.9597 63.881C33.8881 63.6848 37.134 63.0325 38.1354 63.0423C38.4789 63.0447 39.1284 62.9839 39.5789 62.9053C40.4593 62.7514 41.462 62.6981 45.3192 62.601C46.0019 62.5847 46.6484 62.5733 47.2656 62.5695V62.5707Z" fill="white"/>
</svg>
