<svg width="28" height="28" viewBox="0 0 28 28" fill="none" xmlns="http://www.w3.org/2000/svg">
    <path fill-rule="evenodd" clip-rule="evenodd" d="M16.508 13.8534C20.3274 13.8534 23.4342 10.7461 23.4342 6.92672C23.4342 3.10734 20.3274 0 16.508 0C12.6886 0 9.5813 3.10734 9.5813 6.92672C9.5813 10.7461 12.6886 13.8534 16.508 13.8534ZM15.6877 2.85523V2.66711C15.6877 2.21375 16.0547 1.8468 16.508 1.8468C16.9608 1.8468 17.3283 2.21375 17.3283 2.66711V2.85633C18.3045 3.06578 19.039 3.93531 19.039 4.97328C19.039 5.42609 18.6715 5.79359 18.2186 5.79359C17.7653 5.79359 17.3983 5.42609 17.3983 4.97328C17.3983 4.68398 17.1626 4.44828 16.8733 4.44828H16.1378C15.8485 4.44828 15.6128 4.68398 15.6128 4.97328C15.6128 5.13898 15.6921 5.29648 15.8255 5.39492L16.508 5.90023L18.1661 7.12742C18.7108 7.53047 19.039 8.17523 19.0433 8.85336V8.86102C19.0472 9.43961 18.8257 9.98539 18.4188 10.3972C18.1169 10.7029 17.7396 10.908 17.3283 10.9944V11.1863C17.3283 11.6397 16.9608 12.0066 16.508 12.0066C16.0547 12.0066 15.6877 11.6397 15.6877 11.1863V10.9971C15.2874 10.9118 14.9193 10.7149 14.6218 10.4207C14.21 10.0144 13.9815 9.47187 13.9782 8.89328C13.9754 8.44047 14.3402 8.07078 14.793 8.06805H14.7985C15.2491 8.06805 15.6161 8.43227 15.6188 8.88344C15.6199 9.16655 15.8477 9.40516 16.1465 9.40516L16.881 9.40078C17.1721 9.39848 17.4049 9.16218 17.4027 8.87195V8.8643C17.4016 8.70023 17.3223 8.54383 17.19 8.44594L16.508 7.94117L14.8493 6.71398C14.3003 6.30711 13.9722 5.65633 13.9722 4.97328C13.9722 3.93312 14.7088 3.06305 15.6877 2.85523ZM5.28499 17.7949C5.07472 17.4303 4.60763 17.3035 4.24084 17.5151L0.382201 19.7425C0.0168335 19.954 -0.10851 20.4213 0.102419 20.7872L4.04615 27.6177C4.25725 27.983 4.72428 28.1085 5.0903 27.8975L8.94894 25.6696C9.31486 25.4586 9.43971 24.9913 9.22872 24.6254L5.28499 17.7949ZM25.7895 16.1705C26.3046 15.7992 27.0232 15.9157 27.3945 16.4314C27.7664 16.9471 27.6494 17.6668 27.1331 18.0376C27.1328 18.0378 27.0809 18.0756 26.9865 18.1445C26.2833 18.6573 23.2248 20.8877 21.6327 22.0314C21.2017 22.3409 20.8042 22.5974 20.4328 22.8107C19.3615 23.427 18.1442 23.7431 16.9082 23.7431H10.6137L7.25806 17.9315C8.1161 16.1826 10.1855 14.8723 12.2652 14.8723C13.435 14.8723 14.5156 15.2534 15.3901 15.8982C15.6444 16.0858 15.8817 16.2958 16.0983 16.5249H19.297C19.8843 16.5249 20.3852 16.9799 20.4093 17.5667C20.435 18.1852 19.9406 18.6993 19.3232 18.6993H15.121C14.6688 18.6993 14.3007 19.0657 14.3007 19.5196C14.3007 19.973 14.6682 20.3399 15.121 20.3399H19.0503C19.6218 20.3399 20.1692 20.1813 20.6412 19.8844C20.7615 19.8094 20.8769 19.7247 20.9868 19.6312C21.2252 19.4589 24.2265 17.2965 25.7895 16.1705Z" fill="#00CCFF"/>
</svg>
