<svg width="92" height="92" viewBox="0 0 92 92" fill="none" xmlns="http://www.w3.org/2000/svg">
    <circle cx="45.9267" cy="45.9267" r="45.9267" fill="url(#paint0_linear_1557_6530)"/>
    <path fill-rule="evenodd" clip-rule="evenodd" d="M34.8592 54.8387H60.3145C60.9449 54.8387 61.4978 54.4219 61.6684 53.8165L67.3046 34.0909C67.4257 33.6656 67.3427 33.2088 67.076 32.8555C66.8089 32.5033 66.3935 32.2952 65.9503 32.2952H31.6065L30.5993 27.7631C30.4562 27.1177 29.8838 26.6594 29.2234 26.6594H20.6758C19.8972 26.6594 19.2668 27.2898 19.2668 28.0684C19.2668 28.8473 19.8972 29.4773 20.6758 29.4773H28.0926L33.1806 52.3727C31.6836 53.0236 30.6323 54.5137 30.6323 56.2477C30.6323 58.5783 32.5286 60.4745 34.8592 60.4745H37.6612C35.3376 60.4833 33.4502 62.3761 33.4502 64.7013C33.4502 67.0323 35.3464 68.9282 37.6774 68.9282C40.008 68.9282 41.9043 67.0323 41.9043 64.7013C41.9043 62.3761 40.0168 60.4833 37.6936 60.4745H57.4804C55.1572 60.4833 53.2698 62.3761 53.2698 64.7013C53.2698 67.0323 55.166 68.9282 57.4966 68.9282C59.8276 68.9282 61.7234 67.0323 61.7234 64.7013C61.7234 62.3761 59.8364 60.4833 57.5128 60.4745H60.3145C61.0935 60.4745 61.7235 59.8445 61.7235 59.0656C61.7235 58.287 61.0935 57.6566 60.3145 57.6566H34.8592C34.0832 57.6566 33.4502 57.0252 33.4502 56.2477C33.4502 55.4702 34.0832 54.8387 34.8592 54.8387Z" fill="white"/>
    <defs>
        <linearGradient id="paint0_linear_1557_6530" class="icon-background" x1="72.0638" y1="-28.7509" x2="34.3517" y2="94.8405" gradientUnits="userSpaceOnUse">
            <stop stop-color="#7B7E89"/>
            <stop offset="1" stop-color="#2B2C30"/>
        </linearGradient>
    </defs>
</svg>
