<svg width="92" height="92" viewBox="0 0 92 92" fill="none" xmlns="http://www.w3.org/2000/svg">
    <path class="icon-background" d="M45.9266 91.8535C71.2912 91.8535 91.8534 71.2913 91.8534 45.9267C91.8534 20.5621 71.2912 0 45.9266 0C20.562 0 0 20.5621 0 45.9267C0 71.2913 20.562 91.8535 45.9266 91.8535Z" fill="#BCC0D0"/>
    <path d="M16.667 59.9979L17.1156 55.3622H75.1081L75.5567 59.9979H16.667ZM19.1679 53.0989L21.3452 29.0686H70.8784L73.0558 53.0989H19.1679ZM19.8791 26.8055L20.2521 22.9511H71.9715L72.3445 26.8055H19.8791Z" fill="white"/>
    <path d="M19.0693 64.1141L18.6081 59.334H29.1329L28.6717 64.1141H24.5842V62.6204H23.1568V64.1141H19.0693Z" fill="white"/>
    <path d="M33.8969 64.1141L33.4356 59.334H43.9605L43.4993 64.1141H39.4118V62.6204H37.9844V64.1141H33.8969Z" fill="white"/>
    <path d="M48.7244 64.1141L48.2632 59.334H58.7881L58.3268 64.1141H54.2394V62.6204H52.8119V64.1141H48.7244Z" fill="white"/>
    <path d="M63.552 64.1141L63.0908 59.334H73.6157L73.1544 64.1141H69.0669V62.6204H67.6395V64.1141H63.552Z" fill="white"/>
</svg>
