<svg width="92" height="92" viewBox="0 0 92 92" fill="none" xmlns="http://www.w3.org/2000/svg">
    <path class="icon-background" d="M45.9267 91.8537C71.2913 91.8537 91.8534 71.2916 91.8534 45.927C91.8534 20.5624 71.2913 0.000244141 45.9267 0.000244141C20.5621 0.000244141 0 20.5624 0 45.927C0 71.2916 20.5621 91.8537 45.9267 91.8537Z" fill="#BCC0D0"/>
    <path d="M45.9265 0C43.9191 0.00802044 41.9145 0.147664 39.9254 0.41798V18.5528L26.7963 22.7016V75.2528C28.294 75.1463 29.7561 74.746 31.0991 74.0745C32.442 73.4029 33.6395 72.4732 34.6233 71.3389C35.607 70.2045 36.3577 68.8876 36.8324 67.4631C37.3071 66.0386 37.4967 64.5346 37.3901 63.0368V38.5469C37.3901 36.3799 39.1348 34.6357 41.3018 34.6357H50.5521C52.7191 34.6357 54.4633 36.3799 54.4633 38.5469V63.0368C54.3568 64.5346 54.5463 66.0386 55.021 67.4631C55.4958 68.8876 56.2464 70.2045 57.2302 71.3389C58.2139 72.4732 59.4114 73.4029 60.7544 74.0745C62.0973 74.746 63.5594 75.1463 65.0572 75.2528V22.7016L51.928 18.5528V0.395596C49.9383 0.13277 47.9335 0.000557954 45.9265 0Z" fill="white"/>
</svg>
