<svg width="56" height="81" viewBox="0 0 56 81" fill="none" xmlns="http://www.w3.org/2000/svg">
<g clip-path="url(#clip0_1555_6476)">
<path d="M28.0742 0.00264043H27.9303C27.9303 0.00269319 27.9303 0.00264043 27.9303 0.00264043C27.9085 0.106625 27.8812 0.210176 27.8496 0.313052C27.8495 0.313105 27.8496 0.313052 27.8496 0.313052C26.8702 3.50206 21.3963 6.14155 13.956 6.97099V7.00429C12.4058 7.17712 10.7818 7.27079 9.10824 7.27084C5.92055 7.26293 2.78721 6.92335 0 6.27302V58.1125C0 66.7273 5.89761 73.9348 13.956 76.0737V76.0817L28.0002 81L42.0444 76.0817V76.0737C50.1027 73.9348 56 66.7273 56 58.1125V6.28699C53.2097 6.93248 50.0766 7.27095 46.8917 7.27084C41.5767 7.27084 36.7449 6.34159 33.2977 4.83849L33.3492 4.82001C30.3351 3.51791 28.4751 1.82063 28.0775 0.0115921C28.0775 0.0115921 28.0775 0.003693 28.0775 0L28.0742 0.00264043Z" fill="url(#paint0_linear_1555_6476)"/>
<path d="M18.258 56.0759V53.707L14.8351 50.3462L11.4122 46.9852L11.4409 41.1791L11.4697 35.3729L11.7443 34.8636C12.0946 34.2142 12.6763 33.643 13.3352 33.3015C13.7763 33.0729 13.9843 33.0328 14.7343 33.0316C15.4896 33.0316 15.6989 33.0705 16.2019 33.3133C16.8461 33.6243 17.3949 34.1593 17.7612 34.8336C17.9847 35.245 18.0009 35.4044 18.0323 37.5106C18.0558 39.086 18.1019 39.7727 18.1878 39.8264C18.2549 39.8683 18.4497 39.9044 18.6207 39.9065C19.2767 39.9145 19.8283 40.2981 21.4642 41.884L23.0772 43.4478L23.5954 43.3998C24.2687 43.3376 25.479 43.5924 26.2134 43.9509C26.5332 44.1072 27.0665 44.4942 27.3984 44.811L28.0019 45.387L28.5774 44.8347C29.5543 43.8972 31.0631 43.328 32.4271 43.3822L32.988 43.4046L34.5618 41.8691C36.1844 40.286 36.4747 40.0736 37.1756 39.9567C38.0221 39.8154 37.9493 40.0266 37.9493 37.7128C37.9493 35.8734 37.9734 35.5719 38.16 35.0817C38.4416 34.3421 39.0662 33.6666 39.7926 33.316C40.3045 33.0689 40.5043 33.0308 41.2657 33.035C42.0068 33.0393 42.2289 33.082 42.6649 33.305C43.3214 33.6408 43.9041 34.2119 44.2557 34.8637L44.5303 35.373L44.5591 41.1792L44.5879 46.9853L41.165 50.3462L37.742 53.707V56.0759V58.4448H28H18.258L18.258 56.0759ZM27.0473 52.1038C27.0155 47.7132 27.0146 47.6965 26.7686 47.1615C26.4588 46.4877 25.624 45.7229 24.9358 45.4823C24.3472 45.2765 23.6317 45.2541 22.9596 45.4205L22.4912 45.5364L20.6078 43.7006C19.5719 42.691 18.6154 41.8323 18.4821 41.7925C17.7389 41.5702 17.0143 42.1343 17.0143 42.9353C17.0143 43.3969 17.0301 43.4183 18.3098 44.6894C19.0223 45.3972 19.6053 46.0214 19.6053 46.0765C19.6053 46.2125 18.436 47.3418 18.2951 47.3418C18.0757 47.3418 15.5842 44.6981 15.343 44.2095C14.831 43.1719 14.9999 41.9 15.7772 40.9405L16.1852 40.4369L16.1828 38.2615C16.1801 35.7892 16.0882 35.3868 15.4506 35.0628C14.9253 34.7957 14.1774 34.9055 13.7659 35.3099L13.4387 35.6314L13.41 40.8962L13.3814 46.1609L16.8042 49.5306L20.227 52.9003V54.7049V56.5094H23.6531H27.0792L27.0473 52.1038ZM35.7729 54.7049V52.9003L39.1957 49.5306L42.6185 46.1609L42.5899 40.8962L42.5612 35.6314L42.234 35.3099C41.7908 34.8744 41.0353 34.7861 40.5055 35.1079C39.892 35.4806 39.8148 35.8362 39.8148 38.289V40.4369L40.2227 40.9405C41.0043 41.9052 41.1693 43.1712 40.6506 44.2223C40.4028 44.7244 37.9324 47.3418 37.7063 47.3418C37.5644 47.3418 36.3947 46.2134 36.3947 46.0765C36.3947 46.0214 36.9777 45.3972 37.6902 44.6894C38.9698 43.4183 38.9857 43.3969 38.9857 42.9353C38.9857 42.1343 38.261 41.5702 37.5178 41.7925C37.3846 41.8323 36.4281 42.691 35.3922 43.7006L33.5088 45.5364L33.0403 45.4205C32.3683 45.2541 31.6527 45.2765 31.0642 45.4823C30.376 45.7229 29.5412 46.4877 29.2314 47.1615C28.9853 47.6966 28.9844 47.7123 28.9535 52.1038L28.9225 56.5094H32.3477H35.7729L35.7729 54.7049Z" fill="white"/>
<path d="M33.2109 34.0253C33.2109 35.2109 32.8207 36.1803 32.0401 36.9335C31.2738 37.6728 30.2662 38.1191 29.0174 38.2725V40.1346H27.6338V38.2934C26.4559 38.2237 25.4483 37.9099 24.611 37.3519C23.7737 36.794 23.1706 36.0338 22.8016 35.0714L24.909 33.8789C25.4057 35.1063 26.314 35.7898 27.6338 35.9292V31.5775C26.9952 31.3403 26.4772 31.1311 26.0798 30.9498C25.6825 30.7545 25.2567 30.4895 24.8026 30.1547C24.3627 29.82 24.0292 29.4155 23.8021 28.9413C23.5893 28.4531 23.4828 27.8882 23.4828 27.2466C23.4828 26.075 23.8802 25.1265 24.6749 24.4012C25.4696 23.6759 26.4559 23.2574 27.6338 23.1458V21.3047H29.0174V23.1668C30.919 23.4178 32.2388 24.3733 32.9768 26.0331L30.9119 27.2047C30.543 26.2981 29.9115 25.7472 29.0174 25.5519V29.6945C29.4715 29.8618 29.8121 29.9943 30.0392 30.092C30.2804 30.1896 30.5926 30.3361 30.9758 30.5313C31.3732 30.7266 31.6783 30.9219 31.8911 31.1171C32.104 31.3124 32.324 31.5495 32.551 31.8285C32.7923 32.1075 32.9626 32.4353 33.0619 32.8119C33.1613 33.1745 33.2109 33.579 33.2109 34.0253ZM25.9308 27.2466C25.9308 27.679 26.0585 28.0346 26.314 28.3136C26.5836 28.5925 27.0235 28.8715 27.6338 29.1505V25.51C27.1087 25.5937 26.69 25.789 26.3778 26.0958C26.0798 26.4027 25.9308 26.7863 25.9308 27.2466ZM29.0174 35.9083C29.5851 35.7967 30.0179 35.5735 30.3159 35.2388C30.6139 34.904 30.7629 34.5065 30.7629 34.0462C30.7629 33.586 30.621 33.2163 30.3372 32.9374C30.0534 32.6444 29.6134 32.3655 29.0174 32.1005V35.9083Z" fill="white"/>
</g>
<defs>
<linearGradient id="paint0_linear_1555_6476" x1="8.35966" y1="73.5732" x2="57.6416" y2="-42.1615" gradientUnits="userSpaceOnUse">
<stop stop-color="#006079"/>
<stop offset="1" stop-color="#00CCFF"/>
</linearGradient>
<clipPath id="clip0_1555_6476">
<rect width="56" height="81" fill="white"/>
</clipPath>
</defs>
</svg>
